<?xml version="1.0" encoding="utf-8" standalone="no"?>
<!DOCTYPE svg PUBLIC "-//W3C//DTD SVG 1.1//EN"
  "http://www.w3.org/Graphics/SVG/1.1/DTD/svg11.dtd">
<svg xmlns:xlink="http://www.w3.org/1999/xlink" width="824.858107pt" height="708.39625pt" viewBox="0 0 824.858107 708.39625" xmlns="http://www.w3.org/2000/svg" version="1.1">
 <metadata>
  <rdf:RDF xmlns:dc="http://purl.org/dc/elements/1.1/" xmlns:cc="http://creativecommons.org/ns#" xmlns:rdf="http://www.w3.org/1999/02/22-rdf-syntax-ns#">
   <cc:Work>
    <dc:type rdf:resource="http://purl.org/dc/dcmitype/StillImage"/>
    <dc:date>2026-03-09T13:35:33.594830</dc:date>
    <dc:format>image/svg+xml</dc:format>
    <dc:creator>
     <cc:Agent>
      <dc:title>Matplotlib v3.10.8, https://matplotlib.org/</dc:title>
     </cc:Agent>
    </dc:creator>
   </cc:Work>
  </rdf:RDF>
 </metadata>
 <defs>
  <style type="text/css">*{stroke-linejoin: round; stroke-linecap: butt}</style>
 </defs>
 <g id="figure_1">
  <g id="patch_1">
   <path d="M 0 708.39625 
L 824.858107 708.39625 
L 824.858107 0 
L 0 0 
z
" style="fill: #ffffff"/>
  </g>
  <g id="axes_1">
   <g id="patch_2">
    <path d="M 50.14375 340.272727 
L 371.433468 340.272727 
L 371.433468 64.8 
L 50.14375 64.8 
z
" style="fill: #ffffff"/>
   </g>
   <g id="FillBetweenPolyCollection_1"/>
   <g id="FillBetweenPolyCollection_2"/>
   <g id="FillBetweenPolyCollection_3"/>
   <g id="FillBetweenPolyCollection_4"/>
   <g id="FillBetweenPolyCollection_5"/>
   <g id="FillBetweenPolyCollection_6"/>
   <g id="matplotlib.axis_1">
    <g id="xtick_1">
     <g id="line2d_1">
      <defs>
       <path id="mec3564b613" d="M 0 0 
L 0 3.5 
" style="stroke: #000000; stroke-width: 0.8"/>
      </defs>
      <g>
       <use xlink:href="#mec3564b613" x="64.747828" y="340.272727" style="stroke: #000000; stroke-width: 0.8"/>
      </g>
     </g>
     <g id="text_1">
      <!-- 1 -->
      <g transform="translate(61.566578 354.871165) scale(0.1 -0.1)">
       <defs>
        <path id="DejaVuSans-31" d="M 794 531 
L 1825 531 
L 1825 4091 
L 703 3866 
L 703 4441 
L 1819 4666 
L 2450 4666 
L 2450 531 
L 3481 531 
L 3481 0 
L 794 0 
L 794 531 
z
" transform="scale(0.015625)"/>
       </defs>
       <use xlink:href="#DejaVuSans-31"/>
      </g>
     </g>
    </g>
    <g id="xtick_2">
     <g id="line2d_2">
      <g>
       <use xlink:href="#mec3564b613" x="113.428088" y="340.272727" style="stroke: #000000; stroke-width: 0.8"/>
      </g>
     </g>
     <g id="text_2">
      <!-- 2 -->
      <g transform="translate(110.246838 354.871165) scale(0.1 -0.1)">
       <defs>
        <path id="DejaVuSans-32" d="M 1228 531 
L 3431 531 
L 3431 0 
L 469 0 
L 469 531 
Q 828 903 1448 1529 
Q 2069 2156 2228 2338 
Q 2531 2678 2651 2914 
Q 2772 3150 2772 3378 
Q 2772 3750 2511 3984 
Q 2250 4219 1831 4219 
Q 1534 4219 1204 4116 
Q 875 4013 500 3803 
L 500 4441 
Q 881 4594 1212 4672 
Q 1544 4750 1819 4750 
Q 2544 4750 2975 4387 
Q 3406 4025 3406 3419 
Q 3406 3131 3298 2873 
Q 3191 2616 2906 2266 
Q 2828 2175 2409 1742 
Q 1991 1309 1228 531 
z
" transform="scale(0.015625)"/>
       </defs>
       <use xlink:href="#DejaVuSans-32"/>
      </g>
     </g>
    </g>
    <g id="xtick_3">
     <g id="line2d_3">
      <g>
       <use xlink:href="#mec3564b613" x="162.108349" y="340.272727" style="stroke: #000000; stroke-width: 0.8"/>
      </g>
     </g>
     <g id="text_3">
      <!-- 3 -->
      <g transform="translate(158.927099 354.871165) scale(0.1 -0.1)">
       <defs>
        <path id="DejaVuSans-33" d="M 2597 2516 
Q 3050 2419 3304 2112 
Q 3559 1806 3559 1356 
Q 3559 666 3084 287 
Q 2609 -91 1734 -91 
Q 1441 -91 1130 -33 
Q 819 25 488 141 
L 488 750 
Q 750 597 1062 519 
Q 1375 441 1716 441 
Q 2309 441 2620 675 
Q 2931 909 2931 1356 
Q 2931 1769 2642 2001 
Q 2353 2234 1838 2234 
L 1294 2234 
L 1294 2753 
L 1863 2753 
Q 2328 2753 2575 2939 
Q 2822 3125 2822 3475 
Q 2822 3834 2567 4026 
Q 2313 4219 1838 4219 
Q 1578 4219 1281 4162 
Q 984 4106 628 3988 
L 628 4550 
Q 988 4650 1302 4700 
Q 1616 4750 1894 4750 
Q 2613 4750 3031 4423 
Q 3450 4097 3450 3541 
Q 3450 3153 3228 2886 
Q 3006 2619 2597 2516 
z
" transform="scale(0.015625)"/>
       </defs>
       <use xlink:href="#DejaVuSans-33"/>
      </g>
     </g>
    </g>
    <g id="xtick_4">
     <g id="line2d_4">
      <g>
       <use xlink:href="#mec3564b613" x="210.788609" y="340.272727" style="stroke: #000000; stroke-width: 0.8"/>
      </g>
     </g>
     <g id="text_4">
      <!-- 4 -->
      <g transform="translate(207.607359 354.871165) scale(0.1 -0.1)">
       <defs>
        <path id="DejaVuSans-34" d="M 2419 4116 
L 825 1625 
L 2419 1625 
L 2419 4116 
z
M 2253 4666 
L 3047 4666 
L 3047 1625 
L 3713 1625 
L 3713 1100 
L 3047 1100 
L 3047 0 
L 2419 0 
L 2419 1100 
L 313 1100 
L 313 1709 
L 2253 4666 
z
" transform="scale(0.015625)"/>
       </defs>
       <use xlink:href="#DejaVuSans-34"/>
      </g>
     </g>
    </g>
    <g id="xtick_5">
     <g id="line2d_5">
      <g>
       <use xlink:href="#mec3564b613" x="259.468869" y="340.272727" style="stroke: #000000; stroke-width: 0.8"/>
      </g>
     </g>
     <g id="text_5">
      <!-- 5 -->
      <g transform="translate(256.287619 354.871165) scale(0.1 -0.1)">
       <defs>
        <path id="DejaVuSans-35" d="M 691 4666 
L 3169 4666 
L 3169 4134 
L 1269 4134 
L 1269 2991 
Q 1406 3038 1543 3061 
Q 1681 3084 1819 3084 
Q 2600 3084 3056 2656 
Q 3513 2228 3513 1497 
Q 3513 744 3044 326 
Q 2575 -91 1722 -91 
Q 1428 -91 1123 -41 
Q 819 9 494 109 
L 494 744 
Q 775 591 1075 516 
Q 1375 441 1709 441 
Q 2250 441 2565 725 
Q 2881 1009 2881 1497 
Q 2881 1984 2565 2268 
Q 2250 2553 1709 2553 
Q 1456 2553 1204 2497 
Q 953 2441 691 2322 
L 691 4666 
z
" transform="scale(0.015625)"/>
       </defs>
       <use xlink:href="#DejaVuSans-35"/>
      </g>
     </g>
    </g>
    <g id="xtick_6">
     <g id="line2d_6">
      <g>
       <use xlink:href="#mec3564b613" x="308.14913" y="340.272727" style="stroke: #000000; stroke-width: 0.8"/>
      </g>
     </g>
     <g id="text_6">
      <!-- 6 -->
      <g transform="translate(304.96788 354.871165) scale(0.1 -0.1)">
       <defs>
        <path id="DejaVuSans-36" d="M 2113 2584 
Q 1688 2584 1439 2293 
Q 1191 2003 1191 1497 
Q 1191 994 1439 701 
Q 1688 409 2113 409 
Q 2538 409 2786 701 
Q 3034 994 3034 1497 
Q 3034 2003 2786 2293 
Q 2538 2584 2113 2584 
z
M 3366 4563 
L 3366 3988 
Q 3128 4100 2886 4159 
Q 2644 4219 2406 4219 
Q 1781 4219 1451 3797 
Q 1122 3375 1075 2522 
Q 1259 2794 1537 2939 
Q 1816 3084 2150 3084 
Q 2853 3084 3261 2657 
Q 3669 2231 3669 1497 
Q 3669 778 3244 343 
Q 2819 -91 2113 -91 
Q 1303 -91 875 529 
Q 447 1150 447 2328 
Q 447 3434 972 4092 
Q 1497 4750 2381 4750 
Q 2619 4750 2861 4703 
Q 3103 4656 3366 4563 
z
" transform="scale(0.015625)"/>
       </defs>
       <use xlink:href="#DejaVuSans-36"/>
      </g>
     </g>
    </g>
    <g id="xtick_7">
     <g id="line2d_7">
      <g>
       <use xlink:href="#mec3564b613" x="356.82939" y="340.272727" style="stroke: #000000; stroke-width: 0.8"/>
      </g>
     </g>
     <g id="text_7">
      <!-- 7 -->
      <g transform="translate(353.64814 354.871165) scale(0.1 -0.1)">
       <defs>
        <path id="DejaVuSans-37" d="M 525 4666 
L 3525 4666 
L 3525 4397 
L 1831 0 
L 1172 0 
L 2766 4134 
L 525 4134 
L 525 4666 
z
" transform="scale(0.015625)"/>
       </defs>
       <use xlink:href="#DejaVuSans-37"/>
      </g>
     </g>
    </g>
    <g id="text_8">
     <!-- Packed width (bit) -->
     <g transform="translate(165.836265 368.54929) scale(0.1 -0.1)">
      <defs>
       <path id="DejaVuSans-50" d="M 1259 4147 
L 1259 2394 
L 2053 2394 
Q 2494 2394 2734 2622 
Q 2975 2850 2975 3272 
Q 2975 3691 2734 3919 
Q 2494 4147 2053 4147 
L 1259 4147 
z
M 628 4666 
L 2053 4666 
Q 2838 4666 3239 4311 
Q 3641 3956 3641 3272 
Q 3641 2581 3239 2228 
Q 2838 1875 2053 1875 
L 1259 1875 
L 1259 0 
L 628 0 
L 628 4666 
z
" transform="scale(0.015625)"/>
       <path id="DejaVuSans-61" d="M 2194 1759 
Q 1497 1759 1228 1600 
Q 959 1441 959 1056 
Q 959 750 1161 570 
Q 1363 391 1709 391 
Q 2188 391 2477 730 
Q 2766 1069 2766 1631 
L 2766 1759 
L 2194 1759 
z
M 3341 1997 
L 3341 0 
L 2766 0 
L 2766 531 
Q 2569 213 2275 61 
Q 1981 -91 1556 -91 
Q 1019 -91 701 211 
Q 384 513 384 1019 
Q 384 1609 779 1909 
Q 1175 2209 1959 2209 
L 2766 2209 
L 2766 2266 
Q 2766 2663 2505 2880 
Q 2244 3097 1772 3097 
Q 1472 3097 1187 3025 
Q 903 2953 641 2809 
L 641 3341 
Q 956 3463 1253 3523 
Q 1550 3584 1831 3584 
Q 2591 3584 2966 3190 
Q 3341 2797 3341 1997 
z
" transform="scale(0.015625)"/>
       <path id="DejaVuSans-63" d="M 3122 3366 
L 3122 2828 
Q 2878 2963 2633 3030 
Q 2388 3097 2138 3097 
Q 1578 3097 1268 2742 
Q 959 2388 959 1747 
Q 959 1106 1268 751 
Q 1578 397 2138 397 
Q 2388 397 2633 464 
Q 2878 531 3122 666 
L 3122 134 
Q 2881 22 2623 -34 
Q 2366 -91 2075 -91 
Q 1284 -91 818 406 
Q 353 903 353 1747 
Q 353 2603 823 3093 
Q 1294 3584 2113 3584 
Q 2378 3584 2631 3529 
Q 2884 3475 3122 3366 
z
" transform="scale(0.015625)"/>
       <path id="DejaVuSans-6b" d="M 581 4863 
L 1159 4863 
L 1159 1991 
L 2875 3500 
L 3609 3500 
L 1753 1863 
L 3688 0 
L 2938 0 
L 1159 1709 
L 1159 0 
L 581 0 
L 581 4863 
z
" transform="scale(0.015625)"/>
       <path id="DejaVuSans-65" d="M 3597 1894 
L 3597 1613 
L 953 1613 
Q 991 1019 1311 708 
Q 1631 397 2203 397 
Q 2534 397 2845 478 
Q 3156 559 3463 722 
L 3463 178 
Q 3153 47 2828 -22 
Q 2503 -91 2169 -91 
Q 1331 -91 842 396 
Q 353 884 353 1716 
Q 353 2575 817 3079 
Q 1281 3584 2069 3584 
Q 2775 3584 3186 3129 
Q 3597 2675 3597 1894 
z
M 3022 2063 
Q 3016 2534 2758 2815 
Q 2500 3097 2075 3097 
Q 1594 3097 1305 2825 
Q 1016 2553 972 2059 
L 3022 2063 
z
" transform="scale(0.015625)"/>
       <path id="DejaVuSans-64" d="M 2906 2969 
L 2906 4863 
L 3481 4863 
L 3481 0 
L 2906 0 
L 2906 525 
Q 2725 213 2448 61 
Q 2172 -91 1784 -91 
Q 1150 -91 751 415 
Q 353 922 353 1747 
Q 353 2572 751 3078 
Q 1150 3584 1784 3584 
Q 2172 3584 2448 3432 
Q 2725 3281 2906 2969 
z
M 947 1747 
Q 947 1113 1208 752 
Q 1469 391 1925 391 
Q 2381 391 2643 752 
Q 2906 1113 2906 1747 
Q 2906 2381 2643 2742 
Q 2381 3103 1925 3103 
Q 1469 3103 1208 2742 
Q 947 2381 947 1747 
z
" transform="scale(0.015625)"/>
       <path id="DejaVuSans-20" transform="scale(0.015625)"/>
       <path id="DejaVuSans-77" d="M 269 3500 
L 844 3500 
L 1563 769 
L 2278 3500 
L 2956 3500 
L 3675 769 
L 4391 3500 
L 4966 3500 
L 4050 0 
L 3372 0 
L 2619 2869 
L 1863 0 
L 1184 0 
L 269 3500 
z
" transform="scale(0.015625)"/>
       <path id="DejaVuSans-69" d="M 603 3500 
L 1178 3500 
L 1178 0 
L 603 0 
L 603 3500 
z
M 603 4863 
L 1178 4863 
L 1178 4134 
L 603 4134 
L 603 4863 
z
" transform="scale(0.015625)"/>
       <path id="DejaVuSans-74" d="M 1172 4494 
L 1172 3500 
L 2356 3500 
L 2356 3053 
L 1172 3053 
L 1172 1153 
Q 1172 725 1289 603 
Q 1406 481 1766 481 
L 2356 481 
L 2356 0 
L 1766 0 
Q 1100 0 847 248 
Q 594 497 594 1153 
L 594 3053 
L 172 3053 
L 172 3500 
L 594 3500 
L 594 4494 
L 1172 4494 
z
" transform="scale(0.015625)"/>
       <path id="DejaVuSans-68" d="M 3513 2113 
L 3513 0 
L 2938 0 
L 2938 2094 
Q 2938 2591 2744 2837 
Q 2550 3084 2163 3084 
Q 1697 3084 1428 2787 
Q 1159 2491 1159 1978 
L 1159 0 
L 581 0 
L 581 4863 
L 1159 4863 
L 1159 2956 
Q 1366 3272 1645 3428 
Q 1925 3584 2291 3584 
Q 2894 3584 3203 3211 
Q 3513 2838 3513 2113 
z
" transform="scale(0.015625)"/>
       <path id="DejaVuSans-28" d="M 1984 4856 
Q 1566 4138 1362 3434 
Q 1159 2731 1159 2009 
Q 1159 1288 1364 580 
Q 1569 -128 1984 -844 
L 1484 -844 
Q 1016 -109 783 600 
Q 550 1309 550 2009 
Q 550 2706 781 3412 
Q 1013 4119 1484 4856 
L 1984 4856 
z
" transform="scale(0.015625)"/>
       <path id="DejaVuSans-62" d="M 3116 1747 
Q 3116 2381 2855 2742 
Q 2594 3103 2138 3103 
Q 1681 3103 1420 2742 
Q 1159 2381 1159 1747 
Q 1159 1113 1420 752 
Q 1681 391 2138 391 
Q 2594 391 2855 752 
Q 3116 1113 3116 1747 
z
M 1159 2969 
Q 1341 3281 1617 3432 
Q 1894 3584 2278 3584 
Q 2916 3584 3314 3078 
Q 3713 2572 3713 1747 
Q 3713 922 3314 415 
Q 2916 -91 2278 -91 
Q 1894 -91 1617 61 
Q 1341 213 1159 525 
L 1159 0 
L 581 0 
L 581 4863 
L 1159 4863 
L 1159 2969 
z
" transform="scale(0.015625)"/>
       <path id="DejaVuSans-29" d="M 513 4856 
L 1013 4856 
Q 1481 4119 1714 3412 
Q 1947 2706 1947 2009 
Q 1947 1309 1714 600 
Q 1481 -109 1013 -844 
L 513 -844 
Q 928 -128 1133 580 
Q 1338 1288 1338 2009 
Q 1338 2731 1133 3434 
Q 928 4138 513 4856 
z
" transform="scale(0.015625)"/>
      </defs>
      <use xlink:href="#DejaVuSans-50"/>
      <use xlink:href="#DejaVuSans-61" transform="translate(55.802734 0)"/>
      <use xlink:href="#DejaVuSans-63" transform="translate(117.082031 0)"/>
      <use xlink:href="#DejaVuSans-6b" transform="translate(172.0625 0)"/>
      <use xlink:href="#DejaVuSans-65" transform="translate(226.347656 0)"/>
      <use xlink:href="#DejaVuSans-64" transform="translate(287.871094 0)"/>
      <use xlink:href="#DejaVuSans-20" transform="translate(351.347656 0)"/>
      <use xlink:href="#DejaVuSans-77" transform="translate(383.134766 0)"/>
      <use xlink:href="#DejaVuSans-69" transform="translate(464.921875 0)"/>
      <use xlink:href="#DejaVuSans-64" transform="translate(492.705078 0)"/>
      <use xlink:href="#DejaVuSans-74" transform="translate(556.181641 0)"/>
      <use xlink:href="#DejaVuSans-68" transform="translate(595.390625 0)"/>
      <use xlink:href="#DejaVuSans-20" transform="translate(658.769531 0)"/>
      <use xlink:href="#DejaVuSans-28" transform="translate(690.556641 0)"/>
      <use xlink:href="#DejaVuSans-62" transform="translate(729.570312 0)"/>
      <use xlink:href="#DejaVuSans-69" transform="translate(793.046875 0)"/>
      <use xlink:href="#DejaVuSans-74" transform="translate(820.830078 0)"/>
      <use xlink:href="#DejaVuSans-29" transform="translate(860.039062 0)"/>
     </g>
    </g>
   </g>
   <g id="matplotlib.axis_2">
    <g id="ytick_1">
     <g id="line2d_8">
      <defs>
       <path id="mc18cdead72" d="M 0 0 
L -3.5 0 
" style="stroke: #000000; stroke-width: 0.8"/>
      </defs>
      <g>
       <use xlink:href="#mc18cdead72" x="50.14375" y="329.563259" style="stroke: #000000; stroke-width: 0.8"/>
      </g>
     </g>
     <g id="text_9">
      <!-- 0.0 -->
      <g transform="translate(27.240625 333.362478) scale(0.1 -0.1)">
       <defs>
        <path id="DejaVuSans-30" d="M 2034 4250 
Q 1547 4250 1301 3770 
Q 1056 3291 1056 2328 
Q 1056 1369 1301 889 
Q 1547 409 2034 409 
Q 2525 409 2770 889 
Q 3016 1369 3016 2328 
Q 3016 3291 2770 3770 
Q 2525 4250 2034 4250 
z
M 2034 4750 
Q 2819 4750 3233 4129 
Q 3647 3509 3647 2328 
Q 3647 1150 3233 529 
Q 2819 -91 2034 -91 
Q 1250 -91 836 529 
Q 422 1150 422 2328 
Q 422 3509 836 4129 
Q 1250 4750 2034 4750 
z
" transform="scale(0.015625)"/>
        <path id="DejaVuSans-2e" d="M 684 794 
L 1344 794 
L 1344 0 
L 684 0 
L 684 794 
z
" transform="scale(0.015625)"/>
       </defs>
       <use xlink:href="#DejaVuSans-30"/>
       <use xlink:href="#DejaVuSans-2e" transform="translate(63.623047 0)"/>
       <use xlink:href="#DejaVuSans-30" transform="translate(95.410156 0)"/>
      </g>
     </g>
    </g>
    <g id="ytick_2">
     <g id="line2d_9">
      <g>
       <use xlink:href="#mc18cdead72" x="50.14375" y="270.184916" style="stroke: #000000; stroke-width: 0.8"/>
      </g>
     </g>
     <g id="text_10">
      <!-- 5.0 -->
      <g transform="translate(27.240625 273.984135) scale(0.1 -0.1)">
       <use xlink:href="#DejaVuSans-35"/>
       <use xlink:href="#DejaVuSans-2e" transform="translate(63.623047 0)"/>
       <use xlink:href="#DejaVuSans-30" transform="translate(95.410156 0)"/>
      </g>
     </g>
    </g>
    <g id="ytick_3">
     <g id="line2d_10">
      <g>
       <use xlink:href="#mc18cdead72" x="50.14375" y="210.806573" style="stroke: #000000; stroke-width: 0.8"/>
      </g>
     </g>
     <g id="text_11">
      <!-- 10.0 -->
      <g transform="translate(20.878125 214.605792) scale(0.1 -0.1)">
       <use xlink:href="#DejaVuSans-31"/>
       <use xlink:href="#DejaVuSans-30" transform="translate(63.623047 0)"/>
       <use xlink:href="#DejaVuSans-2e" transform="translate(127.246094 0)"/>
       <use xlink:href="#DejaVuSans-30" transform="translate(159.033203 0)"/>
      </g>
     </g>
    </g>
    <g id="ytick_4">
     <g id="line2d_11">
      <g>
       <use xlink:href="#mc18cdead72" x="50.14375" y="151.42823" style="stroke: #000000; stroke-width: 0.8"/>
      </g>
     </g>
     <g id="text_12">
      <!-- 15.0 -->
      <g transform="translate(20.878125 155.227449) scale(0.1 -0.1)">
       <use xlink:href="#DejaVuSans-31"/>
       <use xlink:href="#DejaVuSans-35" transform="translate(63.623047 0)"/>
       <use xlink:href="#DejaVuSans-2e" transform="translate(127.246094 0)"/>
       <use xlink:href="#DejaVuSans-30" transform="translate(159.033203 0)"/>
      </g>
     </g>
    </g>
    <g id="ytick_5">
     <g id="line2d_12">
      <g>
       <use xlink:href="#mc18cdead72" x="50.14375" y="92.049887" style="stroke: #000000; stroke-width: 0.8"/>
      </g>
     </g>
     <g id="text_13">
      <!-- 20.0 -->
      <g transform="translate(20.878125 95.849106) scale(0.1 -0.1)">
       <use xlink:href="#DejaVuSans-32"/>
       <use xlink:href="#DejaVuSans-30" transform="translate(63.623047 0)"/>
       <use xlink:href="#DejaVuSans-2e" transform="translate(127.246094 0)"/>
       <use xlink:href="#DejaVuSans-30" transform="translate(159.033203 0)"/>
      </g>
     </g>
    </g>
    <g id="text_14">
     <!-- speed (×10⁹ int/s) -->
     <g transform="translate(14.798438 248.086364) rotate(-90) scale(0.1 -0.1)">
      <defs>
       <path id="DejaVuSans-73" d="M 2834 3397 
L 2834 2853 
Q 2591 2978 2328 3040 
Q 2066 3103 1784 3103 
Q 1356 3103 1142 2972 
Q 928 2841 928 2578 
Q 928 2378 1081 2264 
Q 1234 2150 1697 2047 
L 1894 2003 
Q 2506 1872 2764 1633 
Q 3022 1394 3022 966 
Q 3022 478 2636 193 
Q 2250 -91 1575 -91 
Q 1294 -91 989 -36 
Q 684 19 347 128 
L 347 722 
Q 666 556 975 473 
Q 1284 391 1588 391 
Q 1994 391 2212 530 
Q 2431 669 2431 922 
Q 2431 1156 2273 1281 
Q 2116 1406 1581 1522 
L 1381 1569 
Q 847 1681 609 1914 
Q 372 2147 372 2553 
Q 372 3047 722 3315 
Q 1072 3584 1716 3584 
Q 2034 3584 2315 3537 
Q 2597 3491 2834 3397 
z
" transform="scale(0.015625)"/>
       <path id="DejaVuSans-70" d="M 1159 525 
L 1159 -1331 
L 581 -1331 
L 581 3500 
L 1159 3500 
L 1159 2969 
Q 1341 3281 1617 3432 
Q 1894 3584 2278 3584 
Q 2916 3584 3314 3078 
Q 3713 2572 3713 1747 
Q 3713 922 3314 415 
Q 2916 -91 2278 -91 
Q 1894 -91 1617 61 
Q 1341 213 1159 525 
z
M 3116 1747 
Q 3116 2381 2855 2742 
Q 2594 3103 2138 3103 
Q 1681 3103 1420 2742 
Q 1159 2381 1159 1747 
Q 1159 1113 1420 752 
Q 1681 391 2138 391 
Q 2594 391 2855 752 
Q 3116 1113 3116 1747 
z
" transform="scale(0.015625)"/>
       <path id="DejaVuSans-d7" d="M 4488 3438 
L 3059 2003 
L 4488 575 
L 4116 197 
L 2681 1631 
L 1247 197 
L 878 575 
L 2303 2003 
L 878 3438 
L 1247 3816 
L 2681 2381 
L 4116 3816 
L 4488 3438 
z
" transform="scale(0.015625)"/>
       <path id="DejaVuSans-2079" d="M 453 2144 
L 453 2466 
Q 606 2403 763 2369 
Q 919 2338 1069 2338 
Q 1472 2338 1684 2572 
Q 1894 2806 1925 3288 
Q 1816 3141 1628 3056 
Q 1450 2975 1234 2975 
Q 784 2975 521 3212 
Q 259 3450 259 3863 
Q 259 4266 531 4506 
Q 806 4750 1259 4750 
Q 1781 4750 2053 4403 
Q 2328 4056 2328 3394 
Q 2328 2775 1994 2409 
Q 1656 2041 1088 2041 
Q 934 2041 778 2066 
Q 622 2094 453 2144 
z
M 1259 3250 
Q 1534 3250 1693 3412 
Q 1853 3575 1853 3863 
Q 1853 4144 1694 4306 
Q 1534 4472 1259 4472 
Q 994 4472 828 4306 
Q 666 4144 666 3863 
Q 666 3575 828 3413 
Q 988 3250 1259 3250 
z
" transform="scale(0.015625)"/>
       <path id="DejaVuSans-6e" d="M 3513 2113 
L 3513 0 
L 2938 0 
L 2938 2094 
Q 2938 2591 2744 2837 
Q 2550 3084 2163 3084 
Q 1697 3084 1428 2787 
Q 1159 2491 1159 1978 
L 1159 0 
L 581 0 
L 581 3500 
L 1159 3500 
L 1159 2956 
Q 1366 3272 1645 3428 
Q 1925 3584 2291 3584 
Q 2894 3584 3203 3211 
Q 3513 2838 3513 2113 
z
" transform="scale(0.015625)"/>
       <path id="DejaVuSans-2f" d="M 1625 4666 
L 2156 4666 
L 531 -594 
L 0 -594 
L 1625 4666 
z
" transform="scale(0.015625)"/>
      </defs>
      <use xlink:href="#DejaVuSans-73"/>
      <use xlink:href="#DejaVuSans-70" transform="translate(52.099609 0)"/>
      <use xlink:href="#DejaVuSans-65" transform="translate(115.576172 0)"/>
      <use xlink:href="#DejaVuSans-65" transform="translate(177.099609 0)"/>
      <use xlink:href="#DejaVuSans-64" transform="translate(238.623047 0)"/>
      <use xlink:href="#DejaVuSans-20" transform="translate(302.099609 0)"/>
      <use xlink:href="#DejaVuSans-28" transform="translate(333.886719 0)"/>
      <use xlink:href="#DejaVuSans-d7" transform="translate(372.900391 0)"/>
      <use xlink:href="#DejaVuSans-31" transform="translate(456.689453 0)"/>
      <use xlink:href="#DejaVuSans-30" transform="translate(520.3125 0)"/>
      <use xlink:href="#DejaVuSans-2079" transform="translate(583.935547 0)"/>
      <use xlink:href="#DejaVuSans-20" transform="translate(624.023438 0)"/>
      <use xlink:href="#DejaVuSans-69" transform="translate(655.810547 0)"/>
      <use xlink:href="#DejaVuSans-6e" transform="translate(683.59375 0)"/>
      <use xlink:href="#DejaVuSans-74" transform="translate(746.972656 0)"/>
      <use xlink:href="#DejaVuSans-2f" transform="translate(786.181641 0)"/>
      <use xlink:href="#DejaVuSans-73" transform="translate(819.873047 0)"/>
      <use xlink:href="#DejaVuSans-29" transform="translate(871.972656 0)"/>
     </g>
    </g>
   </g>
   <g id="line2d_13">
    <path d="M 64.747828 247.05167 
L 113.428088 262.417183 
L 162.108349 265.950782 
L 210.788609 262.110672 
L 259.468869 266.071409 
L 308.14913 265.354916 
L 356.82939 266.351241 
" clip-path="url(#p36acc80a40)" style="fill: none; stroke-dasharray: 3,3; stroke-dashoffset: 0; stroke: #ff7f0e; stroke-width: 1.5"/>
   </g>
   <g id="line2d_14">
    <path d="M 64.747828 104.178347 
L 113.428088 107.269607 
L 162.108349 133.742825 
L 210.788609 77.682939 
L 259.468869 175.16626 
L 308.14913 306.757425 
L 356.82939 306.756758 
" clip-path="url(#p36acc80a40)" style="fill: none; stroke-dasharray: 3,3; stroke-dashoffset: 0; stroke: #2ca02c; stroke-width: 1.5"/>
   </g>
   <g id="line2d_15">
    <path d="M 64.747828 193.075844 
L 113.428088 153.716008 
L 162.108349 204.116458 
L 210.788609 77.321488 
L 259.468869 212.026509 
L 308.14913 200.356836 
L 356.82939 213.709599 
" clip-path="url(#p36acc80a40)" style="fill: none; stroke-dasharray: 1.5,0; stroke-dashoffset: 0; stroke: #2ca02c; stroke-width: 1.5"/>
   </g>
   <g id="line2d_16">
    <path d="M 64.747828 307.894513 
L 113.428088 306.891544 
L 162.108349 306.820291 
L 210.788609 304.062275 
L 259.468869 308.507822 
L 308.14913 307.928261 
L 356.82939 309.656837 
" clip-path="url(#p36acc80a40)" style="fill: none; stroke-dasharray: 3,3; stroke-dashoffset: 0; stroke: #9467bd; stroke-width: 1.5"/>
   </g>
   <g id="line2d_17">
    <path d="M 64.747828 290.646203 
L 113.428088 290.638028 
L 162.108349 293.287924 
L 210.788609 290.936163 
L 259.468869 295.445795 
L 308.14913 295.462643 
L 356.82939 298.730775 
" clip-path="url(#p36acc80a40)" style="fill: none; stroke-dasharray: 1.5,0; stroke-dashoffset: 0; stroke: #9467bd; stroke-width: 1.5"/>
   </g>
   <g id="line2d_18">
    <path d="M 64.747828 306.545397 
L 113.428088 327.476171 
L 162.108349 307.687221 
L 210.788609 321.024179 
L 259.468869 309.800912 
L 308.14913 327.530075 
L 356.82939 310.857101 
" clip-path="url(#p36acc80a40)" style="fill: none; stroke-dasharray: 7.5,7.5; stroke-dashoffset: 0; stroke: #8c564b; stroke-width: 1.5"/>
   </g>
   <g id="line2d_19"/>
   <g id="line2d_20"/>
   <g id="line2d_21"/>
   <g id="line2d_22"/>
   <g id="line2d_23"/>
   <g id="line2d_24"/>
   <g id="line2d_25"/>
   <g id="line2d_26"/>
   <g id="line2d_27"/>
   <g id="patch_3">
    <path d="M 50.14375 340.272727 
L 50.14375 64.8 
" style="fill: none; stroke: #000000; stroke-width: 0.8; stroke-linejoin: miter; stroke-linecap: square"/>
   </g>
   <g id="patch_4">
    <path d="M 50.14375 340.272727 
L 371.433468 340.272727 
" style="fill: none; stroke: #000000; stroke-width: 0.8; stroke-linejoin: miter; stroke-linecap: square"/>
   </g>
   <g id="text_15">
    <!-- Unpacking to Uint8 -->
    <g transform="translate(162.78939 72.573636) scale(0.1 -0.1)">
     <defs>
      <path id="DejaVuSans-55" d="M 556 4666 
L 1191 4666 
L 1191 1831 
Q 1191 1081 1462 751 
Q 1734 422 2344 422 
Q 2950 422 3222 751 
Q 3494 1081 3494 1831 
L 3494 4666 
L 4128 4666 
L 4128 1753 
Q 4128 841 3676 375 
Q 3225 -91 2344 -91 
Q 1459 -91 1007 375 
Q 556 841 556 1753 
L 556 4666 
z
" transform="scale(0.015625)"/>
      <path id="DejaVuSans-67" d="M 2906 1791 
Q 2906 2416 2648 2759 
Q 2391 3103 1925 3103 
Q 1463 3103 1205 2759 
Q 947 2416 947 1791 
Q 947 1169 1205 825 
Q 1463 481 1925 481 
Q 2391 481 2648 825 
Q 2906 1169 2906 1791 
z
M 3481 434 
Q 3481 -459 3084 -895 
Q 2688 -1331 1869 -1331 
Q 1566 -1331 1297 -1286 
Q 1028 -1241 775 -1147 
L 775 -588 
Q 1028 -725 1275 -790 
Q 1522 -856 1778 -856 
Q 2344 -856 2625 -561 
Q 2906 -266 2906 331 
L 2906 616 
Q 2728 306 2450 153 
Q 2172 0 1784 0 
Q 1141 0 747 490 
Q 353 981 353 1791 
Q 353 2603 747 3093 
Q 1141 3584 1784 3584 
Q 2172 3584 2450 3431 
Q 2728 3278 2906 2969 
L 2906 3500 
L 3481 3500 
L 3481 434 
z
" transform="scale(0.015625)"/>
      <path id="DejaVuSans-6f" d="M 1959 3097 
Q 1497 3097 1228 2736 
Q 959 2375 959 1747 
Q 959 1119 1226 758 
Q 1494 397 1959 397 
Q 2419 397 2687 759 
Q 2956 1122 2956 1747 
Q 2956 2369 2687 2733 
Q 2419 3097 1959 3097 
z
M 1959 3584 
Q 2709 3584 3137 3096 
Q 3566 2609 3566 1747 
Q 3566 888 3137 398 
Q 2709 -91 1959 -91 
Q 1206 -91 779 398 
Q 353 888 353 1747 
Q 353 2609 779 3096 
Q 1206 3584 1959 3584 
z
" transform="scale(0.015625)"/>
      <path id="DejaVuSans-38" d="M 2034 2216 
Q 1584 2216 1326 1975 
Q 1069 1734 1069 1313 
Q 1069 891 1326 650 
Q 1584 409 2034 409 
Q 2484 409 2743 651 
Q 3003 894 3003 1313 
Q 3003 1734 2745 1975 
Q 2488 2216 2034 2216 
z
M 1403 2484 
Q 997 2584 770 2862 
Q 544 3141 544 3541 
Q 544 4100 942 4425 
Q 1341 4750 2034 4750 
Q 2731 4750 3128 4425 
Q 3525 4100 3525 3541 
Q 3525 3141 3298 2862 
Q 3072 2584 2669 2484 
Q 3125 2378 3379 2068 
Q 3634 1759 3634 1313 
Q 3634 634 3220 271 
Q 2806 -91 2034 -91 
Q 1263 -91 848 271 
Q 434 634 434 1313 
Q 434 1759 690 2068 
Q 947 2378 1403 2484 
z
M 1172 3481 
Q 1172 3119 1398 2916 
Q 1625 2713 2034 2713 
Q 2441 2713 2670 2916 
Q 2900 3119 2900 3481 
Q 2900 3844 2670 4047 
Q 2441 4250 2034 4250 
Q 1625 4250 1398 4047 
Q 1172 3844 1172 3481 
z
" transform="scale(0.015625)"/>
     </defs>
     <use xlink:href="#DejaVuSans-55"/>
     <use xlink:href="#DejaVuSans-6e" transform="translate(73.193359 0)"/>
     <use xlink:href="#DejaVuSans-70" transform="translate(136.572266 0)"/>
     <use xlink:href="#DejaVuSans-61" transform="translate(200.048828 0)"/>
     <use xlink:href="#DejaVuSans-63" transform="translate(261.328125 0)"/>
     <use xlink:href="#DejaVuSans-6b" transform="translate(316.308594 0)"/>
     <use xlink:href="#DejaVuSans-69" transform="translate(374.21875 0)"/>
     <use xlink:href="#DejaVuSans-6e" transform="translate(402.001953 0)"/>
     <use xlink:href="#DejaVuSans-67" transform="translate(465.380859 0)"/>
     <use xlink:href="#DejaVuSans-20" transform="translate(528.857422 0)"/>
     <use xlink:href="#DejaVuSans-74" transform="translate(560.644531 0)"/>
     <use xlink:href="#DejaVuSans-6f" transform="translate(599.853516 0)"/>
     <use xlink:href="#DejaVuSans-20" transform="translate(661.035156 0)"/>
     <use xlink:href="#DejaVuSans-55" transform="translate(692.822266 0)"/>
     <use xlink:href="#DejaVuSans-69" transform="translate(766.015625 0)"/>
     <use xlink:href="#DejaVuSans-6e" transform="translate(793.798828 0)"/>
     <use xlink:href="#DejaVuSans-74" transform="translate(857.177734 0)"/>
     <use xlink:href="#DejaVuSans-38" transform="translate(896.386719 0)"/>
    </g>
   </g>
  </g>
  <g id="axes_2">
   <g id="patch_5">
    <path d="M 385.633789 340.272727 
L 706.923507 340.272727 
L 706.923507 64.8 
L 385.633789 64.8 
z
" style="fill: #ffffff"/>
   </g>
   <g id="FillBetweenPolyCollection_7"/>
   <g id="FillBetweenPolyCollection_8"/>
   <g id="FillBetweenPolyCollection_9"/>
   <g id="FillBetweenPolyCollection_10"/>
   <g id="FillBetweenPolyCollection_11"/>
   <g id="FillBetweenPolyCollection_12"/>
   <g id="matplotlib.axis_3">
    <g id="xtick_8">
     <g id="line2d_28">
      <g>
       <use xlink:href="#mec3564b613" x="421.100836" y="340.272727" style="stroke: #000000; stroke-width: 0.8"/>
      </g>
     </g>
     <g id="text_16">
      <!-- 2 -->
      <g transform="translate(417.919586 354.871165) scale(0.1 -0.1)">
       <use xlink:href="#DejaVuSans-32"/>
      </g>
     </g>
    </g>
    <g id="xtick_9">
     <g id="line2d_29">
      <g>
       <use xlink:href="#mec3564b613" x="462.826774" y="340.272727" style="stroke: #000000; stroke-width: 0.8"/>
      </g>
     </g>
     <g id="text_17">
      <!-- 4 -->
      <g transform="translate(459.645524 354.871165) scale(0.1 -0.1)">
       <use xlink:href="#DejaVuSans-34"/>
      </g>
     </g>
    </g>
    <g id="xtick_10">
     <g id="line2d_30">
      <g>
       <use xlink:href="#mec3564b613" x="504.552711" y="340.272727" style="stroke: #000000; stroke-width: 0.8"/>
      </g>
     </g>
     <g id="text_18">
      <!-- 6 -->
      <g transform="translate(501.371461 354.871165) scale(0.1 -0.1)">
       <use xlink:href="#DejaVuSans-36"/>
      </g>
     </g>
    </g>
    <g id="xtick_11">
     <g id="line2d_31">
      <g>
       <use xlink:href="#mec3564b613" x="546.278648" y="340.272727" style="stroke: #000000; stroke-width: 0.8"/>
      </g>
     </g>
     <g id="text_19">
      <!-- 8 -->
      <g transform="translate(543.097398 354.871165) scale(0.1 -0.1)">
       <use xlink:href="#DejaVuSans-38"/>
      </g>
     </g>
    </g>
    <g id="xtick_12">
     <g id="line2d_32">
      <g>
       <use xlink:href="#mec3564b613" x="588.004586" y="340.272727" style="stroke: #000000; stroke-width: 0.8"/>
      </g>
     </g>
     <g id="text_20">
      <!-- 10 -->
      <g transform="translate(581.642086 354.871165) scale(0.1 -0.1)">
       <use xlink:href="#DejaVuSans-31"/>
       <use xlink:href="#DejaVuSans-30" transform="translate(63.623047 0)"/>
      </g>
     </g>
    </g>
    <g id="xtick_13">
     <g id="line2d_33">
      <g>
       <use xlink:href="#mec3564b613" x="629.730523" y="340.272727" style="stroke: #000000; stroke-width: 0.8"/>
      </g>
     </g>
     <g id="text_21">
      <!-- 12 -->
      <g transform="translate(623.368023 354.871165) scale(0.1 -0.1)">
       <use xlink:href="#DejaVuSans-31"/>
       <use xlink:href="#DejaVuSans-32" transform="translate(63.623047 0)"/>
      </g>
     </g>
    </g>
    <g id="xtick_14">
     <g id="line2d_34">
      <g>
       <use xlink:href="#mec3564b613" x="671.456461" y="340.272727" style="stroke: #000000; stroke-width: 0.8"/>
      </g>
     </g>
     <g id="text_22">
      <!-- 14 -->
      <g transform="translate(665.093961 354.871165) scale(0.1 -0.1)">
       <use xlink:href="#DejaVuSans-31"/>
       <use xlink:href="#DejaVuSans-34" transform="translate(63.623047 0)"/>
      </g>
     </g>
    </g>
    <g id="text_23">
     <!-- Packed width (bit) -->
     <g transform="translate(501.326305 368.54929) scale(0.1 -0.1)">
      <use xlink:href="#DejaVuSans-50"/>
      <use xlink:href="#DejaVuSans-61" transform="translate(55.802734 0)"/>
      <use xlink:href="#DejaVuSans-63" transform="translate(117.082031 0)"/>
      <use xlink:href="#DejaVuSans-6b" transform="translate(172.0625 0)"/>
      <use xlink:href="#DejaVuSans-65" transform="translate(226.347656 0)"/>
      <use xlink:href="#DejaVuSans-64" transform="translate(287.871094 0)"/>
      <use xlink:href="#DejaVuSans-20" transform="translate(351.347656 0)"/>
      <use xlink:href="#DejaVuSans-77" transform="translate(383.134766 0)"/>
      <use xlink:href="#DejaVuSans-69" transform="translate(464.921875 0)"/>
      <use xlink:href="#DejaVuSans-64" transform="translate(492.705078 0)"/>
      <use xlink:href="#DejaVuSans-74" transform="translate(556.181641 0)"/>
      <use xlink:href="#DejaVuSans-68" transform="translate(595.390625 0)"/>
      <use xlink:href="#DejaVuSans-20" transform="translate(658.769531 0)"/>
      <use xlink:href="#DejaVuSans-28" transform="translate(690.556641 0)"/>
      <use xlink:href="#DejaVuSans-62" transform="translate(729.570312 0)"/>
      <use xlink:href="#DejaVuSans-69" transform="translate(793.046875 0)"/>
      <use xlink:href="#DejaVuSans-74" transform="translate(820.830078 0)"/>
      <use xlink:href="#DejaVuSans-29" transform="translate(860.039062 0)"/>
     </g>
    </g>
   </g>
   <g id="matplotlib.axis_4">
    <g id="ytick_6">
     <g id="line2d_35">
      <g>
       <use xlink:href="#mc18cdead72" x="385.633789" y="329.563259" style="stroke: #000000; stroke-width: 0.8"/>
      </g>
     </g>
    </g>
    <g id="ytick_7">
     <g id="line2d_36">
      <g>
       <use xlink:href="#mc18cdead72" x="385.633789" y="270.184916" style="stroke: #000000; stroke-width: 0.8"/>
      </g>
     </g>
    </g>
    <g id="ytick_8">
     <g id="line2d_37">
      <g>
       <use xlink:href="#mc18cdead72" x="385.633789" y="210.806573" style="stroke: #000000; stroke-width: 0.8"/>
      </g>
     </g>
    </g>
    <g id="ytick_9">
     <g id="line2d_38">
      <g>
       <use xlink:href="#mc18cdead72" x="385.633789" y="151.42823" style="stroke: #000000; stroke-width: 0.8"/>
      </g>
     </g>
    </g>
    <g id="ytick_10">
     <g id="line2d_39">
      <g>
       <use xlink:href="#mc18cdead72" x="385.633789" y="92.049887" style="stroke: #000000; stroke-width: 0.8"/>
      </g>
     </g>
    </g>
   </g>
   <g id="line2d_40">
    <path d="M 400.237868 242.200918 
L 421.100836 257.288778 
L 441.963805 261.356573 
L 462.826774 257.324198 
L 483.689742 261.43003 
L 504.552711 261.455923 
L 525.41568 261.326629 
L 546.278648 197.610279 
L 567.141617 256.584732 
L 588.004586 261.378348 
L 608.867555 261.380252 
L 629.730523 261.164917 
L 650.593492 261.345193 
L 671.456461 261.377776 
L 692.319429 261.464648 
" clip-path="url(#p324b726519)" style="fill: none; stroke-dasharray: 3,3; stroke-dashoffset: 0; stroke: #ff7f0e; stroke-width: 1.5"/>
   </g>
   <g id="line2d_41">
    <path d="M 400.237868 160.499448 
L 421.100836 160.765191 
L 441.963805 139.715639 
L 462.826774 141.066282 
L 483.689742 144.127487 
L 504.552711 142.824403 
L 525.41568 143.001548 
L 546.278648 83.461674 
L 567.141617 165.0571 
L 588.004586 164.93126 
L 608.867555 214.024589 
L 629.730523 164.491602 
L 650.593492 214.030338 
L 671.456461 214.318653 
L 692.319429 214.005843 
" clip-path="url(#p324b726519)" style="fill: none; stroke-dasharray: 3,3; stroke-dashoffset: 0; stroke: #2ca02c; stroke-width: 1.5"/>
   </g>
   <g id="line2d_42">
    <path d="M 400.237868 186.995032 
L 421.100836 171.847719 
L 441.963805 190.515542 
L 462.826774 135.10619 
L 483.689742 185.972885 
L 504.552711 186.134214 
L 525.41568 185.74335 
L 546.278648 90.36327 
L 567.141617 191.576308 
L 588.004586 191.150134 
L 608.867555 221.705003 
L 629.730523 155.744174 
L 650.593492 221.984843 
L 671.456461 222.191173 
L 692.319429 210.558444 
" clip-path="url(#p324b726519)" style="fill: none; stroke-dasharray: 1.5,0; stroke-dashoffset: 0; stroke: #2ca02c; stroke-width: 1.5"/>
   </g>
   <g id="line2d_43">
    <path d="M 400.237868 308.672336 
L 421.100836 308.46935 
L 441.963805 306.534224 
L 462.826774 304.314058 
L 483.689742 308.239179 
L 504.552711 307.314446 
L 525.41568 314.197724 
L 546.278648 305.033612 
L 567.141617 310.873942 
L 588.004586 310.666688 
L 608.867555 311.136712 
L 629.730523 310.224756 
L 650.593492 312.161688 
L 671.456461 311.10603 
L 692.319429 312.357745 
" clip-path="url(#p324b726519)" style="fill: none; stroke-dasharray: 3,3; stroke-dashoffset: 0; stroke: #9467bd; stroke-width: 1.5"/>
   </g>
   <g id="line2d_44">
    <path d="M 400.237868 264.461944 
L 421.100836 286.957543 
L 441.963805 289.763465 
L 462.826774 287.319734 
L 483.689742 289.801608 
L 504.552711 290.790803 
L 525.41568 297.394337 
L 546.278648 288.16599 
L 567.141617 298.799123 
L 588.004586 298.776103 
L 608.867555 302.908596 
L 629.730523 300.86682 
L 650.593492 305.020078 
L 671.456461 305.007114 
L 692.319429 308.404718 
" clip-path="url(#p324b726519)" style="fill: none; stroke-dasharray: 1.5,0; stroke-dashoffset: 0; stroke: #9467bd; stroke-width: 1.5"/>
   </g>
   <g id="line2d_45">
    <path d="M 400.237868 306.523011 
L 421.100836 327.238481 
L 441.963805 308.02829 
L 462.826774 321.032732 
L 483.689742 309.816253 
L 504.552711 327.534067 
L 525.41568 309.931908 
L 546.278648 308.273654 
L 567.141617 312.048932 
L 588.004586 327.555497 
L 608.867555 313.43685 
L 629.730523 321.829701 
L 650.593492 314.375612 
L 671.456461 327.719483 
L 692.319429 315.186748 
" clip-path="url(#p324b726519)" style="fill: none; stroke-dasharray: 7.5,7.5; stroke-dashoffset: 0; stroke: #8c564b; stroke-width: 1.5"/>
   </g>
   <g id="patch_6">
    <path d="M 385.633789 340.272727 
L 385.633789 64.8 
" style="fill: none; stroke: #000000; stroke-width: 0.8; stroke-linejoin: miter; stroke-linecap: square"/>
   </g>
   <g id="patch_7">
    <path d="M 385.633789 340.272727 
L 706.923507 340.272727 
" style="fill: none; stroke: #000000; stroke-width: 0.8; stroke-linejoin: miter; stroke-linecap: square"/>
   </g>
   <g id="text_24">
    <!-- Unpacking to Uint16 -->
    <g transform="translate(495.09818 72.573636) scale(0.1 -0.1)">
     <use xlink:href="#DejaVuSans-55"/>
     <use xlink:href="#DejaVuSans-6e" transform="translate(73.193359 0)"/>
     <use xlink:href="#DejaVuSans-70" transform="translate(136.572266 0)"/>
     <use xlink:href="#DejaVuSans-61" transform="translate(200.048828 0)"/>
     <use xlink:href="#DejaVuSans-63" transform="translate(261.328125 0)"/>
     <use xlink:href="#DejaVuSans-6b" transform="translate(316.308594 0)"/>
     <use xlink:href="#DejaVuSans-69" transform="translate(374.21875 0)"/>
     <use xlink:href="#DejaVuSans-6e" transform="translate(402.001953 0)"/>
     <use xlink:href="#DejaVuSans-67" transform="translate(465.380859 0)"/>
     <use xlink:href="#DejaVuSans-20" transform="translate(528.857422 0)"/>
     <use xlink:href="#DejaVuSans-74" transform="translate(560.644531 0)"/>
     <use xlink:href="#DejaVuSans-6f" transform="translate(599.853516 0)"/>
     <use xlink:href="#DejaVuSans-20" transform="translate(661.035156 0)"/>
     <use xlink:href="#DejaVuSans-55" transform="translate(692.822266 0)"/>
     <use xlink:href="#DejaVuSans-69" transform="translate(766.015625 0)"/>
     <use xlink:href="#DejaVuSans-6e" transform="translate(793.798828 0)"/>
     <use xlink:href="#DejaVuSans-74" transform="translate(857.177734 0)"/>
     <use xlink:href="#DejaVuSans-31" transform="translate(896.386719 0)"/>
     <use xlink:href="#DejaVuSans-36" transform="translate(960.009766 0)"/>
    </g>
   </g>
  </g>
  <g id="axes_3">
   <g id="patch_8">
    <path d="M 50.14375 670.84 
L 371.433468 670.84 
L 371.433468 395.367273 
L 50.14375 395.367273 
z
" style="fill: #ffffff"/>
   </g>
   <g id="FillBetweenPolyCollection_13"/>
   <g id="FillBetweenPolyCollection_14"/>
   <g id="FillBetweenPolyCollection_15"/>
   <g id="FillBetweenPolyCollection_16"/>
   <g id="FillBetweenPolyCollection_17"/>
   <g id="FillBetweenPolyCollection_18"/>
   <g id="matplotlib.axis_5">
    <g id="xtick_15">
     <g id="line2d_46">
      <g>
       <use xlink:href="#mec3564b613" x="55.011776" y="670.84" style="stroke: #000000; stroke-width: 0.8"/>
      </g>
     </g>
     <g id="text_25">
      <!-- 0 -->
      <g transform="translate(51.830526 685.438437) scale(0.1 -0.1)">
       <use xlink:href="#DejaVuSans-30"/>
      </g>
     </g>
    </g>
    <g id="xtick_16">
     <g id="line2d_47">
      <g>
       <use xlink:href="#mec3564b613" x="103.692036" y="670.84" style="stroke: #000000; stroke-width: 0.8"/>
      </g>
     </g>
     <g id="text_26">
      <!-- 5 -->
      <g transform="translate(100.510786 685.438437) scale(0.1 -0.1)">
       <use xlink:href="#DejaVuSans-35"/>
      </g>
     </g>
    </g>
    <g id="xtick_17">
     <g id="line2d_48">
      <g>
       <use xlink:href="#mec3564b613" x="152.372297" y="670.84" style="stroke: #000000; stroke-width: 0.8"/>
      </g>
     </g>
     <g id="text_27">
      <!-- 10 -->
      <g transform="translate(146.009797 685.438437) scale(0.1 -0.1)">
       <use xlink:href="#DejaVuSans-31"/>
       <use xlink:href="#DejaVuSans-30" transform="translate(63.623047 0)"/>
      </g>
     </g>
    </g>
    <g id="xtick_18">
     <g id="line2d_49">
      <g>
       <use xlink:href="#mec3564b613" x="201.052557" y="670.84" style="stroke: #000000; stroke-width: 0.8"/>
      </g>
     </g>
     <g id="text_28">
      <!-- 15 -->
      <g transform="translate(194.690057 685.438437) scale(0.1 -0.1)">
       <use xlink:href="#DejaVuSans-31"/>
       <use xlink:href="#DejaVuSans-35" transform="translate(63.623047 0)"/>
      </g>
     </g>
    </g>
    <g id="xtick_19">
     <g id="line2d_50">
      <g>
       <use xlink:href="#mec3564b613" x="249.732817" y="670.84" style="stroke: #000000; stroke-width: 0.8"/>
      </g>
     </g>
     <g id="text_29">
      <!-- 20 -->
      <g transform="translate(243.370317 685.438437) scale(0.1 -0.1)">
       <use xlink:href="#DejaVuSans-32"/>
       <use xlink:href="#DejaVuSans-30" transform="translate(63.623047 0)"/>
      </g>
     </g>
    </g>
    <g id="xtick_20">
     <g id="line2d_51">
      <g>
       <use xlink:href="#mec3564b613" x="298.413078" y="670.84" style="stroke: #000000; stroke-width: 0.8"/>
      </g>
     </g>
     <g id="text_30">
      <!-- 25 -->
      <g transform="translate(292.050578 685.438437) scale(0.1 -0.1)">
       <use xlink:href="#DejaVuSans-32"/>
       <use xlink:href="#DejaVuSans-35" transform="translate(63.623047 0)"/>
      </g>
     </g>
    </g>
    <g id="xtick_21">
     <g id="line2d_52">
      <g>
       <use xlink:href="#mec3564b613" x="347.093338" y="670.84" style="stroke: #000000; stroke-width: 0.8"/>
      </g>
     </g>
     <g id="text_31">
      <!-- 30 -->
      <g transform="translate(340.730838 685.438437) scale(0.1 -0.1)">
       <use xlink:href="#DejaVuSans-33"/>
       <use xlink:href="#DejaVuSans-30" transform="translate(63.623047 0)"/>
      </g>
     </g>
    </g>
    <g id="text_32">
     <!-- Packed width (bit) -->
     <g transform="translate(165.836265 699.116562) scale(0.1 -0.1)">
      <use xlink:href="#DejaVuSans-50"/>
      <use xlink:href="#DejaVuSans-61" transform="translate(55.802734 0)"/>
      <use xlink:href="#DejaVuSans-63" transform="translate(117.082031 0)"/>
      <use xlink:href="#DejaVuSans-6b" transform="translate(172.0625 0)"/>
      <use xlink:href="#DejaVuSans-65" transform="translate(226.347656 0)"/>
      <use xlink:href="#DejaVuSans-64" transform="translate(287.871094 0)"/>
      <use xlink:href="#DejaVuSans-20" transform="translate(351.347656 0)"/>
      <use xlink:href="#DejaVuSans-77" transform="translate(383.134766 0)"/>
      <use xlink:href="#DejaVuSans-69" transform="translate(464.921875 0)"/>
      <use xlink:href="#DejaVuSans-64" transform="translate(492.705078 0)"/>
      <use xlink:href="#DejaVuSans-74" transform="translate(556.181641 0)"/>
      <use xlink:href="#DejaVuSans-68" transform="translate(595.390625 0)"/>
      <use xlink:href="#DejaVuSans-20" transform="translate(658.769531 0)"/>
      <use xlink:href="#DejaVuSans-28" transform="translate(690.556641 0)"/>
      <use xlink:href="#DejaVuSans-62" transform="translate(729.570312 0)"/>
      <use xlink:href="#DejaVuSans-69" transform="translate(793.046875 0)"/>
      <use xlink:href="#DejaVuSans-74" transform="translate(820.830078 0)"/>
      <use xlink:href="#DejaVuSans-29" transform="translate(860.039062 0)"/>
     </g>
    </g>
   </g>
   <g id="matplotlib.axis_6">
    <g id="ytick_11">
     <g id="line2d_53">
      <g>
       <use xlink:href="#mc18cdead72" x="50.14375" y="660.130532" style="stroke: #000000; stroke-width: 0.8"/>
      </g>
     </g>
     <g id="text_33">
      <!-- 0.0 -->
      <g transform="translate(27.240625 663.929751) scale(0.1 -0.1)">
       <use xlink:href="#DejaVuSans-30"/>
       <use xlink:href="#DejaVuSans-2e" transform="translate(63.623047 0)"/>
       <use xlink:href="#DejaVuSans-30" transform="translate(95.410156 0)"/>
      </g>
     </g>
    </g>
    <g id="ytick_12">
     <g id="line2d_54">
      <g>
       <use xlink:href="#mc18cdead72" x="50.14375" y="600.752189" style="stroke: #000000; stroke-width: 0.8"/>
      </g>
     </g>
     <g id="text_34">
      <!-- 5.0 -->
      <g transform="translate(27.240625 604.551408) scale(0.1 -0.1)">
       <use xlink:href="#DejaVuSans-35"/>
       <use xlink:href="#DejaVuSans-2e" transform="translate(63.623047 0)"/>
       <use xlink:href="#DejaVuSans-30" transform="translate(95.410156 0)"/>
      </g>
     </g>
    </g>
    <g id="ytick_13">
     <g id="line2d_55">
      <g>
       <use xlink:href="#mc18cdead72" x="50.14375" y="541.373846" style="stroke: #000000; stroke-width: 0.8"/>
      </g>
     </g>
     <g id="text_35">
      <!-- 10.0 -->
      <g transform="translate(20.878125 545.173065) scale(0.1 -0.1)">
       <use xlink:href="#DejaVuSans-31"/>
       <use xlink:href="#DejaVuSans-30" transform="translate(63.623047 0)"/>
       <use xlink:href="#DejaVuSans-2e" transform="translate(127.246094 0)"/>
       <use xlink:href="#DejaVuSans-30" transform="translate(159.033203 0)"/>
      </g>
     </g>
    </g>
    <g id="ytick_14">
     <g id="line2d_56">
      <g>
       <use xlink:href="#mc18cdead72" x="50.14375" y="481.995503" style="stroke: #000000; stroke-width: 0.8"/>
      </g>
     </g>
     <g id="text_36">
      <!-- 15.0 -->
      <g transform="translate(20.878125 485.794722) scale(0.1 -0.1)">
       <use xlink:href="#DejaVuSans-31"/>
       <use xlink:href="#DejaVuSans-35" transform="translate(63.623047 0)"/>
       <use xlink:href="#DejaVuSans-2e" transform="translate(127.246094 0)"/>
       <use xlink:href="#DejaVuSans-30" transform="translate(159.033203 0)"/>
      </g>
     </g>
    </g>
    <g id="ytick_15">
     <g id="line2d_57">
      <g>
       <use xlink:href="#mc18cdead72" x="50.14375" y="422.61716" style="stroke: #000000; stroke-width: 0.8"/>
      </g>
     </g>
     <g id="text_37">
      <!-- 20.0 -->
      <g transform="translate(20.878125 426.416379) scale(0.1 -0.1)">
       <use xlink:href="#DejaVuSans-32"/>
       <use xlink:href="#DejaVuSans-30" transform="translate(63.623047 0)"/>
       <use xlink:href="#DejaVuSans-2e" transform="translate(127.246094 0)"/>
       <use xlink:href="#DejaVuSans-30" transform="translate(159.033203 0)"/>
      </g>
     </g>
    </g>
    <g id="text_38">
     <!-- speed (×10⁹ int/s) -->
     <g transform="translate(14.798438 578.653636) rotate(-90) scale(0.1 -0.1)">
      <use xlink:href="#DejaVuSans-73"/>
      <use xlink:href="#DejaVuSans-70" transform="translate(52.099609 0)"/>
      <use xlink:href="#DejaVuSans-65" transform="translate(115.576172 0)"/>
      <use xlink:href="#DejaVuSans-65" transform="translate(177.099609 0)"/>
      <use xlink:href="#DejaVuSans-64" transform="translate(238.623047 0)"/>
      <use xlink:href="#DejaVuSans-20" transform="translate(302.099609 0)"/>
      <use xlink:href="#DejaVuSans-28" transform="translate(333.886719 0)"/>
      <use xlink:href="#DejaVuSans-d7" transform="translate(372.900391 0)"/>
      <use xlink:href="#DejaVuSans-31" transform="translate(456.689453 0)"/>
      <use xlink:href="#DejaVuSans-30" transform="translate(520.3125 0)"/>
      <use xlink:href="#DejaVuSans-2079" transform="translate(583.935547 0)"/>
      <use xlink:href="#DejaVuSans-20" transform="translate(624.023438 0)"/>
      <use xlink:href="#DejaVuSans-69" transform="translate(655.810547 0)"/>
      <use xlink:href="#DejaVuSans-6e" transform="translate(683.59375 0)"/>
      <use xlink:href="#DejaVuSans-74" transform="translate(746.972656 0)"/>
      <use xlink:href="#DejaVuSans-2f" transform="translate(786.181641 0)"/>
      <use xlink:href="#DejaVuSans-73" transform="translate(819.873047 0)"/>
      <use xlink:href="#DejaVuSans-29" transform="translate(871.972656 0)"/>
     </g>
    </g>
   </g>
   <g id="line2d_58">
    <path d="M 64.747828 571.431999 
L 74.48388 572.597452 
L 84.219932 577.288088 
L 93.955984 572.770066 
L 103.692036 577.383064 
L 113.428088 577.640497 
L 123.16414 577.438755 
L 132.900193 521.283148 
L 142.636245 571.245096 
L 152.372297 577.720669 
L 162.108349 577.38327 
L 171.844401 577.770996 
L 181.580453 577.518158 
L 191.316505 577.639708 
L 201.052557 577.636578 
L 210.788609 533.979489 
L 220.524661 577.441152 
L 230.260713 577.902357 
L 239.996765 577.553547 
L 249.732817 578.162998 
L 259.468869 577.760076 
L 269.204921 578.094642 
L 278.940973 577.502436 
L 288.677026 543.28606 
L 298.413078 571.277931 
L 308.14913 578.238646 
L 317.885182 601.03539 
L 327.621234 578.674128 
L 337.357286 601.707396 
L 347.093338 615.200089 
L 356.82939 617.074191 
" clip-path="url(#p0edc399eb2)" style="fill: none; stroke-dasharray: 3,3; stroke-dashoffset: 0; stroke: #ff7f0e; stroke-width: 1.5"/>
   </g>
   <g id="line2d_59">
    <path d="M 64.747828 570.024306 
L 74.48388 570.129125 
L 84.219932 568.014394 
L 93.955984 564.811655 
L 103.692036 568.176867 
L 113.428088 565.100091 
L 123.16414 567.452206 
L 132.900193 551.866982 
L 142.636245 566.583616 
L 152.372297 566.283639 
L 162.108349 570.619223 
L 171.844401 566.245893 
L 181.580453 570.934918 
L 191.316505 571.264426 
L 201.052557 570.688384 
L 210.788609 536.482042 
L 220.524661 570.939563 
L 230.260713 578.46141 
L 239.996765 571.078804 
L 249.732817 578.685116 
L 259.468869 571.239219 
L 269.204921 578.863872 
L 278.940973 571.663454 
L 288.677026 568.439825 
L 298.413078 571.412464 
L 308.14913 578.872326 
L 317.885182 613.408993 
L 327.621234 579.43046 
L 337.357286 613.378873 
L 347.093338 613.525008 
L 356.82939 613.467967 
" clip-path="url(#p0edc399eb2)" style="fill: none; stroke-dasharray: 3,3; stroke-dashoffset: 0; stroke: #2ca02c; stroke-width: 1.5"/>
   </g>
   <g id="line2d_60">
    <path d="M 64.747828 516.485415 
L 74.48388 502.713669 
L 84.219932 520.387404 
L 93.955984 484.900317 
L 103.692036 517.187319 
L 113.428088 517.707342 
L 123.16414 517.462833 
L 132.900193 488.7675 
L 142.636245 520.176202 
L 152.372297 519.656115 
L 162.108349 539.10917 
L 171.844401 520.321371 
L 181.580453 540.017326 
L 191.316505 540.231972 
L 201.052557 539.841519 
L 210.788609 507.581308 
L 220.524661 550.807347 
L 230.260713 551.312124 
L 239.996765 550.047354 
L 249.732817 551.125272 
L 259.468869 551.753493 
L 269.204921 551.422374 
L 278.940973 551.608809 
L 288.677026 526.072941 
L 298.413078 551.725725 
L 308.14913 551.625359 
L 317.885182 594.493873 
L 327.621234 551.000984 
L 337.357286 594.402125 
L 347.093338 586.86459 
L 356.82939 586.575323 
" clip-path="url(#p0edc399eb2)" style="fill: none; stroke-dasharray: 1.5,0; stroke-dashoffset: 0; stroke: #2ca02c; stroke-width: 1.5"/>
   </g>
   <g id="line2d_61">
    <path d="M 64.747828 628.553214 
L 74.48388 628.679167 
L 84.219932 634.764279 
L 93.955984 628.737651 
L 103.692036 637.156223 
L 113.428088 636.128247 
L 123.16414 638.229756 
L 132.900193 629.009513 
L 142.636245 640.215023 
L 152.372297 639.953067 
L 162.108349 640.49102 
L 171.844401 639.199276 
L 181.580453 641.439243 
L 191.316505 640.224278 
L 201.052557 641.664677 
L 210.788609 631.54638 
L 220.524661 641.429224 
L 230.260713 640.223441 
L 239.996765 642.019398 
L 249.732817 639.124751 
L 259.468869 642.41481 
L 269.204921 640.857563 
L 278.940973 642.207713 
L 288.677026 638.046688 
L 298.413078 643.152304 
L 308.14913 642.192457 
L 317.885182 643.865091 
L 327.621234 641.54847 
L 337.357286 644.499305 
L 347.093338 643.500313 
L 356.82939 644.81087 
" clip-path="url(#p0edc399eb2)" style="fill: none; stroke-dasharray: 3,3; stroke-dashoffset: 0; stroke: #9467bd; stroke-width: 1.5"/>
   </g>
   <g id="line2d_62">
    <path d="M 64.747828 571.763903 
L 74.48388 618.199365 
L 84.219932 620.499734 
L 93.955984 619.715587 
L 103.692036 611.371463 
L 113.428088 614.376191 
L 123.16414 622.295239 
L 132.900193 622.566506 
L 142.636245 629.577012 
L 152.372297 629.554809 
L 162.108349 632.555806 
L 171.844401 629.40086 
L 181.580453 634.856467 
L 191.316505 635.915263 
L 201.052557 636.693281 
L 210.788609 623.105043 
L 220.524661 638.703233 
L 230.260713 638.725267 
L 239.996765 640.613074 
L 249.732817 638.150958 
L 259.468869 641.782868 
L 269.204921 642.209621 
L 278.940973 643.015164 
L 288.677026 638.090422 
L 298.413078 644.098249 
L 308.14913 643.752894 
L 317.885182 645.053063 
L 327.621234 643.754082 
L 337.357286 645.622452 
L 347.093338 645.622044 
L 356.82939 646.401141 
" clip-path="url(#p0edc399eb2)" style="fill: none; stroke-dasharray: 1.5,0; stroke-dashoffset: 0; stroke: #9467bd; stroke-width: 1.5"/>
   </g>
   <g id="line2d_63">
    <path d="M 64.747828 613.988857 
L 74.48388 657.929803 
L 84.219932 619.914395 
L 93.955984 650.407699 
L 103.692036 623.691288 
L 113.428088 657.983295 
L 123.16414 626.167405 
L 132.900193 621.947827 
L 142.636245 628.240741 
L 152.372297 658.087207 
L 162.108349 633.266284 
L 171.844401 651.112357 
L 181.580453 635.825946 
L 191.316505 658.048515 
L 201.052557 638.417774 
L 210.788609 631.782381 
L 220.524661 639.965047 
L 230.260713 658.179108 
L 239.996765 641.439503 
L 249.732817 651.892056 
L 259.468869 642.714372 
L 269.204921 658.209021 
L 278.940973 643.823658 
L 288.677026 640.482707 
L 298.413078 644.804176 
L 308.14913 658.272013 
L 317.885182 645.805571 
L 327.621234 652.560407 
L 337.357286 646.926803 
L 347.093338 658.318512 
L 356.82939 647.883672 
" clip-path="url(#p0edc399eb2)" style="fill: none; stroke-dasharray: 7.5,7.5; stroke-dashoffset: 0; stroke: #8c564b; stroke-width: 1.5"/>
   </g>
   <g id="patch_9">
    <path d="M 50.14375 670.84 
L 50.14375 395.367273 
" style="fill: none; stroke: #000000; stroke-width: 0.8; stroke-linejoin: miter; stroke-linecap: square"/>
   </g>
   <g id="patch_10">
    <path d="M 50.14375 670.84 
L 371.433468 670.84 
" style="fill: none; stroke: #000000; stroke-width: 0.8; stroke-linejoin: miter; stroke-linecap: square"/>
   </g>
   <g id="text_39">
    <!-- Unpacking to Uint32 -->
    <g transform="translate(159.60814 403.140909) scale(0.1 -0.1)">
     <use xlink:href="#DejaVuSans-55"/>
     <use xlink:href="#DejaVuSans-6e" transform="translate(73.193359 0)"/>
     <use xlink:href="#DejaVuSans-70" transform="translate(136.572266 0)"/>
     <use xlink:href="#DejaVuSans-61" transform="translate(200.048828 0)"/>
     <use xlink:href="#DejaVuSans-63" transform="translate(261.328125 0)"/>
     <use xlink:href="#DejaVuSans-6b" transform="translate(316.308594 0)"/>
     <use xlink:href="#DejaVuSans-69" transform="translate(374.21875 0)"/>
     <use xlink:href="#DejaVuSans-6e" transform="translate(402.001953 0)"/>
     <use xlink:href="#DejaVuSans-67" transform="translate(465.380859 0)"/>
     <use xlink:href="#DejaVuSans-20" transform="translate(528.857422 0)"/>
     <use xlink:href="#DejaVuSans-74" transform="translate(560.644531 0)"/>
     <use xlink:href="#DejaVuSans-6f" transform="translate(599.853516 0)"/>
     <use xlink:href="#DejaVuSans-20" transform="translate(661.035156 0)"/>
     <use xlink:href="#DejaVuSans-55" transform="translate(692.822266 0)"/>
     <use xlink:href="#DejaVuSans-69" transform="translate(766.015625 0)"/>
     <use xlink:href="#DejaVuSans-6e" transform="translate(793.798828 0)"/>
     <use xlink:href="#DejaVuSans-74" transform="translate(857.177734 0)"/>
     <use xlink:href="#DejaVuSans-33" transform="translate(896.386719 0)"/>
     <use xlink:href="#DejaVuSans-32" transform="translate(960.009766 0)"/>
    </g>
   </g>
  </g>
  <g id="axes_4">
   <g id="patch_11">
    <path d="M 385.633789 670.84 
L 706.923507 670.84 
L 706.923507 395.367273 
L 385.633789 395.367273 
z
" style="fill: #ffffff"/>
   </g>
   <g id="FillBetweenPolyCollection_19"/>
   <g id="FillBetweenPolyCollection_20"/>
   <g id="FillBetweenPolyCollection_21"/>
   <g id="FillBetweenPolyCollection_22"/>
   <g id="FillBetweenPolyCollection_23"/>
   <g id="FillBetweenPolyCollection_24"/>
   <g id="matplotlib.axis_7">
    <g id="xtick_22">
     <g id="line2d_64">
      <g>
       <use xlink:href="#mec3564b613" x="395.526875" y="670.84" style="stroke: #000000; stroke-width: 0.8"/>
      </g>
     </g>
     <g id="text_40">
      <!-- 0 -->
      <g transform="translate(392.345625 685.438437) scale(0.1 -0.1)">
       <use xlink:href="#DejaVuSans-30"/>
      </g>
     </g>
    </g>
    <g id="xtick_23">
     <g id="line2d_65">
      <g>
       <use xlink:href="#mec3564b613" x="442.636804" y="670.84" style="stroke: #000000; stroke-width: 0.8"/>
      </g>
     </g>
     <g id="text_41">
      <!-- 10 -->
      <g transform="translate(436.274304 685.438437) scale(0.1 -0.1)">
       <use xlink:href="#DejaVuSans-31"/>
       <use xlink:href="#DejaVuSans-30" transform="translate(63.623047 0)"/>
      </g>
     </g>
    </g>
    <g id="xtick_24">
     <g id="line2d_66">
      <g>
       <use xlink:href="#mec3564b613" x="489.746733" y="670.84" style="stroke: #000000; stroke-width: 0.8"/>
      </g>
     </g>
     <g id="text_42">
      <!-- 20 -->
      <g transform="translate(483.384233 685.438437) scale(0.1 -0.1)">
       <use xlink:href="#DejaVuSans-32"/>
       <use xlink:href="#DejaVuSans-30" transform="translate(63.623047 0)"/>
      </g>
     </g>
    </g>
    <g id="xtick_25">
     <g id="line2d_67">
      <g>
       <use xlink:href="#mec3564b613" x="536.856663" y="670.84" style="stroke: #000000; stroke-width: 0.8"/>
      </g>
     </g>
     <g id="text_43">
      <!-- 30 -->
      <g transform="translate(530.494163 685.438437) scale(0.1 -0.1)">
       <use xlink:href="#DejaVuSans-33"/>
       <use xlink:href="#DejaVuSans-30" transform="translate(63.623047 0)"/>
      </g>
     </g>
    </g>
    <g id="xtick_26">
     <g id="line2d_68">
      <g>
       <use xlink:href="#mec3564b613" x="583.966592" y="670.84" style="stroke: #000000; stroke-width: 0.8"/>
      </g>
     </g>
     <g id="text_44">
      <!-- 40 -->
      <g transform="translate(577.604092 685.438437) scale(0.1 -0.1)">
       <use xlink:href="#DejaVuSans-34"/>
       <use xlink:href="#DejaVuSans-30" transform="translate(63.623047 0)"/>
      </g>
     </g>
    </g>
    <g id="xtick_27">
     <g id="line2d_69">
      <g>
       <use xlink:href="#mec3564b613" x="631.076521" y="670.84" style="stroke: #000000; stroke-width: 0.8"/>
      </g>
     </g>
     <g id="text_45">
      <!-- 50 -->
      <g transform="translate(624.714021 685.438437) scale(0.1 -0.1)">
       <use xlink:href="#DejaVuSans-35"/>
       <use xlink:href="#DejaVuSans-30" transform="translate(63.623047 0)"/>
      </g>
     </g>
    </g>
    <g id="xtick_28">
     <g id="line2d_70">
      <g>
       <use xlink:href="#mec3564b613" x="678.186451" y="670.84" style="stroke: #000000; stroke-width: 0.8"/>
      </g>
     </g>
     <g id="text_46">
      <!-- 60 -->
      <g transform="translate(671.823951 685.438437) scale(0.1 -0.1)">
       <use xlink:href="#DejaVuSans-36"/>
       <use xlink:href="#DejaVuSans-30" transform="translate(63.623047 0)"/>
      </g>
     </g>
    </g>
    <g id="text_47">
     <!-- Packed width (bit) -->
     <g transform="translate(501.326305 699.116562) scale(0.1 -0.1)">
      <use xlink:href="#DejaVuSans-50"/>
      <use xlink:href="#DejaVuSans-61" transform="translate(55.802734 0)"/>
      <use xlink:href="#DejaVuSans-63" transform="translate(117.082031 0)"/>
      <use xlink:href="#DejaVuSans-6b" transform="translate(172.0625 0)"/>
      <use xlink:href="#DejaVuSans-65" transform="translate(226.347656 0)"/>
      <use xlink:href="#DejaVuSans-64" transform="translate(287.871094 0)"/>
      <use xlink:href="#DejaVuSans-20" transform="translate(351.347656 0)"/>
      <use xlink:href="#DejaVuSans-77" transform="translate(383.134766 0)"/>
      <use xlink:href="#DejaVuSans-69" transform="translate(464.921875 0)"/>
      <use xlink:href="#DejaVuSans-64" transform="translate(492.705078 0)"/>
      <use xlink:href="#DejaVuSans-74" transform="translate(556.181641 0)"/>
      <use xlink:href="#DejaVuSans-68" transform="translate(595.390625 0)"/>
      <use xlink:href="#DejaVuSans-20" transform="translate(658.769531 0)"/>
      <use xlink:href="#DejaVuSans-28" transform="translate(690.556641 0)"/>
      <use xlink:href="#DejaVuSans-62" transform="translate(729.570312 0)"/>
      <use xlink:href="#DejaVuSans-69" transform="translate(793.046875 0)"/>
      <use xlink:href="#DejaVuSans-74" transform="translate(820.830078 0)"/>
      <use xlink:href="#DejaVuSans-29" transform="translate(860.039062 0)"/>
     </g>
    </g>
   </g>
   <g id="matplotlib.axis_8">
    <g id="ytick_16">
     <g id="line2d_71">
      <g>
       <use xlink:href="#mc18cdead72" x="385.633789" y="660.130532" style="stroke: #000000; stroke-width: 0.8"/>
      </g>
     </g>
    </g>
    <g id="ytick_17">
     <g id="line2d_72">
      <g>
       <use xlink:href="#mc18cdead72" x="385.633789" y="600.752189" style="stroke: #000000; stroke-width: 0.8"/>
      </g>
     </g>
    </g>
    <g id="ytick_18">
     <g id="line2d_73">
      <g>
       <use xlink:href="#mc18cdead72" x="385.633789" y="541.373846" style="stroke: #000000; stroke-width: 0.8"/>
      </g>
     </g>
    </g>
    <g id="ytick_19">
     <g id="line2d_74">
      <g>
       <use xlink:href="#mc18cdead72" x="385.633789" y="481.995503" style="stroke: #000000; stroke-width: 0.8"/>
      </g>
     </g>
    </g>
    <g id="ytick_20">
     <g id="line2d_75">
      <g>
       <use xlink:href="#mc18cdead72" x="385.633789" y="422.61716" style="stroke: #000000; stroke-width: 0.8"/>
      </g>
     </g>
    </g>
   </g>
   <g id="line2d_76">
    <path d="M 400.237868 616.639735 
L 404.94886 618.99016 
L 409.659853 619.942526 
L 414.370846 618.960439 
L 419.081839 619.929007 
L 423.792832 620.030719 
L 428.503825 619.987512 
L 433.214818 606.797893 
L 437.925811 618.733986 
L 442.636804 620.108586 
L 447.347797 620.040132 
L 452.05879 620.225376 
L 456.769783 620.053978 
L 461.480776 620.137427 
L 466.191769 620.099395 
L 470.902762 609.384616 
L 475.613754 620.167102 
L 480.324747 620.256257 
L 485.03574 620.128085 
L 489.746733 620.197382 
L 494.457726 620.105965 
L 499.168719 620.212131 
L 503.879712 620.123783 
L 508.590705 608.937684 
L 513.301698 618.783657 
L 518.012691 620.356313 
L 522.723684 626.346091 
L 527.434677 620.345389 
L 532.14567 627.05257 
L 536.856663 631.448287 
L 541.567656 632.300121 
L 546.278648 605.726144 
L 550.989641 658.093604 
L 555.700634 658.106857 
L 560.411627 658.118938 
L 565.12262 658.107045 
L 569.833613 658.115729 
L 574.544606 658.118225 
L 579.255599 658.115758 
L 583.966592 658.011362 
L 588.677585 658.012905 
L 593.388578 658.118637 
L 598.099571 658.124058 
L 602.810564 658.118677 
L 607.521557 658.127721 
L 612.23255 658.127906 
L 616.943542 658.130386 
L 621.654535 658.026442 
L 626.365528 658.097026 
L 631.076521 658.142813 
L 635.787514 657.450735 
L 640.498507 658.137221 
L 645.2095 656.425026 
L 649.920493 656.615636 
L 654.631486 654.518973 
L 659.342479 657.964432 
L 664.053472 641.351662 
L 668.764465 653.542556 
L 673.475458 656.186807 
L 678.186451 653.542022 
L 682.897444 657.213202 
L 687.608436 657.357244 
L 692.319429 658.134904 
" clip-path="url(#p7d6ca483e4)" style="fill: none; stroke-dasharray: 3,3; stroke-dashoffset: 0; stroke: #ff7f0e; stroke-width: 1.5"/>
   </g>
   <g id="line2d_77">
    <path d="M 400.237868 608.434473 
L 404.94886 608.717621 
L 409.659853 608.697561 
L 414.370846 605.99449 
L 419.081839 611.007302 
L 423.792832 606.647589 
L 428.503825 608.264821 
L 433.214818 597.361192 
L 437.925811 607.95081 
L 442.636804 607.166367 
L 447.347797 610.692585 
L 452.05879 608.538608 
L 456.769783 610.695619 
L 461.480776 610.23302 
L 466.191769 610.587622 
L 470.902762 598.467141 
L 475.613754 610.356488 
L 480.324747 613.919304 
L 485.03574 610.577395 
L 489.746733 613.985592 
L 494.457726 610.46853 
L 499.168719 614.048725 
L 503.879712 610.242285 
L 508.590705 597.610121 
L 513.301698 610.339078 
L 518.012691 614.002031 
L 522.723684 631.016607 
L 527.434677 614.104106 
L 532.14567 631.038711 
L 536.856663 629.358562 
L 541.567656 631.091459 
L 546.278648 597.961604 
L 550.989641 631.106385 
L 555.700634 629.498406 
L 560.411627 631.295605 
L 565.12262 627.166302 
L 569.833613 631.297027 
L 574.544606 629.535538 
L 579.255599 631.292399 
L 583.966592 614.831574 
L 588.677585 631.078035 
L 593.388578 629.530333 
L 598.099571 631.30309 
L 602.810564 627.184209 
L 607.521557 631.298363 
L 612.23255 629.5304 
L 616.943542 631.30043 
L 621.654535 613.796129 
L 626.365528 631.043561 
L 631.076521 629.524243 
L 635.787514 631.286743 
L 640.498507 627.192144 
L 645.2095 631.29416 
L 649.920493 629.53274 
L 654.631486 631.298087 
L 659.342479 615.820375 
L 664.053472 631.092551 
L 668.764465 629.606982 
L 673.475458 644.477187 
L 678.186451 627.183034 
L 682.897444 644.747653 
L 687.608436 643.98337 
L 692.319429 658.136145 
" clip-path="url(#p7d6ca483e4)" style="fill: none; stroke-dasharray: 3,3; stroke-dashoffset: 0; stroke: #2ca02c; stroke-width: 1.5"/>
   </g>
   <g id="line2d_78">
    <path d="M 400.237868 579.585866 
L 404.94886 576.122967 
L 409.659853 582.768629 
L 414.370846 578.351316 
L 419.081839 582.142163 
L 423.792832 581.958192 
L 428.503825 581.781783 
L 433.214818 574.89224 
L 437.925811 584.821416 
L 442.636804 583.856143 
L 447.347797 588.622644 
L 452.05879 584.202802 
L 456.769783 589.045955 
L 461.480776 589.168018 
L 466.191769 588.819545 
L 470.902762 573.971637 
L 475.613754 589.855363 
L 480.324747 589.95602 
L 485.03574 589.867915 
L 489.746733 590.016075 
L 494.457726 591.302541 
L 499.168719 590.318183 
L 503.879712 590.509921 
L 508.590705 583.896029 
L 513.301698 590.596198 
L 518.012691 590.292359 
L 522.723684 599.973183 
L 527.434677 590.75378 
L 532.14567 600.10904 
L 536.856663 600.358356 
L 541.567656 600.229854 
L 546.278648 584.188892 
L 550.989641 603.786885 
L 555.700634 605.411523 
L 560.411627 603.797463 
L 565.12262 604.653354 
L 569.833613 603.72516 
L 574.544606 604.890029 
L 579.255599 603.902041 
L 583.966592 594.008249 
L 588.677585 603.913774 
L 593.388578 605.525354 
L 598.099571 603.779449 
L 602.810564 605.844898 
L 607.521557 603.876953 
L 612.23255 605.27284 
L 616.943542 603.985626 
L 621.654535 594.050611 
L 626.365528 604.364352 
L 631.076521 606.054441 
L 635.787514 604.303052 
L 640.498507 605.774607 
L 645.2095 604.176495 
L 649.920493 605.336034 
L 654.631486 603.966391 
L 659.342479 596.029482 
L 664.053472 604.105853 
L 668.764465 605.107713 
L 673.475458 625.242436 
L 678.186451 605.514642 
L 682.897444 625.238052 
L 687.608436 623.478105 
L 692.319429 622.637414 
" clip-path="url(#p7d6ca483e4)" style="fill: none; stroke-dasharray: 1.5,0; stroke-dashoffset: 0; stroke: #2ca02c; stroke-width: 1.5"/>
   </g>
   <g id="line2d_79">
    <path d="M 400.237868 626.256363 
L 404.94886 625.113784 
L 409.659853 619.198403 
L 414.370846 623.90865 
L 419.081839 620.523202 
L 423.792832 620.714765 
L 428.503825 622.407292 
L 433.214818 622.584623 
L 437.925811 624.165272 
L 442.636804 622.339017 
L 447.347797 625.459689 
L 452.05879 620.955219 
L 456.769783 627.219656 
L 461.480776 627.085941 
L 466.191769 628.580222 
L 470.902762 616.310152 
L 475.613754 629.404747 
L 480.324747 627.485607 
L 485.03574 630.290779 
L 489.746733 624.047605 
L 494.457726 631.195788 
L 499.168719 630.618472 
L 503.879712 632.7928 
L 508.590705 623.679439 
L 513.301698 633.464459 
L 518.012691 632.377517 
L 522.723684 634.496208 
L 527.434677 630.989164 
L 532.14567 635.219541 
L 536.856663 634.189616 
L 541.567656 636.021354 
L 546.278648 602.44653 
L 550.989641 636.417235 
L 555.700634 635.028865 
L 560.411627 637.097862 
L 565.12262 632.110454 
L 569.833613 637.760963 
L 574.544606 636.58901 
L 579.255599 638.385812 
L 583.966592 628.610116 
L 588.677585 638.981476 
L 593.388578 637.958964 
L 598.099571 639.525453 
L 602.810564 636.038455 
L 607.521557 640.418072 
L 612.23255 639.912256 
L 616.943542 641.264342 
L 621.654535 630.784362 
L 626.365528 641.8338 
L 631.076521 641.187418 
L 635.787514 642.582573 
L 640.498507 639.810328 
L 645.2095 643.279775 
L 649.920493 642.714216 
L 654.631486 643.912508 
L 659.342479 637.691348 
L 664.053472 644.427061 
L 668.764465 643.846145 
L 673.475458 644.94649 
L 678.186451 642.335459 
L 682.897444 645.370452 
L 687.608436 644.803089 
L 692.319429 645.828216 
" clip-path="url(#p7d6ca483e4)" style="fill: none; stroke-dasharray: 3,3; stroke-dashoffset: 0; stroke: #9467bd; stroke-width: 1.5"/>
   </g>
   <g id="line2d_80">
    <path d="M 400.237868 594.204458 
L 404.94886 594.31809 
L 409.659853 596.762378 
L 414.370846 593.772978 
L 419.081839 600.062322 
L 423.792832 601.968125 
L 428.503825 604.936768 
L 433.214818 594.222913 
L 437.925811 608.342723 
L 442.636804 609.112898 
L 447.347797 614.584302 
L 452.05879 613.321291 
L 456.769783 618.16941 
L 461.480776 620.263978 
L 466.191769 623.071334 
L 470.902762 593.303748 
L 475.613754 625.396028 
L 480.324747 624.933725 
L 485.03574 627.619246 
L 489.746733 624.129018 
L 494.457726 629.141636 
L 499.168719 629.217424 
L 503.879712 630.492502 
L 508.590705 628.361423 
L 513.301698 632.099676 
L 518.012691 631.777534 
L 522.723684 632.658593 
L 527.434677 631.242599 
L 532.14567 633.773665 
L 536.856663 634.065028 
L 541.567656 634.592278 
L 546.278648 605.68295 
L 550.989641 635.636219 
L 555.700634 635.713551 
L 560.411627 637.015158 
L 565.12262 635.155877 
L 569.833613 638.610704 
L 574.544606 638.469721 
L 579.255599 639.766115 
L 583.966592 634.927329 
L 588.677585 640.652903 
L 593.388578 640.290476 
L 598.099571 641.491223 
L 602.810564 640.156226 
L 607.521557 642.037192 
L 612.23255 641.391662 
L 616.943542 642.455317 
L 621.654535 639.970138 
L 626.365528 642.860455 
L 631.076521 642.369074 
L 635.787514 643.512586 
L 640.498507 641.726822 
L 645.2095 643.792517 
L 649.920493 643.08277 
L 654.631486 644.288234 
L 659.342479 642.054813 
L 664.053472 644.469934 
L 668.764465 643.728603 
L 673.475458 644.815664 
L 678.186451 643.543864 
L 682.897444 644.960589 
L 687.608436 644.513144 
L 692.319429 645.298307 
" clip-path="url(#p7d6ca483e4)" style="fill: none; stroke-dasharray: 1.5,0; stroke-dashoffset: 0; stroke: #9467bd; stroke-width: 1.5"/>
   </g>
   <g id="line2d_81">
    <path d="M 400.237868 614.166124 
L 404.94886 614.40615 
L 409.659853 615.859444 
L 414.370846 615.736933 
L 419.081839 617.450511 
L 423.792832 617.237742 
L 428.503825 619.056705 
L 433.214818 618.214735 
L 437.925811 622.951564 
L 442.636804 621.139543 
L 447.347797 623.90428 
L 452.05879 622.092494 
L 456.769783 625.56094 
L 461.480776 624.753297 
L 466.191769 626.330448 
L 470.902762 622.408806 
L 475.613754 627.047023 
L 480.324747 628.427317 
L 485.03574 631.391949 
L 489.746733 630.2607 
L 494.457726 633.391464 
L 499.168719 633.80761 
L 503.879712 635.094361 
L 508.590705 629.688993 
L 513.301698 636.290374 
L 518.012691 635.945636 
L 522.723684 637.37668 
L 527.434677 635.958 
L 532.14567 638.343318 
L 536.856663 638.051824 
L 541.567656 639.257539 
L 546.278648 632.067871 
L 550.989641 640.330253 
L 555.700634 640.332112 
L 560.411627 641.059944 
L 565.12262 640.076814 
L 569.833613 641.760311 
L 574.544606 641.321285 
L 579.255599 642.188104 
L 583.966592 640.346978 
L 588.677585 642.994398 
L 593.388578 642.807593 
L 598.099571 643.57099 
L 602.810564 643.17842 
L 607.521557 643.913582 
L 612.23255 644.076747 
L 616.943542 644.717505 
L 621.654535 640.605856 
L 626.365528 645.028731 
L 631.076521 645.023805 
L 635.787514 645.601921 
L 640.498507 645.165697 
L 645.2095 645.741025 
L 649.920493 645.872055 
L 654.631486 646.270815 
L 659.342479 645.309576 
L 664.053472 647.079806 
L 668.764465 647.03244 
L 673.475458 647.491738 
L 678.186451 647.18711 
L 682.897444 647.992783 
L 687.608436 647.742216 
L 692.319429 648.276301 
" clip-path="url(#p7d6ca483e4)" style="fill: none; stroke-dasharray: 7.5,7.5; stroke-dashoffset: 0; stroke: #8c564b; stroke-width: 1.5"/>
   </g>
   <g id="patch_12">
    <path d="M 385.633789 670.84 
L 385.633789 395.367273 
" style="fill: none; stroke: #000000; stroke-width: 0.8; stroke-linejoin: miter; stroke-linecap: square"/>
   </g>
   <g id="patch_13">
    <path d="M 385.633789 670.84 
L 706.923507 670.84 
" style="fill: none; stroke: #000000; stroke-width: 0.8; stroke-linejoin: miter; stroke-linecap: square"/>
   </g>
   <g id="text_48">
    <!-- Unpacking to Uint64 -->
    <g transform="translate(495.09818 403.140909) scale(0.1 -0.1)">
     <use xlink:href="#DejaVuSans-55"/>
     <use xlink:href="#DejaVuSans-6e" transform="translate(73.193359 0)"/>
     <use xlink:href="#DejaVuSans-70" transform="translate(136.572266 0)"/>
     <use xlink:href="#DejaVuSans-61" transform="translate(200.048828 0)"/>
     <use xlink:href="#DejaVuSans-63" transform="translate(261.328125 0)"/>
     <use xlink:href="#DejaVuSans-6b" transform="translate(316.308594 0)"/>
     <use xlink:href="#DejaVuSans-69" transform="translate(374.21875 0)"/>
     <use xlink:href="#DejaVuSans-6e" transform="translate(402.001953 0)"/>
     <use xlink:href="#DejaVuSans-67" transform="translate(465.380859 0)"/>
     <use xlink:href="#DejaVuSans-20" transform="translate(528.857422 0)"/>
     <use xlink:href="#DejaVuSans-74" transform="translate(560.644531 0)"/>
     <use xlink:href="#DejaVuSans-6f" transform="translate(599.853516 0)"/>
     <use xlink:href="#DejaVuSans-20" transform="translate(661.035156 0)"/>
     <use xlink:href="#DejaVuSans-55" transform="translate(692.822266 0)"/>
     <use xlink:href="#DejaVuSans-69" transform="translate(766.015625 0)"/>
     <use xlink:href="#DejaVuSans-6e" transform="translate(793.798828 0)"/>
     <use xlink:href="#DejaVuSans-74" transform="translate(857.177734 0)"/>
     <use xlink:href="#DejaVuSans-36" transform="translate(896.386719 0)"/>
     <use xlink:href="#DejaVuSans-34" transform="translate(960.009766 0)"/>
    </g>
   </g>
  </g>
  <g id="text_49">
   <!-- Unpack speed on linux-64 -->
   <g transform="translate(330.86342 16.318125) scale(0.12 -0.12)">
    <defs>
     <path id="DejaVuSans-6c" d="M 603 4863 
L 1178 4863 
L 1178 0 
L 603 0 
L 603 4863 
z
" transform="scale(0.015625)"/>
     <path id="DejaVuSans-75" d="M 544 1381 
L 544 3500 
L 1119 3500 
L 1119 1403 
Q 1119 906 1312 657 
Q 1506 409 1894 409 
Q 2359 409 2629 706 
Q 2900 1003 2900 1516 
L 2900 3500 
L 3475 3500 
L 3475 0 
L 2900 0 
L 2900 538 
Q 2691 219 2414 64 
Q 2138 -91 1772 -91 
Q 1169 -91 856 284 
Q 544 659 544 1381 
z
M 1991 3584 
L 1991 3584 
z
" transform="scale(0.015625)"/>
     <path id="DejaVuSans-78" d="M 3513 3500 
L 2247 1797 
L 3578 0 
L 2900 0 
L 1881 1375 
L 863 0 
L 184 0 
L 1544 1831 
L 300 3500 
L 978 3500 
L 1906 2253 
L 2834 3500 
L 3513 3500 
z
" transform="scale(0.015625)"/>
     <path id="DejaVuSans-2d" d="M 313 2009 
L 1997 2009 
L 1997 1497 
L 313 1497 
L 313 2009 
z
" transform="scale(0.015625)"/>
    </defs>
    <use xlink:href="#DejaVuSans-55"/>
    <use xlink:href="#DejaVuSans-6e" transform="translate(73.193359 0)"/>
    <use xlink:href="#DejaVuSans-70" transform="translate(136.572266 0)"/>
    <use xlink:href="#DejaVuSans-61" transform="translate(200.048828 0)"/>
    <use xlink:href="#DejaVuSans-63" transform="translate(261.328125 0)"/>
    <use xlink:href="#DejaVuSans-6b" transform="translate(316.308594 0)"/>
    <use xlink:href="#DejaVuSans-20" transform="translate(374.21875 0)"/>
    <use xlink:href="#DejaVuSans-73" transform="translate(406.005859 0)"/>
    <use xlink:href="#DejaVuSans-70" transform="translate(458.105469 0)"/>
    <use xlink:href="#DejaVuSans-65" transform="translate(521.582031 0)"/>
    <use xlink:href="#DejaVuSans-65" transform="translate(583.105469 0)"/>
    <use xlink:href="#DejaVuSans-64" transform="translate(644.628906 0)"/>
    <use xlink:href="#DejaVuSans-20" transform="translate(708.105469 0)"/>
    <use xlink:href="#DejaVuSans-6f" transform="translate(739.892578 0)"/>
    <use xlink:href="#DejaVuSans-6e" transform="translate(801.074219 0)"/>
    <use xlink:href="#DejaVuSans-20" transform="translate(864.453125 0)"/>
    <use xlink:href="#DejaVuSans-6c" transform="translate(896.240234 0)"/>
    <use xlink:href="#DejaVuSans-69" transform="translate(924.023438 0)"/>
    <use xlink:href="#DejaVuSans-6e" transform="translate(951.806641 0)"/>
    <use xlink:href="#DejaVuSans-75" transform="translate(1015.185547 0)"/>
    <use xlink:href="#DejaVuSans-78" transform="translate(1078.564453 0)"/>
    <use xlink:href="#DejaVuSans-2d" transform="translate(1137.744141 0)"/>
    <use xlink:href="#DejaVuSans-36" transform="translate(1173.828125 0)"/>
    <use xlink:href="#DejaVuSans-34" transform="translate(1237.451172 0)"/>
   </g>
  </g>
  <g id="legend_1">
   <g id="line2d_82">
    <path d="M 716.629982 294.745 
L 726.629982 294.745 
L 736.629982 294.745 
" style="fill: none"/>
   </g>
   <g id="text_50">
    <!-- func -->
    <g transform="translate(744.629982 298.245) scale(0.1 -0.1)">
     <defs>
      <path id="DejaVuSans-66" d="M 2375 4863 
L 2375 4384 
L 1825 4384 
Q 1516 4384 1395 4259 
Q 1275 4134 1275 3809 
L 1275 3500 
L 2222 3500 
L 2222 3053 
L 1275 3053 
L 1275 0 
L 697 0 
L 697 3053 
L 147 3053 
L 147 3500 
L 697 3500 
L 697 3744 
Q 697 4328 969 4595 
Q 1241 4863 1831 4863 
L 2375 4863 
z
" transform="scale(0.015625)"/>
     </defs>
     <use xlink:href="#DejaVuSans-66"/>
     <use xlink:href="#DejaVuSans-75" transform="translate(35.205078 0)"/>
     <use xlink:href="#DejaVuSans-6e" transform="translate(98.583984 0)"/>
     <use xlink:href="#DejaVuSans-63" transform="translate(161.962891 0)"/>
    </g>
   </g>
   <g id="line2d_83">
    <path d="M 716.629982 309.423125 
L 726.629982 309.423125 
L 736.629982 309.423125 
" style="fill: none; stroke: #ff7f0e; stroke-width: 1.5; stroke-linecap: square"/>
   </g>
   <g id="text_51">
    <!-- LittleIntPacker -->
    <g transform="translate(744.629982 312.923125) scale(0.1 -0.1)">
     <defs>
      <path id="DejaVuSans-4c" d="M 628 4666 
L 1259 4666 
L 1259 531 
L 3531 531 
L 3531 0 
L 628 0 
L 628 4666 
z
" transform="scale(0.015625)"/>
      <path id="DejaVuSans-49" d="M 628 4666 
L 1259 4666 
L 1259 0 
L 628 0 
L 628 4666 
z
" transform="scale(0.015625)"/>
      <path id="DejaVuSans-72" d="M 2631 2963 
Q 2534 3019 2420 3045 
Q 2306 3072 2169 3072 
Q 1681 3072 1420 2755 
Q 1159 2438 1159 1844 
L 1159 0 
L 581 0 
L 581 3500 
L 1159 3500 
L 1159 2956 
Q 1341 3275 1631 3429 
Q 1922 3584 2338 3584 
Q 2397 3584 2469 3576 
Q 2541 3569 2628 3553 
L 2631 2963 
z
" transform="scale(0.015625)"/>
     </defs>
     <use xlink:href="#DejaVuSans-4c"/>
     <use xlink:href="#DejaVuSans-69" transform="translate(55.712891 0)"/>
     <use xlink:href="#DejaVuSans-74" transform="translate(83.496094 0)"/>
     <use xlink:href="#DejaVuSans-74" transform="translate(122.705078 0)"/>
     <use xlink:href="#DejaVuSans-6c" transform="translate(161.914062 0)"/>
     <use xlink:href="#DejaVuSans-65" transform="translate(189.697266 0)"/>
     <use xlink:href="#DejaVuSans-49" transform="translate(251.220703 0)"/>
     <use xlink:href="#DejaVuSans-6e" transform="translate(280.712891 0)"/>
     <use xlink:href="#DejaVuSans-74" transform="translate(344.091797 0)"/>
     <use xlink:href="#DejaVuSans-50" transform="translate(383.300781 0)"/>
     <use xlink:href="#DejaVuSans-61" transform="translate(439.103516 0)"/>
     <use xlink:href="#DejaVuSans-63" transform="translate(500.382812 0)"/>
     <use xlink:href="#DejaVuSans-6b" transform="translate(555.363281 0)"/>
     <use xlink:href="#DejaVuSans-65" transform="translate(609.648438 0)"/>
     <use xlink:href="#DejaVuSans-72" transform="translate(671.171875 0)"/>
    </g>
   </g>
   <g id="line2d_84">
    <path d="M 716.629982 324.10125 
L 726.629982 324.10125 
L 736.629982 324.10125 
" style="fill: none; stroke: #2ca02c; stroke-width: 1.5; stroke-linecap: square"/>
   </g>
   <g id="text_52">
    <!-- New -->
    <g transform="translate(744.629982 327.60125) scale(0.1 -0.1)">
     <defs>
      <path id="DejaVuSans-4e" d="M 628 4666 
L 1478 4666 
L 3547 763 
L 3547 4666 
L 4159 4666 
L 4159 0 
L 3309 0 
L 1241 3903 
L 1241 0 
L 628 0 
L 628 4666 
z
" transform="scale(0.015625)"/>
     </defs>
     <use xlink:href="#DejaVuSans-4e"/>
     <use xlink:href="#DejaVuSans-65" transform="translate(74.804688 0)"/>
     <use xlink:href="#DejaVuSans-77" transform="translate(136.328125 0)"/>
    </g>
   </g>
   <g id="line2d_85">
    <path d="M 716.629982 338.779375 
L 726.629982 338.779375 
L 736.629982 338.779375 
" style="fill: none; stroke: #9467bd; stroke-width: 1.5; stroke-linecap: square"/>
   </g>
   <g id="text_53">
    <!-- Old -->
    <g transform="translate(744.629982 342.279375) scale(0.1 -0.1)">
     <defs>
      <path id="DejaVuSans-4f" d="M 2522 4238 
Q 1834 4238 1429 3725 
Q 1025 3213 1025 2328 
Q 1025 1447 1429 934 
Q 1834 422 2522 422 
Q 3209 422 3611 934 
Q 4013 1447 4013 2328 
Q 4013 3213 3611 3725 
Q 3209 4238 2522 4238 
z
M 2522 4750 
Q 3503 4750 4090 4092 
Q 4678 3434 4678 2328 
Q 4678 1225 4090 567 
Q 3503 -91 2522 -91 
Q 1538 -91 948 565 
Q 359 1222 359 2328 
Q 359 3434 948 4092 
Q 1538 4750 2522 4750 
z
" transform="scale(0.015625)"/>
     </defs>
     <use xlink:href="#DejaVuSans-4f"/>
     <use xlink:href="#DejaVuSans-6c" transform="translate(78.710938 0)"/>
     <use xlink:href="#DejaVuSans-64" transform="translate(106.494141 0)"/>
    </g>
   </g>
   <g id="line2d_86">
    <path d="M 716.629982 353.4575 
L 726.629982 353.4575 
L 736.629982 353.4575 
" style="fill: none; stroke: #8c564b; stroke-width: 1.5; stroke-linecap: square"/>
   </g>
   <g id="text_54">
    <!-- ScalarBatch -->
    <g transform="translate(744.629982 356.9575) scale(0.1 -0.1)">
     <defs>
      <path id="DejaVuSans-53" d="M 3425 4513 
L 3425 3897 
Q 3066 4069 2747 4153 
Q 2428 4238 2131 4238 
Q 1616 4238 1336 4038 
Q 1056 3838 1056 3469 
Q 1056 3159 1242 3001 
Q 1428 2844 1947 2747 
L 2328 2669 
Q 3034 2534 3370 2195 
Q 3706 1856 3706 1288 
Q 3706 609 3251 259 
Q 2797 -91 1919 -91 
Q 1588 -91 1214 -16 
Q 841 59 441 206 
L 441 856 
Q 825 641 1194 531 
Q 1563 422 1919 422 
Q 2459 422 2753 634 
Q 3047 847 3047 1241 
Q 3047 1584 2836 1778 
Q 2625 1972 2144 2069 
L 1759 2144 
Q 1053 2284 737 2584 
Q 422 2884 422 3419 
Q 422 4038 858 4394 
Q 1294 4750 2059 4750 
Q 2388 4750 2728 4690 
Q 3069 4631 3425 4513 
z
" transform="scale(0.015625)"/>
      <path id="DejaVuSans-42" d="M 1259 2228 
L 1259 519 
L 2272 519 
Q 2781 519 3026 730 
Q 3272 941 3272 1375 
Q 3272 1813 3026 2020 
Q 2781 2228 2272 2228 
L 1259 2228 
z
M 1259 4147 
L 1259 2741 
L 2194 2741 
Q 2656 2741 2882 2914 
Q 3109 3088 3109 3444 
Q 3109 3797 2882 3972 
Q 2656 4147 2194 4147 
L 1259 4147 
z
M 628 4666 
L 2241 4666 
Q 2963 4666 3353 4366 
Q 3744 4066 3744 3513 
Q 3744 3084 3544 2831 
Q 3344 2578 2956 2516 
Q 3422 2416 3680 2098 
Q 3938 1781 3938 1306 
Q 3938 681 3513 340 
Q 3088 0 2303 0 
L 628 0 
L 628 4666 
z
" transform="scale(0.015625)"/>
     </defs>
     <use xlink:href="#DejaVuSans-53"/>
     <use xlink:href="#DejaVuSans-63" transform="translate(63.476562 0)"/>
     <use xlink:href="#DejaVuSans-61" transform="translate(118.457031 0)"/>
     <use xlink:href="#DejaVuSans-6c" transform="translate(179.736328 0)"/>
     <use xlink:href="#DejaVuSans-61" transform="translate(207.519531 0)"/>
     <use xlink:href="#DejaVuSans-72" transform="translate(268.798828 0)"/>
     <use xlink:href="#DejaVuSans-42" transform="translate(309.912109 0)"/>
     <use xlink:href="#DejaVuSans-61" transform="translate(378.515625 0)"/>
     <use xlink:href="#DejaVuSans-74" transform="translate(439.794922 0)"/>
     <use xlink:href="#DejaVuSans-63" transform="translate(479.003906 0)"/>
     <use xlink:href="#DejaVuSans-68" transform="translate(533.984375 0)"/>
    </g>
   </g>
   <g id="line2d_87">
    <path d="M 716.629982 368.135625 
L 726.629982 368.135625 
L 736.629982 368.135625 
" style="fill: none"/>
   </g>
   <g id="text_55">
    <!-- arch -->
    <g transform="translate(744.629982 371.635625) scale(0.1 -0.1)">
     <use xlink:href="#DejaVuSans-61"/>
     <use xlink:href="#DejaVuSans-72" transform="translate(61.279297 0)"/>
     <use xlink:href="#DejaVuSans-63" transform="translate(100.142578 0)"/>
     <use xlink:href="#DejaVuSans-68" transform="translate(155.123047 0)"/>
    </g>
   </g>
   <g id="line2d_88">
    <path d="M 716.629982 382.81375 
L 726.629982 382.81375 
L 736.629982 382.81375 
" style="fill: none; stroke-dasharray: 3,3; stroke-dashoffset: 0; stroke: #333333; stroke-width: 1.5"/>
   </g>
   <g id="text_56">
    <!-- Sse42 -->
    <g transform="translate(744.629982 386.31375) scale(0.1 -0.1)">
     <use xlink:href="#DejaVuSans-53"/>
     <use xlink:href="#DejaVuSans-73" transform="translate(63.476562 0)"/>
     <use xlink:href="#DejaVuSans-65" transform="translate(115.576172 0)"/>
     <use xlink:href="#DejaVuSans-34" transform="translate(177.099609 0)"/>
     <use xlink:href="#DejaVuSans-32" transform="translate(240.722656 0)"/>
    </g>
   </g>
   <g id="line2d_89">
    <path d="M 716.629982 397.491875 
L 726.629982 397.491875 
L 736.629982 397.491875 
" style="fill: none; stroke-dasharray: 1.5,0; stroke-dashoffset: 0; stroke: #333333; stroke-width: 1.5"/>
   </g>
   <g id="text_57">
    <!-- Avx2 -->
    <g transform="translate(744.629982 400.991875) scale(0.1 -0.1)">
     <defs>
      <path id="DejaVuSans-41" d="M 2188 4044 
L 1331 1722 
L 3047 1722 
L 2188 4044 
z
M 1831 4666 
L 2547 4666 
L 4325 0 
L 3669 0 
L 3244 1197 
L 1141 1197 
L 716 0 
L 50 0 
L 1831 4666 
z
" transform="scale(0.015625)"/>
      <path id="DejaVuSans-76" d="M 191 3500 
L 800 3500 
L 1894 563 
L 2988 3500 
L 3597 3500 
L 2284 0 
L 1503 0 
L 191 3500 
z
" transform="scale(0.015625)"/>
     </defs>
     <use xlink:href="#DejaVuSans-41"/>
     <use xlink:href="#DejaVuSans-76" transform="translate(62.533203 0)"/>
     <use xlink:href="#DejaVuSans-78" transform="translate(121.712891 0)"/>
     <use xlink:href="#DejaVuSans-32" transform="translate(180.892578 0)"/>
    </g>
   </g>
   <g id="line2d_90">
    <path d="M 716.629982 412.17 
L 726.629982 412.17 
L 736.629982 412.17 
" style="fill: none; stroke-dasharray: 7.5,7.5; stroke-dashoffset: 0; stroke: #333333; stroke-width: 1.5"/>
   </g>
   <g id="text_58">
    <!-- NoSimd -->
    <g transform="translate(744.629982 415.67) scale(0.1 -0.1)">
     <defs>
      <path id="DejaVuSans-6d" d="M 3328 2828 
Q 3544 3216 3844 3400 
Q 4144 3584 4550 3584 
Q 5097 3584 5394 3201 
Q 5691 2819 5691 2113 
L 5691 0 
L 5113 0 
L 5113 2094 
Q 5113 2597 4934 2840 
Q 4756 3084 4391 3084 
Q 3944 3084 3684 2787 
Q 3425 2491 3425 1978 
L 3425 0 
L 2847 0 
L 2847 2094 
Q 2847 2600 2669 2842 
Q 2491 3084 2119 3084 
Q 1678 3084 1418 2786 
Q 1159 2488 1159 1978 
L 1159 0 
L 581 0 
L 581 3500 
L 1159 3500 
L 1159 2956 
Q 1356 3278 1631 3431 
Q 1906 3584 2284 3584 
Q 2666 3584 2933 3390 
Q 3200 3197 3328 2828 
z
" transform="scale(0.015625)"/>
     </defs>
     <use xlink:href="#DejaVuSans-4e"/>
     <use xlink:href="#DejaVuSans-6f" transform="translate(74.804688 0)"/>
     <use xlink:href="#DejaVuSans-53" transform="translate(135.986328 0)"/>
     <use xlink:href="#DejaVuSans-69" transform="translate(199.462891 0)"/>
     <use xlink:href="#DejaVuSans-6d" transform="translate(227.246094 0)"/>
     <use xlink:href="#DejaVuSans-64" transform="translate(324.658203 0)"/>
    </g>
   </g>
  </g>
 </g>
 <defs>
  <clipPath id="p36acc80a40">
   <rect x="50.14375" y="64.8" width="321.289718" height="275.472727"/>
  </clipPath>
  <clipPath id="p324b726519">
   <rect x="385.633789" y="64.8" width="321.289718" height="275.472727"/>
  </clipPath>
  <clipPath id="p0edc399eb2">
   <rect x="50.14375" y="395.367273" width="321.289718" height="275.472727"/>
  </clipPath>
  <clipPath id="p7d6ca483e4">
   <rect x="385.633789" y="395.367273" width="321.289718" height="275.472727"/>
  </clipPath>
 </defs>
</svg>
