<?xml version="1.0" encoding="utf-8" standalone="no"?>
<!DOCTYPE svg PUBLIC "-//W3C//DTD SVG 1.1//EN"
  "http://www.w3.org/Graphics/SVG/1.1/DTD/svg11.dtd">
<svg xmlns:xlink="http://www.w3.org/1999/xlink" width="824.999489pt" height="708.39625pt" viewBox="0 0 824.999489 708.39625" xmlns="http://www.w3.org/2000/svg" version="1.1">
 <metadata>
  <rdf:RDF xmlns:dc="http://purl.org/dc/elements/1.1/" xmlns:cc="http://creativecommons.org/ns#" xmlns:rdf="http://www.w3.org/1999/02/22-rdf-syntax-ns#">
   <cc:Work>
    <dc:type rdf:resource="http://purl.org/dc/dcmitype/StillImage"/>
    <dc:date>2026-03-09T13:36:24.197725</dc:date>
    <dc:format>image/svg+xml</dc:format>
    <dc:creator>
     <cc:Agent>
      <dc:title>Matplotlib v3.10.8, https://matplotlib.org/</dc:title>
     </cc:Agent>
    </dc:creator>
   </cc:Work>
  </rdf:RDF>
 </metadata>
 <defs>
  <style type="text/css">*{stroke-linejoin: round; stroke-linecap: butt}</style>
 </defs>
 <g id="figure_1">
  <g id="patch_1">
   <path d="M 0 708.39625 
L 824.999489 708.39625 
L 824.999489 0 
L 0 0 
z
" style="fill: #ffffff"/>
  </g>
  <g id="axes_1">
   <g id="patch_2">
    <path d="M 50.14375 340.272727 
L 377.252734 340.272727 
L 377.252734 64.8 
L 50.14375 64.8 
z
" style="fill: #ffffff"/>
   </g>
   <g id="FillBetweenPolyCollection_1"/>
   <g id="FillBetweenPolyCollection_2"/>
   <g id="FillBetweenPolyCollection_3"/>
   <g id="matplotlib.axis_1">
    <g id="xtick_1">
     <g id="line2d_1">
      <defs>
       <path id="mbe5de6641a" d="M 0 0 
L 0 3.5 
" style="stroke: #000000; stroke-width: 0.8"/>
      </defs>
      <g>
       <use xlink:href="#mbe5de6641a" x="65.01234" y="340.272727" style="stroke: #000000; stroke-width: 0.8"/>
      </g>
     </g>
     <g id="text_1">
      <!-- 1 -->
      <g transform="translate(61.83109 354.871165) scale(0.1 -0.1)">
       <defs>
        <path id="DejaVuSans-31" d="M 794 531 
L 1825 531 
L 1825 4091 
L 703 3866 
L 703 4441 
L 1819 4666 
L 2450 4666 
L 2450 531 
L 3481 531 
L 3481 0 
L 794 0 
L 794 531 
z
" transform="scale(0.015625)"/>
       </defs>
       <use xlink:href="#DejaVuSans-31"/>
      </g>
     </g>
    </g>
    <g id="xtick_2">
     <g id="line2d_2">
      <g>
       <use xlink:href="#mbe5de6641a" x="114.574307" y="340.272727" style="stroke: #000000; stroke-width: 0.8"/>
      </g>
     </g>
     <g id="text_2">
      <!-- 2 -->
      <g transform="translate(111.393057 354.871165) scale(0.1 -0.1)">
       <defs>
        <path id="DejaVuSans-32" d="M 1228 531 
L 3431 531 
L 3431 0 
L 469 0 
L 469 531 
Q 828 903 1448 1529 
Q 2069 2156 2228 2338 
Q 2531 2678 2651 2914 
Q 2772 3150 2772 3378 
Q 2772 3750 2511 3984 
Q 2250 4219 1831 4219 
Q 1534 4219 1204 4116 
Q 875 4013 500 3803 
L 500 4441 
Q 881 4594 1212 4672 
Q 1544 4750 1819 4750 
Q 2544 4750 2975 4387 
Q 3406 4025 3406 3419 
Q 3406 3131 3298 2873 
Q 3191 2616 2906 2266 
Q 2828 2175 2409 1742 
Q 1991 1309 1228 531 
z
" transform="scale(0.015625)"/>
       </defs>
       <use xlink:href="#DejaVuSans-32"/>
      </g>
     </g>
    </g>
    <g id="xtick_3">
     <g id="line2d_3">
      <g>
       <use xlink:href="#mbe5de6641a" x="164.136275" y="340.272727" style="stroke: #000000; stroke-width: 0.8"/>
      </g>
     </g>
     <g id="text_3">
      <!-- 3 -->
      <g transform="translate(160.955025 354.871165) scale(0.1 -0.1)">
       <defs>
        <path id="DejaVuSans-33" d="M 2597 2516 
Q 3050 2419 3304 2112 
Q 3559 1806 3559 1356 
Q 3559 666 3084 287 
Q 2609 -91 1734 -91 
Q 1441 -91 1130 -33 
Q 819 25 488 141 
L 488 750 
Q 750 597 1062 519 
Q 1375 441 1716 441 
Q 2309 441 2620 675 
Q 2931 909 2931 1356 
Q 2931 1769 2642 2001 
Q 2353 2234 1838 2234 
L 1294 2234 
L 1294 2753 
L 1863 2753 
Q 2328 2753 2575 2939 
Q 2822 3125 2822 3475 
Q 2822 3834 2567 4026 
Q 2313 4219 1838 4219 
Q 1578 4219 1281 4162 
Q 984 4106 628 3988 
L 628 4550 
Q 988 4650 1302 4700 
Q 1616 4750 1894 4750 
Q 2613 4750 3031 4423 
Q 3450 4097 3450 3541 
Q 3450 3153 3228 2886 
Q 3006 2619 2597 2516 
z
" transform="scale(0.015625)"/>
       </defs>
       <use xlink:href="#DejaVuSans-33"/>
      </g>
     </g>
    </g>
    <g id="xtick_4">
     <g id="line2d_4">
      <g>
       <use xlink:href="#mbe5de6641a" x="213.698242" y="340.272727" style="stroke: #000000; stroke-width: 0.8"/>
      </g>
     </g>
     <g id="text_4">
      <!-- 4 -->
      <g transform="translate(210.516992 354.871165) scale(0.1 -0.1)">
       <defs>
        <path id="DejaVuSans-34" d="M 2419 4116 
L 825 1625 
L 2419 1625 
L 2419 4116 
z
M 2253 4666 
L 3047 4666 
L 3047 1625 
L 3713 1625 
L 3713 1100 
L 3047 1100 
L 3047 0 
L 2419 0 
L 2419 1100 
L 313 1100 
L 313 1709 
L 2253 4666 
z
" transform="scale(0.015625)"/>
       </defs>
       <use xlink:href="#DejaVuSans-34"/>
      </g>
     </g>
    </g>
    <g id="xtick_5">
     <g id="line2d_5">
      <g>
       <use xlink:href="#mbe5de6641a" x="263.260209" y="340.272727" style="stroke: #000000; stroke-width: 0.8"/>
      </g>
     </g>
     <g id="text_5">
      <!-- 5 -->
      <g transform="translate(260.078959 354.871165) scale(0.1 -0.1)">
       <defs>
        <path id="DejaVuSans-35" d="M 691 4666 
L 3169 4666 
L 3169 4134 
L 1269 4134 
L 1269 2991 
Q 1406 3038 1543 3061 
Q 1681 3084 1819 3084 
Q 2600 3084 3056 2656 
Q 3513 2228 3513 1497 
Q 3513 744 3044 326 
Q 2575 -91 1722 -91 
Q 1428 -91 1123 -41 
Q 819 9 494 109 
L 494 744 
Q 775 591 1075 516 
Q 1375 441 1709 441 
Q 2250 441 2565 725 
Q 2881 1009 2881 1497 
Q 2881 1984 2565 2268 
Q 2250 2553 1709 2553 
Q 1456 2553 1204 2497 
Q 953 2441 691 2322 
L 691 4666 
z
" transform="scale(0.015625)"/>
       </defs>
       <use xlink:href="#DejaVuSans-35"/>
      </g>
     </g>
    </g>
    <g id="xtick_6">
     <g id="line2d_6">
      <g>
       <use xlink:href="#mbe5de6641a" x="312.822176" y="340.272727" style="stroke: #000000; stroke-width: 0.8"/>
      </g>
     </g>
     <g id="text_6">
      <!-- 6 -->
      <g transform="translate(309.640926 354.871165) scale(0.1 -0.1)">
       <defs>
        <path id="DejaVuSans-36" d="M 2113 2584 
Q 1688 2584 1439 2293 
Q 1191 2003 1191 1497 
Q 1191 994 1439 701 
Q 1688 409 2113 409 
Q 2538 409 2786 701 
Q 3034 994 3034 1497 
Q 3034 2003 2786 2293 
Q 2538 2584 2113 2584 
z
M 3366 4563 
L 3366 3988 
Q 3128 4100 2886 4159 
Q 2644 4219 2406 4219 
Q 1781 4219 1451 3797 
Q 1122 3375 1075 2522 
Q 1259 2794 1537 2939 
Q 1816 3084 2150 3084 
Q 2853 3084 3261 2657 
Q 3669 2231 3669 1497 
Q 3669 778 3244 343 
Q 2819 -91 2113 -91 
Q 1303 -91 875 529 
Q 447 1150 447 2328 
Q 447 3434 972 4092 
Q 1497 4750 2381 4750 
Q 2619 4750 2861 4703 
Q 3103 4656 3366 4563 
z
" transform="scale(0.015625)"/>
       </defs>
       <use xlink:href="#DejaVuSans-36"/>
      </g>
     </g>
    </g>
    <g id="xtick_7">
     <g id="line2d_7">
      <g>
       <use xlink:href="#mbe5de6641a" x="362.384144" y="340.272727" style="stroke: #000000; stroke-width: 0.8"/>
      </g>
     </g>
     <g id="text_7">
      <!-- 7 -->
      <g transform="translate(359.202894 354.871165) scale(0.1 -0.1)">
       <defs>
        <path id="DejaVuSans-37" d="M 525 4666 
L 3525 4666 
L 3525 4397 
L 1831 0 
L 1172 0 
L 2766 4134 
L 525 4134 
L 525 4666 
z
" transform="scale(0.015625)"/>
       </defs>
       <use xlink:href="#DejaVuSans-37"/>
      </g>
     </g>
    </g>
    <g id="text_8">
     <!-- Packed width (bit) -->
     <g transform="translate(168.745898 368.54929) scale(0.1 -0.1)">
      <defs>
       <path id="DejaVuSans-50" d="M 1259 4147 
L 1259 2394 
L 2053 2394 
Q 2494 2394 2734 2622 
Q 2975 2850 2975 3272 
Q 2975 3691 2734 3919 
Q 2494 4147 2053 4147 
L 1259 4147 
z
M 628 4666 
L 2053 4666 
Q 2838 4666 3239 4311 
Q 3641 3956 3641 3272 
Q 3641 2581 3239 2228 
Q 2838 1875 2053 1875 
L 1259 1875 
L 1259 0 
L 628 0 
L 628 4666 
z
" transform="scale(0.015625)"/>
       <path id="DejaVuSans-61" d="M 2194 1759 
Q 1497 1759 1228 1600 
Q 959 1441 959 1056 
Q 959 750 1161 570 
Q 1363 391 1709 391 
Q 2188 391 2477 730 
Q 2766 1069 2766 1631 
L 2766 1759 
L 2194 1759 
z
M 3341 1997 
L 3341 0 
L 2766 0 
L 2766 531 
Q 2569 213 2275 61 
Q 1981 -91 1556 -91 
Q 1019 -91 701 211 
Q 384 513 384 1019 
Q 384 1609 779 1909 
Q 1175 2209 1959 2209 
L 2766 2209 
L 2766 2266 
Q 2766 2663 2505 2880 
Q 2244 3097 1772 3097 
Q 1472 3097 1187 3025 
Q 903 2953 641 2809 
L 641 3341 
Q 956 3463 1253 3523 
Q 1550 3584 1831 3584 
Q 2591 3584 2966 3190 
Q 3341 2797 3341 1997 
z
" transform="scale(0.015625)"/>
       <path id="DejaVuSans-63" d="M 3122 3366 
L 3122 2828 
Q 2878 2963 2633 3030 
Q 2388 3097 2138 3097 
Q 1578 3097 1268 2742 
Q 959 2388 959 1747 
Q 959 1106 1268 751 
Q 1578 397 2138 397 
Q 2388 397 2633 464 
Q 2878 531 3122 666 
L 3122 134 
Q 2881 22 2623 -34 
Q 2366 -91 2075 -91 
Q 1284 -91 818 406 
Q 353 903 353 1747 
Q 353 2603 823 3093 
Q 1294 3584 2113 3584 
Q 2378 3584 2631 3529 
Q 2884 3475 3122 3366 
z
" transform="scale(0.015625)"/>
       <path id="DejaVuSans-6b" d="M 581 4863 
L 1159 4863 
L 1159 1991 
L 2875 3500 
L 3609 3500 
L 1753 1863 
L 3688 0 
L 2938 0 
L 1159 1709 
L 1159 0 
L 581 0 
L 581 4863 
z
" transform="scale(0.015625)"/>
       <path id="DejaVuSans-65" d="M 3597 1894 
L 3597 1613 
L 953 1613 
Q 991 1019 1311 708 
Q 1631 397 2203 397 
Q 2534 397 2845 478 
Q 3156 559 3463 722 
L 3463 178 
Q 3153 47 2828 -22 
Q 2503 -91 2169 -91 
Q 1331 -91 842 396 
Q 353 884 353 1716 
Q 353 2575 817 3079 
Q 1281 3584 2069 3584 
Q 2775 3584 3186 3129 
Q 3597 2675 3597 1894 
z
M 3022 2063 
Q 3016 2534 2758 2815 
Q 2500 3097 2075 3097 
Q 1594 3097 1305 2825 
Q 1016 2553 972 2059 
L 3022 2063 
z
" transform="scale(0.015625)"/>
       <path id="DejaVuSans-64" d="M 2906 2969 
L 2906 4863 
L 3481 4863 
L 3481 0 
L 2906 0 
L 2906 525 
Q 2725 213 2448 61 
Q 2172 -91 1784 -91 
Q 1150 -91 751 415 
Q 353 922 353 1747 
Q 353 2572 751 3078 
Q 1150 3584 1784 3584 
Q 2172 3584 2448 3432 
Q 2725 3281 2906 2969 
z
M 947 1747 
Q 947 1113 1208 752 
Q 1469 391 1925 391 
Q 2381 391 2643 752 
Q 2906 1113 2906 1747 
Q 2906 2381 2643 2742 
Q 2381 3103 1925 3103 
Q 1469 3103 1208 2742 
Q 947 2381 947 1747 
z
" transform="scale(0.015625)"/>
       <path id="DejaVuSans-20" transform="scale(0.015625)"/>
       <path id="DejaVuSans-77" d="M 269 3500 
L 844 3500 
L 1563 769 
L 2278 3500 
L 2956 3500 
L 3675 769 
L 4391 3500 
L 4966 3500 
L 4050 0 
L 3372 0 
L 2619 2869 
L 1863 0 
L 1184 0 
L 269 3500 
z
" transform="scale(0.015625)"/>
       <path id="DejaVuSans-69" d="M 603 3500 
L 1178 3500 
L 1178 0 
L 603 0 
L 603 3500 
z
M 603 4863 
L 1178 4863 
L 1178 4134 
L 603 4134 
L 603 4863 
z
" transform="scale(0.015625)"/>
       <path id="DejaVuSans-74" d="M 1172 4494 
L 1172 3500 
L 2356 3500 
L 2356 3053 
L 1172 3053 
L 1172 1153 
Q 1172 725 1289 603 
Q 1406 481 1766 481 
L 2356 481 
L 2356 0 
L 1766 0 
Q 1100 0 847 248 
Q 594 497 594 1153 
L 594 3053 
L 172 3053 
L 172 3500 
L 594 3500 
L 594 4494 
L 1172 4494 
z
" transform="scale(0.015625)"/>
       <path id="DejaVuSans-68" d="M 3513 2113 
L 3513 0 
L 2938 0 
L 2938 2094 
Q 2938 2591 2744 2837 
Q 2550 3084 2163 3084 
Q 1697 3084 1428 2787 
Q 1159 2491 1159 1978 
L 1159 0 
L 581 0 
L 581 4863 
L 1159 4863 
L 1159 2956 
Q 1366 3272 1645 3428 
Q 1925 3584 2291 3584 
Q 2894 3584 3203 3211 
Q 3513 2838 3513 2113 
z
" transform="scale(0.015625)"/>
       <path id="DejaVuSans-28" d="M 1984 4856 
Q 1566 4138 1362 3434 
Q 1159 2731 1159 2009 
Q 1159 1288 1364 580 
Q 1569 -128 1984 -844 
L 1484 -844 
Q 1016 -109 783 600 
Q 550 1309 550 2009 
Q 550 2706 781 3412 
Q 1013 4119 1484 4856 
L 1984 4856 
z
" transform="scale(0.015625)"/>
       <path id="DejaVuSans-62" d="M 3116 1747 
Q 3116 2381 2855 2742 
Q 2594 3103 2138 3103 
Q 1681 3103 1420 2742 
Q 1159 2381 1159 1747 
Q 1159 1113 1420 752 
Q 1681 391 2138 391 
Q 2594 391 2855 752 
Q 3116 1113 3116 1747 
z
M 1159 2969 
Q 1341 3281 1617 3432 
Q 1894 3584 2278 3584 
Q 2916 3584 3314 3078 
Q 3713 2572 3713 1747 
Q 3713 922 3314 415 
Q 2916 -91 2278 -91 
Q 1894 -91 1617 61 
Q 1341 213 1159 525 
L 1159 0 
L 581 0 
L 581 4863 
L 1159 4863 
L 1159 2969 
z
" transform="scale(0.015625)"/>
       <path id="DejaVuSans-29" d="M 513 4856 
L 1013 4856 
Q 1481 4119 1714 3412 
Q 1947 2706 1947 2009 
Q 1947 1309 1714 600 
Q 1481 -109 1013 -844 
L 513 -844 
Q 928 -128 1133 580 
Q 1338 1288 1338 2009 
Q 1338 2731 1133 3434 
Q 928 4138 513 4856 
z
" transform="scale(0.015625)"/>
      </defs>
      <use xlink:href="#DejaVuSans-50"/>
      <use xlink:href="#DejaVuSans-61" transform="translate(55.802734 0)"/>
      <use xlink:href="#DejaVuSans-63" transform="translate(117.082031 0)"/>
      <use xlink:href="#DejaVuSans-6b" transform="translate(172.0625 0)"/>
      <use xlink:href="#DejaVuSans-65" transform="translate(226.347656 0)"/>
      <use xlink:href="#DejaVuSans-64" transform="translate(287.871094 0)"/>
      <use xlink:href="#DejaVuSans-20" transform="translate(351.347656 0)"/>
      <use xlink:href="#DejaVuSans-77" transform="translate(383.134766 0)"/>
      <use xlink:href="#DejaVuSans-69" transform="translate(464.921875 0)"/>
      <use xlink:href="#DejaVuSans-64" transform="translate(492.705078 0)"/>
      <use xlink:href="#DejaVuSans-74" transform="translate(556.181641 0)"/>
      <use xlink:href="#DejaVuSans-68" transform="translate(595.390625 0)"/>
      <use xlink:href="#DejaVuSans-20" transform="translate(658.769531 0)"/>
      <use xlink:href="#DejaVuSans-28" transform="translate(690.556641 0)"/>
      <use xlink:href="#DejaVuSans-62" transform="translate(729.570312 0)"/>
      <use xlink:href="#DejaVuSans-69" transform="translate(793.046875 0)"/>
      <use xlink:href="#DejaVuSans-74" transform="translate(820.830078 0)"/>
      <use xlink:href="#DejaVuSans-29" transform="translate(860.039062 0)"/>
     </g>
    </g>
   </g>
   <g id="matplotlib.axis_2">
    <g id="ytick_1">
     <g id="line2d_8">
      <defs>
       <path id="m8607739ac8" d="M 0 0 
L -3.5 0 
" style="stroke: #000000; stroke-width: 0.8"/>
      </defs>
      <g>
       <use xlink:href="#m8607739ac8" x="50.14375" y="328.667747" style="stroke: #000000; stroke-width: 0.8"/>
      </g>
     </g>
     <g id="text_9">
      <!-- 0.0 -->
      <g transform="translate(27.240625 332.466966) scale(0.1 -0.1)">
       <defs>
        <path id="DejaVuSans-30" d="M 2034 4250 
Q 1547 4250 1301 3770 
Q 1056 3291 1056 2328 
Q 1056 1369 1301 889 
Q 1547 409 2034 409 
Q 2525 409 2770 889 
Q 3016 1369 3016 2328 
Q 3016 3291 2770 3770 
Q 2525 4250 2034 4250 
z
M 2034 4750 
Q 2819 4750 3233 4129 
Q 3647 3509 3647 2328 
Q 3647 1150 3233 529 
Q 2819 -91 2034 -91 
Q 1250 -91 836 529 
Q 422 1150 422 2328 
Q 422 3509 836 4129 
Q 1250 4750 2034 4750 
z
" transform="scale(0.015625)"/>
        <path id="DejaVuSans-2e" d="M 684 794 
L 1344 794 
L 1344 0 
L 684 0 
L 684 794 
z
" transform="scale(0.015625)"/>
       </defs>
       <use xlink:href="#DejaVuSans-30"/>
       <use xlink:href="#DejaVuSans-2e" transform="translate(63.623047 0)"/>
       <use xlink:href="#DejaVuSans-30" transform="translate(95.410156 0)"/>
      </g>
     </g>
    </g>
    <g id="ytick_2">
     <g id="line2d_9">
      <g>
       <use xlink:href="#m8607739ac8" x="50.14375" y="294.379974" style="stroke: #000000; stroke-width: 0.8"/>
      </g>
     </g>
     <g id="text_10">
      <!-- 10.0 -->
      <g transform="translate(20.878125 298.179193) scale(0.1 -0.1)">
       <use xlink:href="#DejaVuSans-31"/>
       <use xlink:href="#DejaVuSans-30" transform="translate(63.623047 0)"/>
       <use xlink:href="#DejaVuSans-2e" transform="translate(127.246094 0)"/>
       <use xlink:href="#DejaVuSans-30" transform="translate(159.033203 0)"/>
      </g>
     </g>
    </g>
    <g id="ytick_3">
     <g id="line2d_10">
      <g>
       <use xlink:href="#m8607739ac8" x="50.14375" y="260.092201" style="stroke: #000000; stroke-width: 0.8"/>
      </g>
     </g>
     <g id="text_11">
      <!-- 20.0 -->
      <g transform="translate(20.878125 263.891419) scale(0.1 -0.1)">
       <use xlink:href="#DejaVuSans-32"/>
       <use xlink:href="#DejaVuSans-30" transform="translate(63.623047 0)"/>
       <use xlink:href="#DejaVuSans-2e" transform="translate(127.246094 0)"/>
       <use xlink:href="#DejaVuSans-30" transform="translate(159.033203 0)"/>
      </g>
     </g>
    </g>
    <g id="ytick_4">
     <g id="line2d_11">
      <g>
       <use xlink:href="#m8607739ac8" x="50.14375" y="225.804428" style="stroke: #000000; stroke-width: 0.8"/>
      </g>
     </g>
     <g id="text_12">
      <!-- 30.0 -->
      <g transform="translate(20.878125 229.603646) scale(0.1 -0.1)">
       <use xlink:href="#DejaVuSans-33"/>
       <use xlink:href="#DejaVuSans-30" transform="translate(63.623047 0)"/>
       <use xlink:href="#DejaVuSans-2e" transform="translate(127.246094 0)"/>
       <use xlink:href="#DejaVuSans-30" transform="translate(159.033203 0)"/>
      </g>
     </g>
    </g>
    <g id="ytick_5">
     <g id="line2d_12">
      <g>
       <use xlink:href="#m8607739ac8" x="50.14375" y="191.516654" style="stroke: #000000; stroke-width: 0.8"/>
      </g>
     </g>
     <g id="text_13">
      <!-- 40.0 -->
      <g transform="translate(20.878125 195.315873) scale(0.1 -0.1)">
       <use xlink:href="#DejaVuSans-34"/>
       <use xlink:href="#DejaVuSans-30" transform="translate(63.623047 0)"/>
       <use xlink:href="#DejaVuSans-2e" transform="translate(127.246094 0)"/>
       <use xlink:href="#DejaVuSans-30" transform="translate(159.033203 0)"/>
      </g>
     </g>
    </g>
    <g id="ytick_6">
     <g id="line2d_13">
      <g>
       <use xlink:href="#m8607739ac8" x="50.14375" y="157.228881" style="stroke: #000000; stroke-width: 0.8"/>
      </g>
     </g>
     <g id="text_14">
      <!-- 50.0 -->
      <g transform="translate(20.878125 161.0281) scale(0.1 -0.1)">
       <use xlink:href="#DejaVuSans-35"/>
       <use xlink:href="#DejaVuSans-30" transform="translate(63.623047 0)"/>
       <use xlink:href="#DejaVuSans-2e" transform="translate(127.246094 0)"/>
       <use xlink:href="#DejaVuSans-30" transform="translate(159.033203 0)"/>
      </g>
     </g>
    </g>
    <g id="ytick_7">
     <g id="line2d_14">
      <g>
       <use xlink:href="#m8607739ac8" x="50.14375" y="122.941108" style="stroke: #000000; stroke-width: 0.8"/>
      </g>
     </g>
     <g id="text_15">
      <!-- 60.0 -->
      <g transform="translate(20.878125 126.740327) scale(0.1 -0.1)">
       <use xlink:href="#DejaVuSans-36"/>
       <use xlink:href="#DejaVuSans-30" transform="translate(63.623047 0)"/>
       <use xlink:href="#DejaVuSans-2e" transform="translate(127.246094 0)"/>
       <use xlink:href="#DejaVuSans-30" transform="translate(159.033203 0)"/>
      </g>
     </g>
    </g>
    <g id="ytick_8">
     <g id="line2d_15">
      <g>
       <use xlink:href="#m8607739ac8" x="50.14375" y="88.653335" style="stroke: #000000; stroke-width: 0.8"/>
      </g>
     </g>
     <g id="text_16">
      <!-- 70.0 -->
      <g transform="translate(20.878125 92.452553) scale(0.1 -0.1)">
       <use xlink:href="#DejaVuSans-37"/>
       <use xlink:href="#DejaVuSans-30" transform="translate(63.623047 0)"/>
       <use xlink:href="#DejaVuSans-2e" transform="translate(127.246094 0)"/>
       <use xlink:href="#DejaVuSans-30" transform="translate(159.033203 0)"/>
      </g>
     </g>
    </g>
    <g id="text_17">
     <!-- speed (×10⁹ int/s) -->
     <g transform="translate(14.798438 248.086364) rotate(-90) scale(0.1 -0.1)">
      <defs>
       <path id="DejaVuSans-73" d="M 2834 3397 
L 2834 2853 
Q 2591 2978 2328 3040 
Q 2066 3103 1784 3103 
Q 1356 3103 1142 2972 
Q 928 2841 928 2578 
Q 928 2378 1081 2264 
Q 1234 2150 1697 2047 
L 1894 2003 
Q 2506 1872 2764 1633 
Q 3022 1394 3022 966 
Q 3022 478 2636 193 
Q 2250 -91 1575 -91 
Q 1294 -91 989 -36 
Q 684 19 347 128 
L 347 722 
Q 666 556 975 473 
Q 1284 391 1588 391 
Q 1994 391 2212 530 
Q 2431 669 2431 922 
Q 2431 1156 2273 1281 
Q 2116 1406 1581 1522 
L 1381 1569 
Q 847 1681 609 1914 
Q 372 2147 372 2553 
Q 372 3047 722 3315 
Q 1072 3584 1716 3584 
Q 2034 3584 2315 3537 
Q 2597 3491 2834 3397 
z
" transform="scale(0.015625)"/>
       <path id="DejaVuSans-70" d="M 1159 525 
L 1159 -1331 
L 581 -1331 
L 581 3500 
L 1159 3500 
L 1159 2969 
Q 1341 3281 1617 3432 
Q 1894 3584 2278 3584 
Q 2916 3584 3314 3078 
Q 3713 2572 3713 1747 
Q 3713 922 3314 415 
Q 2916 -91 2278 -91 
Q 1894 -91 1617 61 
Q 1341 213 1159 525 
z
M 3116 1747 
Q 3116 2381 2855 2742 
Q 2594 3103 2138 3103 
Q 1681 3103 1420 2742 
Q 1159 2381 1159 1747 
Q 1159 1113 1420 752 
Q 1681 391 2138 391 
Q 2594 391 2855 752 
Q 3116 1113 3116 1747 
z
" transform="scale(0.015625)"/>
       <path id="DejaVuSans-d7" d="M 4488 3438 
L 3059 2003 
L 4488 575 
L 4116 197 
L 2681 1631 
L 1247 197 
L 878 575 
L 2303 2003 
L 878 3438 
L 1247 3816 
L 2681 2381 
L 4116 3816 
L 4488 3438 
z
" transform="scale(0.015625)"/>
       <path id="DejaVuSans-2079" d="M 453 2144 
L 453 2466 
Q 606 2403 763 2369 
Q 919 2338 1069 2338 
Q 1472 2338 1684 2572 
Q 1894 2806 1925 3288 
Q 1816 3141 1628 3056 
Q 1450 2975 1234 2975 
Q 784 2975 521 3212 
Q 259 3450 259 3863 
Q 259 4266 531 4506 
Q 806 4750 1259 4750 
Q 1781 4750 2053 4403 
Q 2328 4056 2328 3394 
Q 2328 2775 1994 2409 
Q 1656 2041 1088 2041 
Q 934 2041 778 2066 
Q 622 2094 453 2144 
z
M 1259 3250 
Q 1534 3250 1693 3412 
Q 1853 3575 1853 3863 
Q 1853 4144 1694 4306 
Q 1534 4472 1259 4472 
Q 994 4472 828 4306 
Q 666 4144 666 3863 
Q 666 3575 828 3413 
Q 988 3250 1259 3250 
z
" transform="scale(0.015625)"/>
       <path id="DejaVuSans-6e" d="M 3513 2113 
L 3513 0 
L 2938 0 
L 2938 2094 
Q 2938 2591 2744 2837 
Q 2550 3084 2163 3084 
Q 1697 3084 1428 2787 
Q 1159 2491 1159 1978 
L 1159 0 
L 581 0 
L 581 3500 
L 1159 3500 
L 1159 2956 
Q 1366 3272 1645 3428 
Q 1925 3584 2291 3584 
Q 2894 3584 3203 3211 
Q 3513 2838 3513 2113 
z
" transform="scale(0.015625)"/>
       <path id="DejaVuSans-2f" d="M 1625 4666 
L 2156 4666 
L 531 -594 
L 0 -594 
L 1625 4666 
z
" transform="scale(0.015625)"/>
      </defs>
      <use xlink:href="#DejaVuSans-73"/>
      <use xlink:href="#DejaVuSans-70" transform="translate(52.099609 0)"/>
      <use xlink:href="#DejaVuSans-65" transform="translate(115.576172 0)"/>
      <use xlink:href="#DejaVuSans-65" transform="translate(177.099609 0)"/>
      <use xlink:href="#DejaVuSans-64" transform="translate(238.623047 0)"/>
      <use xlink:href="#DejaVuSans-20" transform="translate(302.099609 0)"/>
      <use xlink:href="#DejaVuSans-28" transform="translate(333.886719 0)"/>
      <use xlink:href="#DejaVuSans-d7" transform="translate(372.900391 0)"/>
      <use xlink:href="#DejaVuSans-31" transform="translate(456.689453 0)"/>
      <use xlink:href="#DejaVuSans-30" transform="translate(520.3125 0)"/>
      <use xlink:href="#DejaVuSans-2079" transform="translate(583.935547 0)"/>
      <use xlink:href="#DejaVuSans-20" transform="translate(624.023438 0)"/>
      <use xlink:href="#DejaVuSans-69" transform="translate(655.810547 0)"/>
      <use xlink:href="#DejaVuSans-6e" transform="translate(683.59375 0)"/>
      <use xlink:href="#DejaVuSans-74" transform="translate(746.972656 0)"/>
      <use xlink:href="#DejaVuSans-2f" transform="translate(786.181641 0)"/>
      <use xlink:href="#DejaVuSans-73" transform="translate(819.873047 0)"/>
      <use xlink:href="#DejaVuSans-29" transform="translate(871.972656 0)"/>
     </g>
    </g>
   </g>
   <g id="line2d_16">
    <path d="M 65.01234 100.381418 
L 114.574307 100.715244 
L 164.136275 213.379366 
L 213.698242 77.321488 
L 263.260209 192.930798 
L 312.822176 192.401796 
L 362.384144 193.125296 
" clip-path="url(#p9302b3a7c6)" style="fill: none; stroke-dasharray: 1.5,0; stroke-dashoffset: 0; stroke: #2ca02c; stroke-width: 1.5"/>
   </g>
   <g id="line2d_17">
    <path d="M 65.01234 287.47859 
L 114.574307 290.889906 
L 164.136275 293.70539 
L 213.698242 295.749514 
L 263.260209 297.677698 
L 312.822176 299.821769 
L 362.384144 300.840152 
" clip-path="url(#p9302b3a7c6)" style="fill: none; stroke-dasharray: 1.5,0; stroke-dashoffset: 0; stroke: #9467bd; stroke-width: 1.5"/>
   </g>
   <g id="line2d_18">
    <path d="M 65.01234 302.569645 
L 114.574307 302.905114 
L 164.136275 302.824333 
L 213.698242 302.805607 
L 263.260209 302.826236 
L 312.822176 302.814785 
L 362.384144 302.825204 
" clip-path="url(#p9302b3a7c6)" style="fill: none; stroke-dasharray: 7.5,7.5; stroke-dashoffset: 0; stroke: #8c564b; stroke-width: 1.5"/>
   </g>
   <g id="line2d_19"/>
   <g id="line2d_20"/>
   <g id="line2d_21"/>
   <g id="line2d_22"/>
   <g id="line2d_23"/>
   <g id="line2d_24"/>
   <g id="line2d_25"/>
   <g id="patch_3">
    <path d="M 50.14375 340.272727 
L 50.14375 64.8 
" style="fill: none; stroke: #000000; stroke-width: 0.8; stroke-linejoin: miter; stroke-linecap: square"/>
   </g>
   <g id="patch_4">
    <path d="M 50.14375 340.272727 
L 377.252734 340.272727 
" style="fill: none; stroke: #000000; stroke-width: 0.8; stroke-linejoin: miter; stroke-linecap: square"/>
   </g>
   <g id="text_18">
    <!-- Unpacking to Uint8 -->
    <g transform="translate(165.699023 72.573636) scale(0.1 -0.1)">
     <defs>
      <path id="DejaVuSans-55" d="M 556 4666 
L 1191 4666 
L 1191 1831 
Q 1191 1081 1462 751 
Q 1734 422 2344 422 
Q 2950 422 3222 751 
Q 3494 1081 3494 1831 
L 3494 4666 
L 4128 4666 
L 4128 1753 
Q 4128 841 3676 375 
Q 3225 -91 2344 -91 
Q 1459 -91 1007 375 
Q 556 841 556 1753 
L 556 4666 
z
" transform="scale(0.015625)"/>
      <path id="DejaVuSans-67" d="M 2906 1791 
Q 2906 2416 2648 2759 
Q 2391 3103 1925 3103 
Q 1463 3103 1205 2759 
Q 947 2416 947 1791 
Q 947 1169 1205 825 
Q 1463 481 1925 481 
Q 2391 481 2648 825 
Q 2906 1169 2906 1791 
z
M 3481 434 
Q 3481 -459 3084 -895 
Q 2688 -1331 1869 -1331 
Q 1566 -1331 1297 -1286 
Q 1028 -1241 775 -1147 
L 775 -588 
Q 1028 -725 1275 -790 
Q 1522 -856 1778 -856 
Q 2344 -856 2625 -561 
Q 2906 -266 2906 331 
L 2906 616 
Q 2728 306 2450 153 
Q 2172 0 1784 0 
Q 1141 0 747 490 
Q 353 981 353 1791 
Q 353 2603 747 3093 
Q 1141 3584 1784 3584 
Q 2172 3584 2450 3431 
Q 2728 3278 2906 2969 
L 2906 3500 
L 3481 3500 
L 3481 434 
z
" transform="scale(0.015625)"/>
      <path id="DejaVuSans-6f" d="M 1959 3097 
Q 1497 3097 1228 2736 
Q 959 2375 959 1747 
Q 959 1119 1226 758 
Q 1494 397 1959 397 
Q 2419 397 2687 759 
Q 2956 1122 2956 1747 
Q 2956 2369 2687 2733 
Q 2419 3097 1959 3097 
z
M 1959 3584 
Q 2709 3584 3137 3096 
Q 3566 2609 3566 1747 
Q 3566 888 3137 398 
Q 2709 -91 1959 -91 
Q 1206 -91 779 398 
Q 353 888 353 1747 
Q 353 2609 779 3096 
Q 1206 3584 1959 3584 
z
" transform="scale(0.015625)"/>
      <path id="DejaVuSans-38" d="M 2034 2216 
Q 1584 2216 1326 1975 
Q 1069 1734 1069 1313 
Q 1069 891 1326 650 
Q 1584 409 2034 409 
Q 2484 409 2743 651 
Q 3003 894 3003 1313 
Q 3003 1734 2745 1975 
Q 2488 2216 2034 2216 
z
M 1403 2484 
Q 997 2584 770 2862 
Q 544 3141 544 3541 
Q 544 4100 942 4425 
Q 1341 4750 2034 4750 
Q 2731 4750 3128 4425 
Q 3525 4100 3525 3541 
Q 3525 3141 3298 2862 
Q 3072 2584 2669 2484 
Q 3125 2378 3379 2068 
Q 3634 1759 3634 1313 
Q 3634 634 3220 271 
Q 2806 -91 2034 -91 
Q 1263 -91 848 271 
Q 434 634 434 1313 
Q 434 1759 690 2068 
Q 947 2378 1403 2484 
z
M 1172 3481 
Q 1172 3119 1398 2916 
Q 1625 2713 2034 2713 
Q 2441 2713 2670 2916 
Q 2900 3119 2900 3481 
Q 2900 3844 2670 4047 
Q 2441 4250 2034 4250 
Q 1625 4250 1398 4047 
Q 1172 3844 1172 3481 
z
" transform="scale(0.015625)"/>
     </defs>
     <use xlink:href="#DejaVuSans-55"/>
     <use xlink:href="#DejaVuSans-6e" transform="translate(73.193359 0)"/>
     <use xlink:href="#DejaVuSans-70" transform="translate(136.572266 0)"/>
     <use xlink:href="#DejaVuSans-61" transform="translate(200.048828 0)"/>
     <use xlink:href="#DejaVuSans-63" transform="translate(261.328125 0)"/>
     <use xlink:href="#DejaVuSans-6b" transform="translate(316.308594 0)"/>
     <use xlink:href="#DejaVuSans-69" transform="translate(374.21875 0)"/>
     <use xlink:href="#DejaVuSans-6e" transform="translate(402.001953 0)"/>
     <use xlink:href="#DejaVuSans-67" transform="translate(465.380859 0)"/>
     <use xlink:href="#DejaVuSans-20" transform="translate(528.857422 0)"/>
     <use xlink:href="#DejaVuSans-74" transform="translate(560.644531 0)"/>
     <use xlink:href="#DejaVuSans-6f" transform="translate(599.853516 0)"/>
     <use xlink:href="#DejaVuSans-20" transform="translate(661.035156 0)"/>
     <use xlink:href="#DejaVuSans-55" transform="translate(692.822266 0)"/>
     <use xlink:href="#DejaVuSans-69" transform="translate(766.015625 0)"/>
     <use xlink:href="#DejaVuSans-6e" transform="translate(793.798828 0)"/>
     <use xlink:href="#DejaVuSans-74" transform="translate(857.177734 0)"/>
     <use xlink:href="#DejaVuSans-38" transform="translate(896.386719 0)"/>
    </g>
   </g>
  </g>
  <g id="axes_2">
   <g id="patch_5">
    <path d="M 391.500205 340.272727 
L 718.609189 340.272727 
L 718.609189 64.8 
L 391.500205 64.8 
z
" style="fill: #ffffff"/>
   </g>
   <g id="FillBetweenPolyCollection_4"/>
   <g id="FillBetweenPolyCollection_5"/>
   <g id="FillBetweenPolyCollection_6"/>
   <g id="matplotlib.axis_3">
    <g id="xtick_8">
     <g id="line2d_26">
      <g>
       <use xlink:href="#mbe5de6641a" x="427.609638" y="340.272727" style="stroke: #000000; stroke-width: 0.8"/>
      </g>
     </g>
     <g id="text_19">
      <!-- 2 -->
      <g transform="translate(424.428388 354.871165) scale(0.1 -0.1)">
       <use xlink:href="#DejaVuSans-32"/>
      </g>
     </g>
    </g>
    <g id="xtick_9">
     <g id="line2d_27">
      <g>
       <use xlink:href="#mbe5de6641a" x="470.091324" y="340.272727" style="stroke: #000000; stroke-width: 0.8"/>
      </g>
     </g>
     <g id="text_20">
      <!-- 4 -->
      <g transform="translate(466.910074 354.871165) scale(0.1 -0.1)">
       <use xlink:href="#DejaVuSans-34"/>
      </g>
     </g>
    </g>
    <g id="xtick_10">
     <g id="line2d_28">
      <g>
       <use xlink:href="#mbe5de6641a" x="512.573011" y="340.272727" style="stroke: #000000; stroke-width: 0.8"/>
      </g>
     </g>
     <g id="text_21">
      <!-- 6 -->
      <g transform="translate(509.391761 354.871165) scale(0.1 -0.1)">
       <use xlink:href="#DejaVuSans-36"/>
      </g>
     </g>
    </g>
    <g id="xtick_11">
     <g id="line2d_29">
      <g>
       <use xlink:href="#mbe5de6641a" x="555.054697" y="340.272727" style="stroke: #000000; stroke-width: 0.8"/>
      </g>
     </g>
     <g id="text_22">
      <!-- 8 -->
      <g transform="translate(551.873447 354.871165) scale(0.1 -0.1)">
       <use xlink:href="#DejaVuSans-38"/>
      </g>
     </g>
    </g>
    <g id="xtick_12">
     <g id="line2d_30">
      <g>
       <use xlink:href="#mbe5de6641a" x="597.536383" y="340.272727" style="stroke: #000000; stroke-width: 0.8"/>
      </g>
     </g>
     <g id="text_23">
      <!-- 10 -->
      <g transform="translate(591.173883 354.871165) scale(0.1 -0.1)">
       <use xlink:href="#DejaVuSans-31"/>
       <use xlink:href="#DejaVuSans-30" transform="translate(63.623047 0)"/>
      </g>
     </g>
    </g>
    <g id="xtick_13">
     <g id="line2d_31">
      <g>
       <use xlink:href="#mbe5de6641a" x="640.018069" y="340.272727" style="stroke: #000000; stroke-width: 0.8"/>
      </g>
     </g>
     <g id="text_24">
      <!-- 12 -->
      <g transform="translate(633.655569 354.871165) scale(0.1 -0.1)">
       <use xlink:href="#DejaVuSans-31"/>
       <use xlink:href="#DejaVuSans-32" transform="translate(63.623047 0)"/>
      </g>
     </g>
    </g>
    <g id="xtick_14">
     <g id="line2d_32">
      <g>
       <use xlink:href="#mbe5de6641a" x="682.499755" y="340.272727" style="stroke: #000000; stroke-width: 0.8"/>
      </g>
     </g>
     <g id="text_25">
      <!-- 14 -->
      <g transform="translate(676.137255 354.871165) scale(0.1 -0.1)">
       <use xlink:href="#DejaVuSans-31"/>
       <use xlink:href="#DejaVuSans-34" transform="translate(63.623047 0)"/>
      </g>
     </g>
    </g>
    <g id="text_26">
     <!-- Packed width (bit) -->
     <g transform="translate(510.102353 368.54929) scale(0.1 -0.1)">
      <use xlink:href="#DejaVuSans-50"/>
      <use xlink:href="#DejaVuSans-61" transform="translate(55.802734 0)"/>
      <use xlink:href="#DejaVuSans-63" transform="translate(117.082031 0)"/>
      <use xlink:href="#DejaVuSans-6b" transform="translate(172.0625 0)"/>
      <use xlink:href="#DejaVuSans-65" transform="translate(226.347656 0)"/>
      <use xlink:href="#DejaVuSans-64" transform="translate(287.871094 0)"/>
      <use xlink:href="#DejaVuSans-20" transform="translate(351.347656 0)"/>
      <use xlink:href="#DejaVuSans-77" transform="translate(383.134766 0)"/>
      <use xlink:href="#DejaVuSans-69" transform="translate(464.921875 0)"/>
      <use xlink:href="#DejaVuSans-64" transform="translate(492.705078 0)"/>
      <use xlink:href="#DejaVuSans-74" transform="translate(556.181641 0)"/>
      <use xlink:href="#DejaVuSans-68" transform="translate(595.390625 0)"/>
      <use xlink:href="#DejaVuSans-20" transform="translate(658.769531 0)"/>
      <use xlink:href="#DejaVuSans-28" transform="translate(690.556641 0)"/>
      <use xlink:href="#DejaVuSans-62" transform="translate(729.570312 0)"/>
      <use xlink:href="#DejaVuSans-69" transform="translate(793.046875 0)"/>
      <use xlink:href="#DejaVuSans-74" transform="translate(820.830078 0)"/>
      <use xlink:href="#DejaVuSans-29" transform="translate(860.039062 0)"/>
     </g>
    </g>
   </g>
   <g id="matplotlib.axis_4">
    <g id="ytick_9">
     <g id="line2d_33">
      <g>
       <use xlink:href="#m8607739ac8" x="391.500205" y="328.667747" style="stroke: #000000; stroke-width: 0.8"/>
      </g>
     </g>
    </g>
    <g id="ytick_10">
     <g id="line2d_34">
      <g>
       <use xlink:href="#m8607739ac8" x="391.500205" y="294.379974" style="stroke: #000000; stroke-width: 0.8"/>
      </g>
     </g>
    </g>
    <g id="ytick_11">
     <g id="line2d_35">
      <g>
       <use xlink:href="#m8607739ac8" x="391.500205" y="260.092201" style="stroke: #000000; stroke-width: 0.8"/>
      </g>
     </g>
    </g>
    <g id="ytick_12">
     <g id="line2d_36">
      <g>
       <use xlink:href="#m8607739ac8" x="391.500205" y="225.804428" style="stroke: #000000; stroke-width: 0.8"/>
      </g>
     </g>
    </g>
    <g id="ytick_13">
     <g id="line2d_37">
      <g>
       <use xlink:href="#m8607739ac8" x="391.500205" y="191.516654" style="stroke: #000000; stroke-width: 0.8"/>
      </g>
     </g>
    </g>
    <g id="ytick_14">
     <g id="line2d_38">
      <g>
       <use xlink:href="#m8607739ac8" x="391.500205" y="157.228881" style="stroke: #000000; stroke-width: 0.8"/>
      </g>
     </g>
    </g>
    <g id="ytick_15">
     <g id="line2d_39">
      <g>
       <use xlink:href="#m8607739ac8" x="391.500205" y="122.941108" style="stroke: #000000; stroke-width: 0.8"/>
      </g>
     </g>
    </g>
    <g id="ytick_16">
     <g id="line2d_40">
      <g>
       <use xlink:href="#m8607739ac8" x="391.500205" y="88.653335" style="stroke: #000000; stroke-width: 0.8"/>
      </g>
     </g>
    </g>
   </g>
   <g id="line2d_41">
    <path d="M 406.368795 216.853026 
L 427.609638 215.912138 
L 448.850481 218.026819 
L 470.091324 221.56991 
L 491.332168 223.348117 
L 512.573011 221.827311 
L 533.813854 223.445625 
L 555.054697 223.89481 
L 576.29554 246.458778 
L 597.536383 244.87888 
L 618.777226 263.316993 
L 640.018069 249.401376 
L 661.258912 261.180253 
L 682.499755 261.628447 
L 703.740599 284.811412 
" clip-path="url(#p65b39c81a2)" style="fill: none; stroke-dasharray: 1.5,0; stroke-dashoffset: 0; stroke: #2ca02c; stroke-width: 1.5"/>
   </g>
   <g id="line2d_42">
    <path d="M 406.368795 257.897064 
L 427.609638 265.798715 
L 448.850481 272.278347 
L 470.091324 277.666442 
L 491.332168 281.925545 
L 512.573011 286.427243 
L 533.813854 291.126697 
L 555.054697 291.660695 
L 576.29554 296.076456 
L 597.536383 296.335657 
L 618.777226 297.923617 
L 640.018069 297.408862 
L 661.258912 299.854108 
L 682.499755 300.263537 
L 703.740599 301.549724 
" clip-path="url(#p65b39c81a2)" style="fill: none; stroke-dasharray: 1.5,0; stroke-dashoffset: 0; stroke: #9467bd; stroke-width: 1.5"/>
   </g>
   <g id="line2d_43">
    <path d="M 406.368795 301.214437 
L 427.609638 301.429042 
L 448.850481 301.183638 
L 470.091324 301.082141 
L 491.332168 301.157725 
L 512.573011 301.208103 
L 533.813854 301.668459 
L 555.054697 300.945241 
L 576.29554 302.097381 
L 597.536383 302.135858 
L 618.777226 302.335765 
L 640.018069 302.222302 
L 661.258912 302.693755 
L 682.499755 302.556881 
L 703.740599 303.134499 
" clip-path="url(#p65b39c81a2)" style="fill: none; stroke-dasharray: 7.5,7.5; stroke-dashoffset: 0; stroke: #8c564b; stroke-width: 1.5"/>
   </g>
   <g id="patch_6">
    <path d="M 391.500205 340.272727 
L 391.500205 64.8 
" style="fill: none; stroke: #000000; stroke-width: 0.8; stroke-linejoin: miter; stroke-linecap: square"/>
   </g>
   <g id="patch_7">
    <path d="M 391.500205 340.272727 
L 718.609189 340.272727 
" style="fill: none; stroke: #000000; stroke-width: 0.8; stroke-linejoin: miter; stroke-linecap: square"/>
   </g>
   <g id="text_27">
    <!-- Unpacking to Uint16 -->
    <g transform="translate(503.874228 72.573636) scale(0.1 -0.1)">
     <use xlink:href="#DejaVuSans-55"/>
     <use xlink:href="#DejaVuSans-6e" transform="translate(73.193359 0)"/>
     <use xlink:href="#DejaVuSans-70" transform="translate(136.572266 0)"/>
     <use xlink:href="#DejaVuSans-61" transform="translate(200.048828 0)"/>
     <use xlink:href="#DejaVuSans-63" transform="translate(261.328125 0)"/>
     <use xlink:href="#DejaVuSans-6b" transform="translate(316.308594 0)"/>
     <use xlink:href="#DejaVuSans-69" transform="translate(374.21875 0)"/>
     <use xlink:href="#DejaVuSans-6e" transform="translate(402.001953 0)"/>
     <use xlink:href="#DejaVuSans-67" transform="translate(465.380859 0)"/>
     <use xlink:href="#DejaVuSans-20" transform="translate(528.857422 0)"/>
     <use xlink:href="#DejaVuSans-74" transform="translate(560.644531 0)"/>
     <use xlink:href="#DejaVuSans-6f" transform="translate(599.853516 0)"/>
     <use xlink:href="#DejaVuSans-20" transform="translate(661.035156 0)"/>
     <use xlink:href="#DejaVuSans-55" transform="translate(692.822266 0)"/>
     <use xlink:href="#DejaVuSans-69" transform="translate(766.015625 0)"/>
     <use xlink:href="#DejaVuSans-6e" transform="translate(793.798828 0)"/>
     <use xlink:href="#DejaVuSans-74" transform="translate(857.177734 0)"/>
     <use xlink:href="#DejaVuSans-31" transform="translate(896.386719 0)"/>
     <use xlink:href="#DejaVuSans-36" transform="translate(960.009766 0)"/>
    </g>
   </g>
  </g>
  <g id="axes_3">
   <g id="patch_8">
    <path d="M 50.14375 670.84 
L 377.252734 670.84 
L 377.252734 395.367273 
L 50.14375 395.367273 
z
" style="fill: #ffffff"/>
   </g>
   <g id="FillBetweenPolyCollection_7"/>
   <g id="FillBetweenPolyCollection_8"/>
   <g id="FillBetweenPolyCollection_9"/>
   <g id="matplotlib.axis_5">
    <g id="xtick_15">
     <g id="line2d_44">
      <g>
       <use xlink:href="#mbe5de6641a" x="55.099947" y="670.84" style="stroke: #000000; stroke-width: 0.8"/>
      </g>
     </g>
     <g id="text_28">
      <!-- 0 -->
      <g transform="translate(51.918697 685.438437) scale(0.1 -0.1)">
       <use xlink:href="#DejaVuSans-30"/>
      </g>
     </g>
    </g>
    <g id="xtick_16">
     <g id="line2d_45">
      <g>
       <use xlink:href="#mbe5de6641a" x="104.661914" y="670.84" style="stroke: #000000; stroke-width: 0.8"/>
      </g>
     </g>
     <g id="text_29">
      <!-- 5 -->
      <g transform="translate(101.480664 685.438437) scale(0.1 -0.1)">
       <use xlink:href="#DejaVuSans-35"/>
      </g>
     </g>
    </g>
    <g id="xtick_17">
     <g id="line2d_46">
      <g>
       <use xlink:href="#mbe5de6641a" x="154.223881" y="670.84" style="stroke: #000000; stroke-width: 0.8"/>
      </g>
     </g>
     <g id="text_30">
      <!-- 10 -->
      <g transform="translate(147.861381 685.438437) scale(0.1 -0.1)">
       <use xlink:href="#DejaVuSans-31"/>
       <use xlink:href="#DejaVuSans-30" transform="translate(63.623047 0)"/>
      </g>
     </g>
    </g>
    <g id="xtick_18">
     <g id="line2d_47">
      <g>
       <use xlink:href="#mbe5de6641a" x="203.785848" y="670.84" style="stroke: #000000; stroke-width: 0.8"/>
      </g>
     </g>
     <g id="text_31">
      <!-- 15 -->
      <g transform="translate(197.423348 685.438437) scale(0.1 -0.1)">
       <use xlink:href="#DejaVuSans-31"/>
       <use xlink:href="#DejaVuSans-35" transform="translate(63.623047 0)"/>
      </g>
     </g>
    </g>
    <g id="xtick_19">
     <g id="line2d_48">
      <g>
       <use xlink:href="#mbe5de6641a" x="253.347816" y="670.84" style="stroke: #000000; stroke-width: 0.8"/>
      </g>
     </g>
     <g id="text_32">
      <!-- 20 -->
      <g transform="translate(246.985316 685.438437) scale(0.1 -0.1)">
       <use xlink:href="#DejaVuSans-32"/>
       <use xlink:href="#DejaVuSans-30" transform="translate(63.623047 0)"/>
      </g>
     </g>
    </g>
    <g id="xtick_20">
     <g id="line2d_49">
      <g>
       <use xlink:href="#mbe5de6641a" x="302.909783" y="670.84" style="stroke: #000000; stroke-width: 0.8"/>
      </g>
     </g>
     <g id="text_33">
      <!-- 25 -->
      <g transform="translate(296.547283 685.438437) scale(0.1 -0.1)">
       <use xlink:href="#DejaVuSans-32"/>
       <use xlink:href="#DejaVuSans-35" transform="translate(63.623047 0)"/>
      </g>
     </g>
    </g>
    <g id="xtick_21">
     <g id="line2d_50">
      <g>
       <use xlink:href="#mbe5de6641a" x="352.47175" y="670.84" style="stroke: #000000; stroke-width: 0.8"/>
      </g>
     </g>
     <g id="text_34">
      <!-- 30 -->
      <g transform="translate(346.10925 685.438437) scale(0.1 -0.1)">
       <use xlink:href="#DejaVuSans-33"/>
       <use xlink:href="#DejaVuSans-30" transform="translate(63.623047 0)"/>
      </g>
     </g>
    </g>
    <g id="text_35">
     <!-- Packed width (bit) -->
     <g transform="translate(168.745898 699.116562) scale(0.1 -0.1)">
      <use xlink:href="#DejaVuSans-50"/>
      <use xlink:href="#DejaVuSans-61" transform="translate(55.802734 0)"/>
      <use xlink:href="#DejaVuSans-63" transform="translate(117.082031 0)"/>
      <use xlink:href="#DejaVuSans-6b" transform="translate(172.0625 0)"/>
      <use xlink:href="#DejaVuSans-65" transform="translate(226.347656 0)"/>
      <use xlink:href="#DejaVuSans-64" transform="translate(287.871094 0)"/>
      <use xlink:href="#DejaVuSans-20" transform="translate(351.347656 0)"/>
      <use xlink:href="#DejaVuSans-77" transform="translate(383.134766 0)"/>
      <use xlink:href="#DejaVuSans-69" transform="translate(464.921875 0)"/>
      <use xlink:href="#DejaVuSans-64" transform="translate(492.705078 0)"/>
      <use xlink:href="#DejaVuSans-74" transform="translate(556.181641 0)"/>
      <use xlink:href="#DejaVuSans-68" transform="translate(595.390625 0)"/>
      <use xlink:href="#DejaVuSans-20" transform="translate(658.769531 0)"/>
      <use xlink:href="#DejaVuSans-28" transform="translate(690.556641 0)"/>
      <use xlink:href="#DejaVuSans-62" transform="translate(729.570312 0)"/>
      <use xlink:href="#DejaVuSans-69" transform="translate(793.046875 0)"/>
      <use xlink:href="#DejaVuSans-74" transform="translate(820.830078 0)"/>
      <use xlink:href="#DejaVuSans-29" transform="translate(860.039062 0)"/>
     </g>
    </g>
   </g>
   <g id="matplotlib.axis_6">
    <g id="ytick_17">
     <g id="line2d_51">
      <g>
       <use xlink:href="#m8607739ac8" x="50.14375" y="659.23502" style="stroke: #000000; stroke-width: 0.8"/>
      </g>
     </g>
     <g id="text_36">
      <!-- 0.0 -->
      <g transform="translate(27.240625 663.034239) scale(0.1 -0.1)">
       <use xlink:href="#DejaVuSans-30"/>
       <use xlink:href="#DejaVuSans-2e" transform="translate(63.623047 0)"/>
       <use xlink:href="#DejaVuSans-30" transform="translate(95.410156 0)"/>
      </g>
     </g>
    </g>
    <g id="ytick_18">
     <g id="line2d_52">
      <g>
       <use xlink:href="#m8607739ac8" x="50.14375" y="624.947247" style="stroke: #000000; stroke-width: 0.8"/>
      </g>
     </g>
     <g id="text_37">
      <!-- 10.0 -->
      <g transform="translate(20.878125 628.746465) scale(0.1 -0.1)">
       <use xlink:href="#DejaVuSans-31"/>
       <use xlink:href="#DejaVuSans-30" transform="translate(63.623047 0)"/>
       <use xlink:href="#DejaVuSans-2e" transform="translate(127.246094 0)"/>
       <use xlink:href="#DejaVuSans-30" transform="translate(159.033203 0)"/>
      </g>
     </g>
    </g>
    <g id="ytick_19">
     <g id="line2d_53">
      <g>
       <use xlink:href="#m8607739ac8" x="50.14375" y="590.659473" style="stroke: #000000; stroke-width: 0.8"/>
      </g>
     </g>
     <g id="text_38">
      <!-- 20.0 -->
      <g transform="translate(20.878125 594.458692) scale(0.1 -0.1)">
       <use xlink:href="#DejaVuSans-32"/>
       <use xlink:href="#DejaVuSans-30" transform="translate(63.623047 0)"/>
       <use xlink:href="#DejaVuSans-2e" transform="translate(127.246094 0)"/>
       <use xlink:href="#DejaVuSans-30" transform="translate(159.033203 0)"/>
      </g>
     </g>
    </g>
    <g id="ytick_20">
     <g id="line2d_54">
      <g>
       <use xlink:href="#m8607739ac8" x="50.14375" y="556.3717" style="stroke: #000000; stroke-width: 0.8"/>
      </g>
     </g>
     <g id="text_39">
      <!-- 30.0 -->
      <g transform="translate(20.878125 560.170919) scale(0.1 -0.1)">
       <use xlink:href="#DejaVuSans-33"/>
       <use xlink:href="#DejaVuSans-30" transform="translate(63.623047 0)"/>
       <use xlink:href="#DejaVuSans-2e" transform="translate(127.246094 0)"/>
       <use xlink:href="#DejaVuSans-30" transform="translate(159.033203 0)"/>
      </g>
     </g>
    </g>
    <g id="ytick_21">
     <g id="line2d_55">
      <g>
       <use xlink:href="#m8607739ac8" x="50.14375" y="522.083927" style="stroke: #000000; stroke-width: 0.8"/>
      </g>
     </g>
     <g id="text_40">
      <!-- 40.0 -->
      <g transform="translate(20.878125 525.883146) scale(0.1 -0.1)">
       <use xlink:href="#DejaVuSans-34"/>
       <use xlink:href="#DejaVuSans-30" transform="translate(63.623047 0)"/>
       <use xlink:href="#DejaVuSans-2e" transform="translate(127.246094 0)"/>
       <use xlink:href="#DejaVuSans-30" transform="translate(159.033203 0)"/>
      </g>
     </g>
    </g>
    <g id="ytick_22">
     <g id="line2d_56">
      <g>
       <use xlink:href="#m8607739ac8" x="50.14375" y="487.796154" style="stroke: #000000; stroke-width: 0.8"/>
      </g>
     </g>
     <g id="text_41">
      <!-- 50.0 -->
      <g transform="translate(20.878125 491.595373) scale(0.1 -0.1)">
       <use xlink:href="#DejaVuSans-35"/>
       <use xlink:href="#DejaVuSans-30" transform="translate(63.623047 0)"/>
       <use xlink:href="#DejaVuSans-2e" transform="translate(127.246094 0)"/>
       <use xlink:href="#DejaVuSans-30" transform="translate(159.033203 0)"/>
      </g>
     </g>
    </g>
    <g id="ytick_23">
     <g id="line2d_57">
      <g>
       <use xlink:href="#m8607739ac8" x="50.14375" y="453.508381" style="stroke: #000000; stroke-width: 0.8"/>
      </g>
     </g>
     <g id="text_42">
      <!-- 60.0 -->
      <g transform="translate(20.878125 457.307599) scale(0.1 -0.1)">
       <use xlink:href="#DejaVuSans-36"/>
       <use xlink:href="#DejaVuSans-30" transform="translate(63.623047 0)"/>
       <use xlink:href="#DejaVuSans-2e" transform="translate(127.246094 0)"/>
       <use xlink:href="#DejaVuSans-30" transform="translate(159.033203 0)"/>
      </g>
     </g>
    </g>
    <g id="ytick_24">
     <g id="line2d_58">
      <g>
       <use xlink:href="#m8607739ac8" x="50.14375" y="419.220607" style="stroke: #000000; stroke-width: 0.8"/>
      </g>
     </g>
     <g id="text_43">
      <!-- 70.0 -->
      <g transform="translate(20.878125 423.019826) scale(0.1 -0.1)">
       <use xlink:href="#DejaVuSans-37"/>
       <use xlink:href="#DejaVuSans-30" transform="translate(63.623047 0)"/>
       <use xlink:href="#DejaVuSans-2e" transform="translate(127.246094 0)"/>
       <use xlink:href="#DejaVuSans-30" transform="translate(159.033203 0)"/>
      </g>
     </g>
    </g>
    <g id="text_44">
     <!-- speed (×10⁹ int/s) -->
     <g transform="translate(14.798438 578.653636) rotate(-90) scale(0.1 -0.1)">
      <use xlink:href="#DejaVuSans-73"/>
      <use xlink:href="#DejaVuSans-70" transform="translate(52.099609 0)"/>
      <use xlink:href="#DejaVuSans-65" transform="translate(115.576172 0)"/>
      <use xlink:href="#DejaVuSans-65" transform="translate(177.099609 0)"/>
      <use xlink:href="#DejaVuSans-64" transform="translate(238.623047 0)"/>
      <use xlink:href="#DejaVuSans-20" transform="translate(302.099609 0)"/>
      <use xlink:href="#DejaVuSans-28" transform="translate(333.886719 0)"/>
      <use xlink:href="#DejaVuSans-d7" transform="translate(372.900391 0)"/>
      <use xlink:href="#DejaVuSans-31" transform="translate(456.689453 0)"/>
      <use xlink:href="#DejaVuSans-30" transform="translate(520.3125 0)"/>
      <use xlink:href="#DejaVuSans-2079" transform="translate(583.935547 0)"/>
      <use xlink:href="#DejaVuSans-20" transform="translate(624.023438 0)"/>
      <use xlink:href="#DejaVuSans-69" transform="translate(655.810547 0)"/>
      <use xlink:href="#DejaVuSans-6e" transform="translate(683.59375 0)"/>
      <use xlink:href="#DejaVuSans-74" transform="translate(746.972656 0)"/>
      <use xlink:href="#DejaVuSans-2f" transform="translate(786.181641 0)"/>
      <use xlink:href="#DejaVuSans-73" transform="translate(819.873047 0)"/>
      <use xlink:href="#DejaVuSans-29" transform="translate(871.972656 0)"/>
     </g>
    </g>
   </g>
   <g id="line2d_59">
    <path d="M 65.01234 613.097062 
L 74.924734 612.34188 
L 84.837127 612.497863 
L 94.749521 613.67247 
L 104.661914 610.605297 
L 114.574307 616.492457 
L 124.486701 615.397567 
L 134.399094 614.441343 
L 144.311488 616.405784 
L 154.223881 615.178751 
L 164.136275 616.405295 
L 174.048668 615.915868 
L 183.961062 616.132673 
L 193.873455 617.154325 
L 203.785848 614.825726 
L 213.698242 617.023394 
L 223.610635 618.363045 
L 233.523029 618.459817 
L 243.435422 616.479793 
L 253.347816 620.031584 
L 263.260209 615.519173 
L 273.172603 617.660909 
L 283.084996 616.482309 
L 292.99739 617.186827 
L 302.909783 615.968363 
L 312.822176 616.558493 
L 322.73457 625.756056 
L 332.646963 618.906914 
L 342.559357 625.543929 
L 352.47175 625.626595 
L 362.384144 625.756644 
" clip-path="url(#p798b287fe9)" style="fill: none; stroke-dasharray: 1.5,0; stroke-dashoffset: 0; stroke: #2ca02c; stroke-width: 1.5"/>
   </g>
   <g id="line2d_60">
    <path d="M 65.01234 596.748303 
L 74.924734 601.456182 
L 84.837127 608.305107 
L 94.749521 609.691765 
L 104.661914 618.976814 
L 114.574307 621.288991 
L 124.486701 624.803119 
L 134.399094 624.829634 
L 144.311488 628.542962 
L 154.223881 628.55082 
L 164.136275 630.167861 
L 174.048668 629.345487 
L 183.961062 632.350023 
L 193.873455 632.818234 
L 203.785848 633.769707 
L 213.698242 631.532312 
L 223.610635 635.168466 
L 233.523029 635.142622 
L 243.435422 636.925132 
L 253.347816 635.090422 
L 263.260209 639.086221 
L 273.172603 639.092809 
L 283.084996 640.878112 
L 292.99739 635.030053 
L 302.909783 642.377793 
L 312.822176 642.363438 
L 322.73457 636.958755 
L 332.646963 642.369978 
L 342.559357 629.055656 
L 352.47175 628.860801 
L 362.384144 625.178572 
" clip-path="url(#p798b287fe9)" style="fill: none; stroke-dasharray: 1.5,0; stroke-dashoffset: 0; stroke: #9467bd; stroke-width: 1.5"/>
   </g>
   <g id="line2d_61">
    <path d="M 65.01234 607.471132 
L 74.924734 607.602898 
L 84.837127 607.841825 
L 94.749521 607.597053 
L 104.661914 608.131953 
L 114.574307 608.070632 
L 124.486701 609.091867 
L 134.399094 607.925744 
L 144.311488 613.07142 
L 154.223881 613.420659 
L 164.136275 618.329103 
L 174.048668 614.554124 
L 183.961062 626.137369 
L 193.873455 625.803395 
L 203.785848 630.443784 
L 213.698242 608.448963 
L 223.610635 634.070834 
L 233.523029 633.993849 
L 243.435422 636.979161 
L 253.347816 634.010473 
L 263.260209 639.450293 
L 273.172603 639.253049 
L 283.084996 641.08382 
L 292.99739 633.954474 
L 302.909783 642.609382 
L 312.822176 642.680681 
L 322.73457 643.945624 
L 332.646963 642.313281 
L 342.559357 644.836489 
L 352.47175 644.865049 
L 362.384144 645.844958 
" clip-path="url(#p798b287fe9)" style="fill: none; stroke-dasharray: 7.5,7.5; stroke-dashoffset: 0; stroke: #8c564b; stroke-width: 1.5"/>
   </g>
   <g id="patch_9">
    <path d="M 50.14375 670.84 
L 50.14375 395.367273 
" style="fill: none; stroke: #000000; stroke-width: 0.8; stroke-linejoin: miter; stroke-linecap: square"/>
   </g>
   <g id="patch_10">
    <path d="M 50.14375 670.84 
L 377.252734 670.84 
" style="fill: none; stroke: #000000; stroke-width: 0.8; stroke-linejoin: miter; stroke-linecap: square"/>
   </g>
   <g id="text_45">
    <!-- Unpacking to Uint32 -->
    <g transform="translate(162.517773 403.140909) scale(0.1 -0.1)">
     <use xlink:href="#DejaVuSans-55"/>
     <use xlink:href="#DejaVuSans-6e" transform="translate(73.193359 0)"/>
     <use xlink:href="#DejaVuSans-70" transform="translate(136.572266 0)"/>
     <use xlink:href="#DejaVuSans-61" transform="translate(200.048828 0)"/>
     <use xlink:href="#DejaVuSans-63" transform="translate(261.328125 0)"/>
     <use xlink:href="#DejaVuSans-6b" transform="translate(316.308594 0)"/>
     <use xlink:href="#DejaVuSans-69" transform="translate(374.21875 0)"/>
     <use xlink:href="#DejaVuSans-6e" transform="translate(402.001953 0)"/>
     <use xlink:href="#DejaVuSans-67" transform="translate(465.380859 0)"/>
     <use xlink:href="#DejaVuSans-20" transform="translate(528.857422 0)"/>
     <use xlink:href="#DejaVuSans-74" transform="translate(560.644531 0)"/>
     <use xlink:href="#DejaVuSans-6f" transform="translate(599.853516 0)"/>
     <use xlink:href="#DejaVuSans-20" transform="translate(661.035156 0)"/>
     <use xlink:href="#DejaVuSans-55" transform="translate(692.822266 0)"/>
     <use xlink:href="#DejaVuSans-69" transform="translate(766.015625 0)"/>
     <use xlink:href="#DejaVuSans-6e" transform="translate(793.798828 0)"/>
     <use xlink:href="#DejaVuSans-74" transform="translate(857.177734 0)"/>
     <use xlink:href="#DejaVuSans-33" transform="translate(896.386719 0)"/>
     <use xlink:href="#DejaVuSans-32" transform="translate(960.009766 0)"/>
    </g>
   </g>
  </g>
  <g id="axes_4">
   <g id="patch_11">
    <path d="M 391.500205 670.84 
L 718.609189 670.84 
L 718.609189 395.367273 
L 391.500205 395.367273 
z
" style="fill: #ffffff"/>
   </g>
   <g id="FillBetweenPolyCollection_10"/>
   <g id="FillBetweenPolyCollection_11"/>
   <g id="FillBetweenPolyCollection_12"/>
   <g id="matplotlib.axis_7">
    <g id="xtick_22">
     <g id="line2d_62">
      <g>
       <use xlink:href="#mbe5de6641a" x="401.572476" y="670.84" style="stroke: #000000; stroke-width: 0.8"/>
      </g>
     </g>
     <g id="text_46">
      <!-- 0 -->
      <g transform="translate(398.391226 685.438437) scale(0.1 -0.1)">
       <use xlink:href="#DejaVuSans-30"/>
      </g>
     </g>
    </g>
    <g id="xtick_23">
     <g id="line2d_63">
      <g>
       <use xlink:href="#mbe5de6641a" x="449.53567" y="670.84" style="stroke: #000000; stroke-width: 0.8"/>
      </g>
     </g>
     <g id="text_47">
      <!-- 10 -->
      <g transform="translate(443.17317 685.438437) scale(0.1 -0.1)">
       <use xlink:href="#DejaVuSans-31"/>
       <use xlink:href="#DejaVuSans-30" transform="translate(63.623047 0)"/>
      </g>
     </g>
    </g>
    <g id="xtick_24">
     <g id="line2d_64">
      <g>
       <use xlink:href="#mbe5de6641a" x="497.498864" y="670.84" style="stroke: #000000; stroke-width: 0.8"/>
      </g>
     </g>
     <g id="text_48">
      <!-- 20 -->
      <g transform="translate(491.136364 685.438437) scale(0.1 -0.1)">
       <use xlink:href="#DejaVuSans-32"/>
       <use xlink:href="#DejaVuSans-30" transform="translate(63.623047 0)"/>
      </g>
     </g>
    </g>
    <g id="xtick_25">
     <g id="line2d_65">
      <g>
       <use xlink:href="#mbe5de6641a" x="545.462058" y="670.84" style="stroke: #000000; stroke-width: 0.8"/>
      </g>
     </g>
     <g id="text_49">
      <!-- 30 -->
      <g transform="translate(539.099558 685.438437) scale(0.1 -0.1)">
       <use xlink:href="#DejaVuSans-33"/>
       <use xlink:href="#DejaVuSans-30" transform="translate(63.623047 0)"/>
      </g>
     </g>
    </g>
    <g id="xtick_26">
     <g id="line2d_66">
      <g>
       <use xlink:href="#mbe5de6641a" x="593.425252" y="670.84" style="stroke: #000000; stroke-width: 0.8"/>
      </g>
     </g>
     <g id="text_50">
      <!-- 40 -->
      <g transform="translate(587.062752 685.438437) scale(0.1 -0.1)">
       <use xlink:href="#DejaVuSans-34"/>
       <use xlink:href="#DejaVuSans-30" transform="translate(63.623047 0)"/>
      </g>
     </g>
    </g>
    <g id="xtick_27">
     <g id="line2d_67">
      <g>
       <use xlink:href="#mbe5de6641a" x="641.388446" y="670.84" style="stroke: #000000; stroke-width: 0.8"/>
      </g>
     </g>
     <g id="text_51">
      <!-- 50 -->
      <g transform="translate(635.025946 685.438437) scale(0.1 -0.1)">
       <use xlink:href="#DejaVuSans-35"/>
       <use xlink:href="#DejaVuSans-30" transform="translate(63.623047 0)"/>
      </g>
     </g>
    </g>
    <g id="xtick_28">
     <g id="line2d_68">
      <g>
       <use xlink:href="#mbe5de6641a" x="689.35164" y="670.84" style="stroke: #000000; stroke-width: 0.8"/>
      </g>
     </g>
     <g id="text_52">
      <!-- 60 -->
      <g transform="translate(682.98914 685.438437) scale(0.1 -0.1)">
       <use xlink:href="#DejaVuSans-36"/>
       <use xlink:href="#DejaVuSans-30" transform="translate(63.623047 0)"/>
      </g>
     </g>
    </g>
    <g id="text_53">
     <!-- Packed width (bit) -->
     <g transform="translate(510.102353 699.116562) scale(0.1 -0.1)">
      <use xlink:href="#DejaVuSans-50"/>
      <use xlink:href="#DejaVuSans-61" transform="translate(55.802734 0)"/>
      <use xlink:href="#DejaVuSans-63" transform="translate(117.082031 0)"/>
      <use xlink:href="#DejaVuSans-6b" transform="translate(172.0625 0)"/>
      <use xlink:href="#DejaVuSans-65" transform="translate(226.347656 0)"/>
      <use xlink:href="#DejaVuSans-64" transform="translate(287.871094 0)"/>
      <use xlink:href="#DejaVuSans-20" transform="translate(351.347656 0)"/>
      <use xlink:href="#DejaVuSans-77" transform="translate(383.134766 0)"/>
      <use xlink:href="#DejaVuSans-69" transform="translate(464.921875 0)"/>
      <use xlink:href="#DejaVuSans-64" transform="translate(492.705078 0)"/>
      <use xlink:href="#DejaVuSans-74" transform="translate(556.181641 0)"/>
      <use xlink:href="#DejaVuSans-68" transform="translate(595.390625 0)"/>
      <use xlink:href="#DejaVuSans-20" transform="translate(658.769531 0)"/>
      <use xlink:href="#DejaVuSans-28" transform="translate(690.556641 0)"/>
      <use xlink:href="#DejaVuSans-62" transform="translate(729.570312 0)"/>
      <use xlink:href="#DejaVuSans-69" transform="translate(793.046875 0)"/>
      <use xlink:href="#DejaVuSans-74" transform="translate(820.830078 0)"/>
      <use xlink:href="#DejaVuSans-29" transform="translate(860.039062 0)"/>
     </g>
    </g>
   </g>
   <g id="matplotlib.axis_8">
    <g id="ytick_25">
     <g id="line2d_69">
      <g>
       <use xlink:href="#m8607739ac8" x="391.500205" y="659.23502" style="stroke: #000000; stroke-width: 0.8"/>
      </g>
     </g>
    </g>
    <g id="ytick_26">
     <g id="line2d_70">
      <g>
       <use xlink:href="#m8607739ac8" x="391.500205" y="624.947247" style="stroke: #000000; stroke-width: 0.8"/>
      </g>
     </g>
    </g>
    <g id="ytick_27">
     <g id="line2d_71">
      <g>
       <use xlink:href="#m8607739ac8" x="391.500205" y="590.659473" style="stroke: #000000; stroke-width: 0.8"/>
      </g>
     </g>
    </g>
    <g id="ytick_28">
     <g id="line2d_72">
      <g>
       <use xlink:href="#m8607739ac8" x="391.500205" y="556.3717" style="stroke: #000000; stroke-width: 0.8"/>
      </g>
     </g>
    </g>
    <g id="ytick_29">
     <g id="line2d_73">
      <g>
       <use xlink:href="#m8607739ac8" x="391.500205" y="522.083927" style="stroke: #000000; stroke-width: 0.8"/>
      </g>
     </g>
    </g>
    <g id="ytick_30">
     <g id="line2d_74">
      <g>
       <use xlink:href="#m8607739ac8" x="391.500205" y="487.796154" style="stroke: #000000; stroke-width: 0.8"/>
      </g>
     </g>
    </g>
    <g id="ytick_31">
     <g id="line2d_75">
      <g>
       <use xlink:href="#m8607739ac8" x="391.500205" y="453.508381" style="stroke: #000000; stroke-width: 0.8"/>
      </g>
     </g>
    </g>
    <g id="ytick_32">
     <g id="line2d_76">
      <g>
       <use xlink:href="#m8607739ac8" x="391.500205" y="419.220607" style="stroke: #000000; stroke-width: 0.8"/>
      </g>
     </g>
    </g>
   </g>
   <g id="line2d_77">
    <path d="M 406.368795 618.440081 
L 411.165115 618.597249 
L 415.961434 618.442605 
L 420.757753 618.603606 
L 425.554073 619.872813 
L 430.350392 632.687855 
L 435.146712 630.406175 
L 439.943031 631.827293 
L 444.73935 632.303634 
L 449.53567 632.573266 
L 454.331989 632.360056 
L 459.128309 632.071305 
L 463.924628 632.328375 
L 468.720947 632.094277 
L 473.517267 631.98525 
L 478.313586 631.757593 
L 483.109906 632.868109 
L 487.906225 633.09913 
L 492.702544 632.249689 
L 497.498864 632.917049 
L 502.295183 632.058606 
L 507.091503 632.432504 
L 511.887822 632.493331 
L 516.684142 633.37218 
L 521.480461 632.282857 
L 526.27678 632.335185 
L 531.0731 633.025668 
L 535.869419 632.752202 
L 540.665739 632.413329 
L 545.462058 633.12715 
L 550.258377 633.396083 
L 555.054697 630.921343 
L 559.851016 632.775274 
L 564.647336 636.275153 
L 569.443655 633.114489 
L 574.239974 637.803305 
L 579.036294 632.687173 
L 583.832613 635.090012 
L 588.628933 632.425274 
L 593.425252 635.66995 
L 598.221572 632.134679 
L 603.017891 635.130484 
L 607.81421 632.004229 
L 612.61053 637.420938 
L 617.406849 630.863581 
L 622.203169 635.066089 
L 626.999488 630.570226 
L 631.795807 635.279259 
L 636.592127 630.60652 
L 641.388446 634.872226 
L 646.184766 631.456773 
L 650.981085 636.926421 
L 655.777404 630.290477 
L 660.573724 634.52169 
L 665.370043 630.370972 
L 670.166363 635.132933 
L 674.962682 630.700575 
L 679.759002 635.231478 
L 684.555321 642.449295 
L 689.35164 637.59286 
L 694.14796 642.467687 
L 698.944279 642.445795 
L 703.740599 658.318512 
" clip-path="url(#p892b33d233)" style="fill: none; stroke-dasharray: 1.5,0; stroke-dashoffset: 0; stroke: #2ca02c; stroke-width: 1.5"/>
   </g>
   <g id="line2d_78">
    <path d="M 406.368795 626.619015 
L 411.165115 629.404107 
L 415.961434 626.78698 
L 420.757753 626.280858 
L 425.554073 625.732204 
L 430.350392 626.015119 
L 435.146712 626.74764 
L 439.943031 626.643672 
L 444.73935 628.112364 
L 449.53567 636.784875 
L 454.331989 630.677327 
L 459.128309 632.677445 
L 463.924628 637.564266 
L 468.720947 638.282963 
L 473.517267 637.419486 
L 478.313586 638.521594 
L 483.109906 638.231182 
L 487.906225 638.868387 
L 492.702544 639.528727 
L 497.498864 639.643453 
L 502.295183 640.2309 
L 507.091503 639.543406 
L 511.887822 641.027336 
L 516.684142 641.13401 
L 521.480461 641.259079 
L 526.27678 641.940738 
L 531.0731 642.193996 
L 535.869419 642.272887 
L 540.665739 641.827288 
L 545.462058 643.072527 
L 550.258377 643.356312 
L 555.054697 643.26873 
L 559.851016 643.581743 
L 564.647336 643.71311 
L 569.443655 642.870407 
L 574.239974 643.668008 
L 579.036294 644.063924 
L 583.832613 643.094932 
L 588.628933 644.371243 
L 593.425252 642.793294 
L 598.221572 643.590815 
L 603.017891 644.496777 
L 607.81421 644.857298 
L 612.61053 644.509518 
L 617.406849 645.113681 
L 622.203169 645.155262 
L 626.999488 645.34053 
L 631.795807 643.771328 
L 636.592127 645.661564 
L 641.388446 645.606022 
L 646.184766 645.953617 
L 650.981085 644.852077 
L 655.777404 646.276682 
L 660.573724 646.35423 
L 665.370043 646.559941 
L 670.166363 645.749768 
L 674.962682 646.835337 
L 679.759002 646.874146 
L 684.555321 646.203119 
L 689.35164 645.925467 
L 694.14796 646.420433 
L 698.944279 647.440791 
L 703.740599 646.815283 
" clip-path="url(#p892b33d233)" style="fill: none; stroke-dasharray: 1.5,0; stroke-dashoffset: 0; stroke: #9467bd; stroke-width: 1.5"/>
   </g>
   <g id="line2d_79">
    <path d="M 406.368795 618.169091 
L 411.165115 618.344577 
L 415.961434 618.836481 
L 420.757753 618.67245 
L 425.554073 619.191311 
L 430.350392 619.430766 
L 435.146712 619.864234 
L 439.943031 619.550808 
L 444.73935 620.744523 
L 449.53567 621.310531 
L 454.331989 621.832203 
L 459.128309 622.224978 
L 463.924628 624.356082 
L 468.720947 624.456965 
L 473.517267 623.829509 
L 478.313586 624.325474 
L 483.109906 626.206886 
L 487.906225 626.609482 
L 492.702544 628.066286 
L 497.498864 626.622693 
L 502.295183 627.777963 
L 507.091503 627.454815 
L 511.887822 629.192218 
L 516.684142 629.527229 
L 521.480461 628.945923 
L 526.27678 629.08657 
L 531.0731 631.289688 
L 535.869419 629.128765 
L 540.665739 633.731663 
L 545.462058 633.902716 
L 550.258377 634.201908 
L 555.054697 631.350582 
L 559.851016 635.68072 
L 564.647336 636.258987 
L 569.443655 637.290239 
L 574.239974 635.001809 
L 579.036294 637.666242 
L 583.832613 638.336203 
L 588.628933 638.916451 
L 593.425252 635.740699 
L 598.221572 640.257752 
L 603.017891 639.540554 
L 607.81421 640.888297 
L 612.61053 639.350009 
L 617.406849 641.908644 
L 622.203169 642.0017 
L 626.999488 642.813794 
L 631.795807 635.776534 
L 636.592127 643.227114 
L 641.388446 643.465042 
L 646.184766 643.833079 
L 650.981085 643.00741 
L 655.777404 644.52108 
L 660.573724 644.454536 
L 665.370043 644.778785 
L 670.166363 642.893145 
L 674.962682 645.236325 
L 679.759002 645.163162 
L 684.555321 645.754627 
L 689.35164 645.231604 
L 694.14796 646.177221 
L 698.944279 646.158825 
L 703.740599 646.649196 
" clip-path="url(#p892b33d233)" style="fill: none; stroke-dasharray: 7.5,7.5; stroke-dashoffset: 0; stroke: #8c564b; stroke-width: 1.5"/>
   </g>
   <g id="patch_12">
    <path d="M 391.500205 670.84 
L 391.500205 395.367273 
" style="fill: none; stroke: #000000; stroke-width: 0.8; stroke-linejoin: miter; stroke-linecap: square"/>
   </g>
   <g id="patch_13">
    <path d="M 391.500205 670.84 
L 718.609189 670.84 
" style="fill: none; stroke: #000000; stroke-width: 0.8; stroke-linejoin: miter; stroke-linecap: square"/>
   </g>
   <g id="text_54">
    <!-- Unpacking to Uint64 -->
    <g transform="translate(503.874228 403.140909) scale(0.1 -0.1)">
     <use xlink:href="#DejaVuSans-55"/>
     <use xlink:href="#DejaVuSans-6e" transform="translate(73.193359 0)"/>
     <use xlink:href="#DejaVuSans-70" transform="translate(136.572266 0)"/>
     <use xlink:href="#DejaVuSans-61" transform="translate(200.048828 0)"/>
     <use xlink:href="#DejaVuSans-63" transform="translate(261.328125 0)"/>
     <use xlink:href="#DejaVuSans-6b" transform="translate(316.308594 0)"/>
     <use xlink:href="#DejaVuSans-69" transform="translate(374.21875 0)"/>
     <use xlink:href="#DejaVuSans-6e" transform="translate(402.001953 0)"/>
     <use xlink:href="#DejaVuSans-67" transform="translate(465.380859 0)"/>
     <use xlink:href="#DejaVuSans-20" transform="translate(528.857422 0)"/>
     <use xlink:href="#DejaVuSans-74" transform="translate(560.644531 0)"/>
     <use xlink:href="#DejaVuSans-6f" transform="translate(599.853516 0)"/>
     <use xlink:href="#DejaVuSans-20" transform="translate(661.035156 0)"/>
     <use xlink:href="#DejaVuSans-55" transform="translate(692.822266 0)"/>
     <use xlink:href="#DejaVuSans-69" transform="translate(766.015625 0)"/>
     <use xlink:href="#DejaVuSans-6e" transform="translate(793.798828 0)"/>
     <use xlink:href="#DejaVuSans-74" transform="translate(857.177734 0)"/>
     <use xlink:href="#DejaVuSans-36" transform="translate(896.386719 0)"/>
     <use xlink:href="#DejaVuSans-34" transform="translate(960.009766 0)"/>
    </g>
   </g>
  </g>
  <g id="text_55">
   <!-- Unpack speed on osx-arm64 -->
   <g transform="translate(328.978864 16.318125) scale(0.12 -0.12)">
    <defs>
     <path id="DejaVuSans-78" d="M 3513 3500 
L 2247 1797 
L 3578 0 
L 2900 0 
L 1881 1375 
L 863 0 
L 184 0 
L 1544 1831 
L 300 3500 
L 978 3500 
L 1906 2253 
L 2834 3500 
L 3513 3500 
z
" transform="scale(0.015625)"/>
     <path id="DejaVuSans-2d" d="M 313 2009 
L 1997 2009 
L 1997 1497 
L 313 1497 
L 313 2009 
z
" transform="scale(0.015625)"/>
     <path id="DejaVuSans-72" d="M 2631 2963 
Q 2534 3019 2420 3045 
Q 2306 3072 2169 3072 
Q 1681 3072 1420 2755 
Q 1159 2438 1159 1844 
L 1159 0 
L 581 0 
L 581 3500 
L 1159 3500 
L 1159 2956 
Q 1341 3275 1631 3429 
Q 1922 3584 2338 3584 
Q 2397 3584 2469 3576 
Q 2541 3569 2628 3553 
L 2631 2963 
z
" transform="scale(0.015625)"/>
     <path id="DejaVuSans-6d" d="M 3328 2828 
Q 3544 3216 3844 3400 
Q 4144 3584 4550 3584 
Q 5097 3584 5394 3201 
Q 5691 2819 5691 2113 
L 5691 0 
L 5113 0 
L 5113 2094 
Q 5113 2597 4934 2840 
Q 4756 3084 4391 3084 
Q 3944 3084 3684 2787 
Q 3425 2491 3425 1978 
L 3425 0 
L 2847 0 
L 2847 2094 
Q 2847 2600 2669 2842 
Q 2491 3084 2119 3084 
Q 1678 3084 1418 2786 
Q 1159 2488 1159 1978 
L 1159 0 
L 581 0 
L 581 3500 
L 1159 3500 
L 1159 2956 
Q 1356 3278 1631 3431 
Q 1906 3584 2284 3584 
Q 2666 3584 2933 3390 
Q 3200 3197 3328 2828 
z
" transform="scale(0.015625)"/>
    </defs>
    <use xlink:href="#DejaVuSans-55"/>
    <use xlink:href="#DejaVuSans-6e" transform="translate(73.193359 0)"/>
    <use xlink:href="#DejaVuSans-70" transform="translate(136.572266 0)"/>
    <use xlink:href="#DejaVuSans-61" transform="translate(200.048828 0)"/>
    <use xlink:href="#DejaVuSans-63" transform="translate(261.328125 0)"/>
    <use xlink:href="#DejaVuSans-6b" transform="translate(316.308594 0)"/>
    <use xlink:href="#DejaVuSans-20" transform="translate(374.21875 0)"/>
    <use xlink:href="#DejaVuSans-73" transform="translate(406.005859 0)"/>
    <use xlink:href="#DejaVuSans-70" transform="translate(458.105469 0)"/>
    <use xlink:href="#DejaVuSans-65" transform="translate(521.582031 0)"/>
    <use xlink:href="#DejaVuSans-65" transform="translate(583.105469 0)"/>
    <use xlink:href="#DejaVuSans-64" transform="translate(644.628906 0)"/>
    <use xlink:href="#DejaVuSans-20" transform="translate(708.105469 0)"/>
    <use xlink:href="#DejaVuSans-6f" transform="translate(739.892578 0)"/>
    <use xlink:href="#DejaVuSans-6e" transform="translate(801.074219 0)"/>
    <use xlink:href="#DejaVuSans-20" transform="translate(864.453125 0)"/>
    <use xlink:href="#DejaVuSans-6f" transform="translate(896.240234 0)"/>
    <use xlink:href="#DejaVuSans-73" transform="translate(957.421875 0)"/>
    <use xlink:href="#DejaVuSans-78" transform="translate(1009.521484 0)"/>
    <use xlink:href="#DejaVuSans-2d" transform="translate(1068.701172 0)"/>
    <use xlink:href="#DejaVuSans-61" transform="translate(1104.785156 0)"/>
    <use xlink:href="#DejaVuSans-72" transform="translate(1166.064453 0)"/>
    <use xlink:href="#DejaVuSans-6d" transform="translate(1205.427734 0)"/>
    <use xlink:href="#DejaVuSans-36" transform="translate(1302.839844 0)"/>
    <use xlink:href="#DejaVuSans-34" transform="translate(1366.462891 0)"/>
   </g>
  </g>
  <g id="legend_1">
   <g id="line2d_80">
    <path d="M 728.261989 309.423125 
L 738.261989 309.423125 
L 748.261989 309.423125 
" style="fill: none"/>
   </g>
   <g id="text_56">
    <!-- func -->
    <g transform="translate(756.261989 312.923125) scale(0.1 -0.1)">
     <defs>
      <path id="DejaVuSans-66" d="M 2375 4863 
L 2375 4384 
L 1825 4384 
Q 1516 4384 1395 4259 
Q 1275 4134 1275 3809 
L 1275 3500 
L 2222 3500 
L 2222 3053 
L 1275 3053 
L 1275 0 
L 697 0 
L 697 3053 
L 147 3053 
L 147 3500 
L 697 3500 
L 697 3744 
Q 697 4328 969 4595 
Q 1241 4863 1831 4863 
L 2375 4863 
z
" transform="scale(0.015625)"/>
      <path id="DejaVuSans-75" d="M 544 1381 
L 544 3500 
L 1119 3500 
L 1119 1403 
Q 1119 906 1312 657 
Q 1506 409 1894 409 
Q 2359 409 2629 706 
Q 2900 1003 2900 1516 
L 2900 3500 
L 3475 3500 
L 3475 0 
L 2900 0 
L 2900 538 
Q 2691 219 2414 64 
Q 2138 -91 1772 -91 
Q 1169 -91 856 284 
Q 544 659 544 1381 
z
M 1991 3584 
L 1991 3584 
z
" transform="scale(0.015625)"/>
     </defs>
     <use xlink:href="#DejaVuSans-66"/>
     <use xlink:href="#DejaVuSans-75" transform="translate(35.205078 0)"/>
     <use xlink:href="#DejaVuSans-6e" transform="translate(98.583984 0)"/>
     <use xlink:href="#DejaVuSans-63" transform="translate(161.962891 0)"/>
    </g>
   </g>
   <g id="line2d_81">
    <path d="M 728.261989 324.10125 
L 738.261989 324.10125 
L 748.261989 324.10125 
" style="fill: none; stroke: #2ca02c; stroke-width: 1.5; stroke-linecap: square"/>
   </g>
   <g id="text_57">
    <!-- New -->
    <g transform="translate(756.261989 327.60125) scale(0.1 -0.1)">
     <defs>
      <path id="DejaVuSans-4e" d="M 628 4666 
L 1478 4666 
L 3547 763 
L 3547 4666 
L 4159 4666 
L 4159 0 
L 3309 0 
L 1241 3903 
L 1241 0 
L 628 0 
L 628 4666 
z
" transform="scale(0.015625)"/>
     </defs>
     <use xlink:href="#DejaVuSans-4e"/>
     <use xlink:href="#DejaVuSans-65" transform="translate(74.804688 0)"/>
     <use xlink:href="#DejaVuSans-77" transform="translate(136.328125 0)"/>
    </g>
   </g>
   <g id="line2d_82">
    <path d="M 728.261989 338.779375 
L 738.261989 338.779375 
L 748.261989 338.779375 
" style="fill: none; stroke: #9467bd; stroke-width: 1.5; stroke-linecap: square"/>
   </g>
   <g id="text_58">
    <!-- Old -->
    <g transform="translate(756.261989 342.279375) scale(0.1 -0.1)">
     <defs>
      <path id="DejaVuSans-4f" d="M 2522 4238 
Q 1834 4238 1429 3725 
Q 1025 3213 1025 2328 
Q 1025 1447 1429 934 
Q 1834 422 2522 422 
Q 3209 422 3611 934 
Q 4013 1447 4013 2328 
Q 4013 3213 3611 3725 
Q 3209 4238 2522 4238 
z
M 2522 4750 
Q 3503 4750 4090 4092 
Q 4678 3434 4678 2328 
Q 4678 1225 4090 567 
Q 3503 -91 2522 -91 
Q 1538 -91 948 565 
Q 359 1222 359 2328 
Q 359 3434 948 4092 
Q 1538 4750 2522 4750 
z
" transform="scale(0.015625)"/>
      <path id="DejaVuSans-6c" d="M 603 4863 
L 1178 4863 
L 1178 0 
L 603 0 
L 603 4863 
z
" transform="scale(0.015625)"/>
     </defs>
     <use xlink:href="#DejaVuSans-4f"/>
     <use xlink:href="#DejaVuSans-6c" transform="translate(78.710938 0)"/>
     <use xlink:href="#DejaVuSans-64" transform="translate(106.494141 0)"/>
    </g>
   </g>
   <g id="line2d_83">
    <path d="M 728.261989 353.4575 
L 738.261989 353.4575 
L 748.261989 353.4575 
" style="fill: none; stroke: #8c564b; stroke-width: 1.5; stroke-linecap: square"/>
   </g>
   <g id="text_59">
    <!-- ScalarBatch -->
    <g transform="translate(756.261989 356.9575) scale(0.1 -0.1)">
     <defs>
      <path id="DejaVuSans-53" d="M 3425 4513 
L 3425 3897 
Q 3066 4069 2747 4153 
Q 2428 4238 2131 4238 
Q 1616 4238 1336 4038 
Q 1056 3838 1056 3469 
Q 1056 3159 1242 3001 
Q 1428 2844 1947 2747 
L 2328 2669 
Q 3034 2534 3370 2195 
Q 3706 1856 3706 1288 
Q 3706 609 3251 259 
Q 2797 -91 1919 -91 
Q 1588 -91 1214 -16 
Q 841 59 441 206 
L 441 856 
Q 825 641 1194 531 
Q 1563 422 1919 422 
Q 2459 422 2753 634 
Q 3047 847 3047 1241 
Q 3047 1584 2836 1778 
Q 2625 1972 2144 2069 
L 1759 2144 
Q 1053 2284 737 2584 
Q 422 2884 422 3419 
Q 422 4038 858 4394 
Q 1294 4750 2059 4750 
Q 2388 4750 2728 4690 
Q 3069 4631 3425 4513 
z
" transform="scale(0.015625)"/>
      <path id="DejaVuSans-42" d="M 1259 2228 
L 1259 519 
L 2272 519 
Q 2781 519 3026 730 
Q 3272 941 3272 1375 
Q 3272 1813 3026 2020 
Q 2781 2228 2272 2228 
L 1259 2228 
z
M 1259 4147 
L 1259 2741 
L 2194 2741 
Q 2656 2741 2882 2914 
Q 3109 3088 3109 3444 
Q 3109 3797 2882 3972 
Q 2656 4147 2194 4147 
L 1259 4147 
z
M 628 4666 
L 2241 4666 
Q 2963 4666 3353 4366 
Q 3744 4066 3744 3513 
Q 3744 3084 3544 2831 
Q 3344 2578 2956 2516 
Q 3422 2416 3680 2098 
Q 3938 1781 3938 1306 
Q 3938 681 3513 340 
Q 3088 0 2303 0 
L 628 0 
L 628 4666 
z
" transform="scale(0.015625)"/>
     </defs>
     <use xlink:href="#DejaVuSans-53"/>
     <use xlink:href="#DejaVuSans-63" transform="translate(63.476562 0)"/>
     <use xlink:href="#DejaVuSans-61" transform="translate(118.457031 0)"/>
     <use xlink:href="#DejaVuSans-6c" transform="translate(179.736328 0)"/>
     <use xlink:href="#DejaVuSans-61" transform="translate(207.519531 0)"/>
     <use xlink:href="#DejaVuSans-72" transform="translate(268.798828 0)"/>
     <use xlink:href="#DejaVuSans-42" transform="translate(309.912109 0)"/>
     <use xlink:href="#DejaVuSans-61" transform="translate(378.515625 0)"/>
     <use xlink:href="#DejaVuSans-74" transform="translate(439.794922 0)"/>
     <use xlink:href="#DejaVuSans-63" transform="translate(479.003906 0)"/>
     <use xlink:href="#DejaVuSans-68" transform="translate(533.984375 0)"/>
    </g>
   </g>
   <g id="line2d_84">
    <path d="M 728.261989 368.135625 
L 738.261989 368.135625 
L 748.261989 368.135625 
" style="fill: none"/>
   </g>
   <g id="text_60">
    <!-- arch -->
    <g transform="translate(756.261989 371.635625) scale(0.1 -0.1)">
     <use xlink:href="#DejaVuSans-61"/>
     <use xlink:href="#DejaVuSans-72" transform="translate(61.279297 0)"/>
     <use xlink:href="#DejaVuSans-63" transform="translate(100.142578 0)"/>
     <use xlink:href="#DejaVuSans-68" transform="translate(155.123047 0)"/>
    </g>
   </g>
   <g id="line2d_85">
    <path d="M 728.261989 382.81375 
L 738.261989 382.81375 
L 748.261989 382.81375 
" style="fill: none; stroke-dasharray: 1.5,0; stroke-dashoffset: 0; stroke: #333333; stroke-width: 1.5"/>
   </g>
   <g id="text_61">
    <!-- Neon -->
    <g transform="translate(756.261989 386.31375) scale(0.1 -0.1)">
     <use xlink:href="#DejaVuSans-4e"/>
     <use xlink:href="#DejaVuSans-65" transform="translate(74.804688 0)"/>
     <use xlink:href="#DejaVuSans-6f" transform="translate(136.328125 0)"/>
     <use xlink:href="#DejaVuSans-6e" transform="translate(197.509766 0)"/>
    </g>
   </g>
   <g id="line2d_86">
    <path d="M 728.261989 397.491875 
L 738.261989 397.491875 
L 748.261989 397.491875 
" style="fill: none; stroke-dasharray: 7.5,7.5; stroke-dashoffset: 0; stroke: #333333; stroke-width: 1.5"/>
   </g>
   <g id="text_62">
    <!-- NoSimd -->
    <g transform="translate(756.261989 400.991875) scale(0.1 -0.1)">
     <use xlink:href="#DejaVuSans-4e"/>
     <use xlink:href="#DejaVuSans-6f" transform="translate(74.804688 0)"/>
     <use xlink:href="#DejaVuSans-53" transform="translate(135.986328 0)"/>
     <use xlink:href="#DejaVuSans-69" transform="translate(199.462891 0)"/>
     <use xlink:href="#DejaVuSans-6d" transform="translate(227.246094 0)"/>
     <use xlink:href="#DejaVuSans-64" transform="translate(324.658203 0)"/>
    </g>
   </g>
  </g>
 </g>
 <defs>
  <clipPath id="p9302b3a7c6">
   <rect x="50.14375" y="64.8" width="327.108984" height="275.472727"/>
  </clipPath>
  <clipPath id="p65b39c81a2">
   <rect x="391.500205" y="64.8" width="327.108984" height="275.472727"/>
  </clipPath>
  <clipPath id="p798b287fe9">
   <rect x="50.14375" y="395.367273" width="327.108984" height="275.472727"/>
  </clipPath>
  <clipPath id="p892b33d233">
   <rect x="391.500205" y="395.367273" width="327.108984" height="275.472727"/>
  </clipPath>
 </defs>
</svg>
